<?xml version="1.0" encoding="UTF-8"?>
<!--Generator: Apple Native CoreSVG 175-->
<!DOCTYPE svg
PUBLIC "-//W3C//DTD SVG 1.1//EN"
       "http://www.w3.org/Graphics/SVG/1.1/DTD/svg11.dtd">
<svg version="1.1" xmlns="http://www.w3.org/2000/svg" xmlns:xlink="http://www.w3.org/1999/xlink" width="3300" height="2200">
 <!--glyph: "uni100380.medium", point size: 100.0, font version: "17.1d1e1", template writer version: "65.1"-->
 <g id="Notes">
  <rect height="2200" id="artboard" style="fill:white;opacity:1" width="3300" x="0" y="0"/>
  <line style="fill:none;stroke:black;opacity:1;stroke-width:0.5;" x1="263" x2="3036" y1="292" y2="292"/>
  <text style="stroke:none;fill:black;font-family:sans-serif;font-size:13;font-weight:bold;" transform="matrix(1 0 0 1 263 322)">Weight/Scale Variations</text>
  <text style="stroke:none;fill:black;font-family:sans-serif;font-size:13;text-anchor:middle;" transform="matrix(1 0 0 1 559.711 322)">Ultralight</text>
  <text style="stroke:none;fill:black;font-family:sans-serif;font-size:13;text-anchor:middle;" transform="matrix(1 0 0 1 856.422 322)">Thin</text>
  <text style="stroke:none;fill:black;font-family:sans-serif;font-size:13;text-anchor:middle;" transform="matrix(1 0 0 1 1153.13 322)">Light</text>
  <text style="stroke:none;fill:black;font-family:sans-serif;font-size:13;text-anchor:middle;" transform="matrix(1 0 0 1 1449.84 322)">Regular</text>
  <text style="stroke:none;fill:black;font-family:sans-serif;font-size:13;text-anchor:middle;" transform="matrix(1 0 0 1 1746.56 322)">Medium</text>
  <text style="stroke:none;fill:black;font-family:sans-serif;font-size:13;text-anchor:middle;" transform="matrix(1 0 0 1 2043.27 322)">Semibold</text>
  <text style="stroke:none;fill:black;font-family:sans-serif;font-size:13;text-anchor:middle;" transform="matrix(1 0 0 1 2339.98 322)">Bold</text>
  <text style="stroke:none;fill:black;font-family:sans-serif;font-size:13;text-anchor:middle;" transform="matrix(1 0 0 1 2636.69 322)">Heavy</text>
  <text style="stroke:none;fill:black;font-family:sans-serif;font-size:13;text-anchor:middle;" transform="matrix(1 0 0 1 2933.4 322)">Black</text>
  <line style="fill:none;stroke:black;opacity:1;stroke-width:0.5;" x1="263" x2="3036" y1="1903" y2="1903"/>
  <g transform="matrix(1 0 0 1 263 1933)">
   <path d="M9.24805 0.830078Q10.8691 0.830078 12.2949 0.214844Q13.7207-0.400391 14.8096-1.49414Q15.8984-2.58789 16.5186-4.01367Q17.1387-5.43945 17.1387-7.05078Q17.1387-8.66211 16.5186-10.0879Q15.8984-11.5137 14.8047-12.6074Q13.7109-13.7012 12.2852-14.3164Q10.8594-14.9316 9.23828-14.9316Q7.62695-14.9316 6.20117-14.3164Q4.77539-13.7012 3.69141-12.6074Q2.60742-11.5137 1.9873-10.0879Q1.36719-8.66211 1.36719-7.05078Q1.36719-5.43945 1.9873-4.01367Q2.60742-2.58789 3.69629-1.49414Q4.78516-0.400391 6.21094 0.214844Q7.63672 0.830078 9.24805 0.830078ZM9.24805-0.654297Q7.91992-0.654297 6.7627-1.14746Q5.60547-1.64062 4.73145-2.51953Q3.85742-3.39844 3.36426-4.56055Q2.87109-5.72266 2.87109-7.05078Q2.87109-8.37891 3.35938-9.54102Q3.84766-10.7031 4.72168-11.582Q5.5957-12.4609 6.75293-12.9541Q7.91016-13.4473 9.23828-13.4473Q10.5762-13.4473 11.7334-12.9541Q12.8906-12.4609 13.7695-11.582Q14.6484-10.7031 15.1465-9.54102Q15.6445-8.37891 15.6445-7.05078Q15.6445-5.72266 15.1514-4.56055Q14.6582-3.39844 13.7842-2.51953Q12.9102-1.64062 11.748-1.14746Q10.5859-0.654297 9.24805-0.654297ZM5.6543-7.05078Q5.6543-6.72852 5.85938-6.52832Q6.06445-6.32812 6.40625-6.32812L8.51562-6.32812L8.51562-4.20898Q8.51562-3.88672 8.71094-3.67676Q8.90625-3.4668 9.23828-3.4668Q9.56055-3.4668 9.77051-3.67676Q9.98047-3.88672 9.98047-4.20898L9.98047-6.32812L12.0898-6.32812Q12.4219-6.32812 12.627-6.52832Q12.832-6.72852 12.832-7.05078Q12.832-7.38281 12.627-7.58789Q12.4219-7.79297 12.0898-7.79297L9.98047-7.79297L9.98047-9.90234Q9.98047-10.2344 9.77051-10.4443Q9.56055-10.6543 9.23828-10.6543Q8.90625-10.6543 8.71094-10.4443Q8.51562-10.2344 8.51562-9.90234L8.51562-7.79297L6.40625-7.79297Q6.06445-7.79297 5.85938-7.58789Q5.6543-7.38281 5.6543-7.05078Z"/>
  </g>
  <g transform="matrix(1 0 0 1 281.867 1933)">
   <path d="M11.709 2.91016Q13.75 2.91016 15.5518 2.12891Q17.3535 1.34766 18.7305-0.0292969Q20.1074-1.40625 20.8887-3.20801Q21.6699-5.00977 21.6699-7.05078Q21.6699-9.0918 20.8887-10.8936Q20.1074-12.6953 18.7305-14.0723Q17.3535-15.4492 15.5469-16.2305Q13.7402-17.0117 11.6992-17.0117Q9.6582-17.0117 7.85645-16.2305Q6.05469-15.4492 4.68262-14.0723Q3.31055-12.6953 2.5293-10.8936Q1.74805-9.0918 1.74805-7.05078Q1.74805-5.00977 2.5293-3.20801Q3.31055-1.40625 4.6875-0.0292969Q6.06445 1.34766 7.86621 2.12891Q9.66797 2.91016 11.709 2.91016ZM11.709 1.25Q9.98047 1.25 8.47656 0.605469Q6.97266-0.0390625 5.83496-1.17676Q4.69727-2.31445 4.05762-3.81836Q3.41797-5.32227 3.41797-7.05078Q3.41797-8.7793 4.05762-10.2832Q4.69727-11.7871 5.83008-12.9297Q6.96289-14.0723 8.4668-14.7119Q9.9707-15.3516 11.6992-15.3516Q13.4277-15.3516 14.9316-14.7119Q16.4355-14.0723 17.5781-12.9297Q18.7207-11.7871 19.3652-10.2832Q20.0098-8.7793 20.0098-7.05078Q20.0098-5.32227 19.3701-3.81836Q18.7305-2.31445 17.5928-1.17676Q16.4551-0.0390625 14.9463 0.605469Q13.4375 1.25 11.709 1.25ZM7.17773-7.05078Q7.17773-6.69922 7.41211-6.47461Q7.64648-6.25 8.01758-6.25L10.8887-6.25L10.8887-3.36914Q10.8887-2.99805 11.1133-2.76855Q11.3379-2.53906 11.6895-2.53906Q12.0605-2.53906 12.29-2.76855Q12.5195-2.99805 12.5195-3.36914L12.5195-6.25L15.4004-6.25Q15.7715-6.25 16.001-6.47461Q16.2305-6.69922 16.2305-7.05078Q16.2305-7.42188 16.001-7.65137Q15.7715-7.88086 15.4004-7.88086L12.5195-7.88086L12.5195-10.752Q12.5195-11.1328 12.29-11.3623Q12.0605-11.5918 11.6895-11.5918Q11.3379-11.5918 11.1133-11.3574Q10.8887-11.123 10.8887-10.752L10.8887-7.88086L8.01758-7.88086Q7.63672-7.88086 7.40723-7.65137Q7.17773-7.42188 7.17773-7.05078Z"/>
  </g>
  <g transform="matrix(1 0 0 1 305.646 1933)">
   <path d="M14.9707 5.66406Q17.0605 5.66406 18.96 5.01465Q20.8594 4.36523 22.4512 3.19336Q24.043 2.02148 25.2197 0.429688Q26.3965-1.16211 27.0459-3.06641Q27.6953-4.9707 27.6953-7.05078Q27.6953-9.14062 27.0459-11.04Q26.3965-12.9395 25.2197-14.5312Q24.043-16.123 22.4512-17.2998Q20.8594-18.4766 18.9551-19.126Q17.0508-19.7754 14.9609-19.7754Q12.8711-19.7754 10.9717-19.126Q9.07227-18.4766 7.48535-17.2998Q5.89844-16.123 4.72168-14.5312Q3.54492-12.9395 2.90039-11.04Q2.25586-9.14062 2.25586-7.05078Q2.25586-4.9707 2.90527-3.06641Q3.55469-1.16211 4.72656 0.429688Q5.89844 2.02148 7.49023 3.19336Q9.08203 4.36523 10.9814 5.01465Q12.8809 5.66406 14.9707 5.66406ZM14.9707 3.84766Q13.1641 3.84766 11.5283 3.2959Q9.89258 2.74414 8.53516 1.74805Q7.17773 0.751953 6.17676-0.610352Q5.17578-1.97266 4.62891-3.6084Q4.08203-5.24414 4.08203-7.05078Q4.08203-8.86719 4.62891-10.5029Q5.17578-12.1387 6.17188-13.501Q7.16797-14.8633 8.52539-15.8594Q9.88281-16.8555 11.5186-17.4023Q13.1543-17.9492 14.9609-17.9492Q16.7773-17.9492 18.4131-17.4023Q20.0488-16.8555 21.4111-15.8594Q22.7734-14.8633 23.7695-13.501Q24.7656-12.1387 25.3174-10.5029Q25.8691-8.86719 25.8691-7.05078Q25.8789-5.24414 25.332-3.6084Q24.7852-1.97266 23.7842-0.610352Q22.7832 0.751953 21.4209 1.74805Q20.0586 2.74414 18.4229 3.2959Q16.7871 3.84766 14.9707 3.84766ZM9.19922-7.05078Q9.19922-6.66992 9.45801-6.4209Q9.7168-6.17188 10.1172-6.17188L14.0625-6.17188L14.0625-2.2168Q14.0625-1.81641 14.3115-1.55762Q14.5605-1.29883 14.9512-1.29883Q15.3516-1.29883 15.6104-1.55273Q15.8691-1.80664 15.8691-2.2168L15.8691-6.17188L19.8242-6.17188Q20.2246-6.17188 20.4785-6.4209Q20.7324-6.66992 20.7324-7.05078Q20.7324-7.46094 20.4785-7.71484Q20.2246-7.96875 19.8242-7.96875L15.8691-7.96875L15.8691-11.9141Q15.8691-12.3242 15.6104-12.583Q15.3516-12.8418 14.9512-12.8418Q14.5605-12.8418 14.3115-12.583Q14.0625-12.3242 14.0625-11.9141L14.0625-7.96875L10.1172-7.96875Q9.70703-7.96875 9.45312-7.71484Q9.19922-7.46094 9.19922-7.05078Z"/>
  </g>
  <text style="stroke:none;fill:black;font-family:sans-serif;font-size:13;font-weight:bold;" transform="matrix(1 0 0 1 263 1953)">Design Variations</text>
  <text style="stroke:none;fill:black;font-family:sans-serif;font-size:13;" transform="matrix(1 0 0 1 263 1971)">Symbols are supported in up to nine weights and three scales.</text>
  <text style="stroke:none;fill:black;font-family:sans-serif;font-size:13;" transform="matrix(1 0 0 1 263 1989)">For optimal layout with text and other symbols, vertically align</text>
  <text style="stroke:none;fill:black;font-family:sans-serif;font-size:13;" transform="matrix(1 0 0 1 263 2007)">symbols with the adjacent text.</text>
  <line style="fill:none;stroke:#00AEEF;stroke-width:0.5;opacity:1.0;" x1="776" x2="776" y1="1919" y2="1933"/>
  <g transform="matrix(1 0 0 1 776 1933)">
   <path d="M3.31055 0.15625Q3.70117 0.15625 3.91602-0.00976562Q4.13086-0.175781 4.26758-0.585938L5.52734-4.0332L11.2891-4.0332L12.5488-0.585938Q12.6855-0.175781 12.9004-0.00976562Q13.1152 0.15625 13.4961 0.15625Q13.8867 0.15625 14.1162-0.0585938Q14.3457-0.273438 14.3457-0.644531Q14.3457-0.869141 14.2383-1.17188L9.6582-13.3691Q9.48242-13.8184 9.17969-14.043Q8.87695-14.2676 8.4082-14.2676Q7.5-14.2676 7.17773-13.3789L2.59766-1.16211Q2.49023-0.859375 2.49023-0.634766Q2.49023-0.263672 2.70996-0.0537109Q2.92969 0.15625 3.31055 0.15625ZM6.00586-5.51758L8.37891-12.0898L8.42773-12.0898L10.8008-5.51758Z"/>
  </g>
  <line style="fill:none;stroke:#00AEEF;stroke-width:0.5;opacity:1.0;" x1="793.197" x2="793.197" y1="1919" y2="1933"/>
  <text style="stroke:none;fill:black;font-family:sans-serif;font-size:13;font-weight:bold;" transform="matrix(1 0 0 1 776 1953)">Margins</text>
  <text style="stroke:none;fill:black;font-family:sans-serif;font-size:13;" transform="matrix(1 0 0 1 776 1971)">Leading and trailing margins on the left and right side of each symbol</text>
  <text style="stroke:none;fill:black;font-family:sans-serif;font-size:13;" transform="matrix(1 0 0 1 776 1989)">can be adjusted by modifying the x-location of the margin guidelines.</text>
  <text style="stroke:none;fill:black;font-family:sans-serif;font-size:13;" transform="matrix(1 0 0 1 776 2007)">Modifications are automatically applied proportionally to all</text>
  <text style="stroke:none;fill:black;font-family:sans-serif;font-size:13;" transform="matrix(1 0 0 1 776 2025)">scales and weights.</text>
  <g transform="matrix(1 0 0 1 1289 1933)">
   <path d="M2.8418 1.86523L4.54102 3.57422Q5.18555 4.22852 5.90332 4.17969Q6.62109 4.13086 7.31445 3.35938L18.0078-8.42773L17.041-9.4043L6.42578 2.27539Q6.16211 2.57812 5.89355 2.61719Q5.625 2.65625 5.27344 2.30469L4.10156 1.14258Q3.75 0.791016 3.79395 0.522461Q3.83789 0.253906 4.14062-0.0195312L15.6152-10.8203L14.6387-11.7871L3.04688-0.898438Q2.30469-0.214844 2.25098 0.498047Q2.19727 1.21094 2.8418 1.86523ZM9.25781-16.3281Q8.94531-16.0254 8.90625-15.6348Q8.86719-15.2441 9.04297-14.9512Q9.21875-14.6777 9.55566-14.541Q9.89258-14.4043 10.3809-14.5215Q11.4746-14.7754 12.5977-14.7314Q13.7207-14.6875 14.7949-13.9844L14.209-12.5293Q13.9551-11.9043 14.0674-11.4404Q14.1797-10.9766 14.5801-10.5664L16.875-8.25195Q17.2363-7.88086 17.5781-7.82227Q17.9199-7.76367 18.3398-7.8418L19.4043-8.03711L20.0684-7.36328L20.0293-6.80664Q20-6.43555 20.1221-6.12305Q20.2441-5.81055 20.6055-5.44922L21.3672-4.70703Q21.7285-4.3457 22.1533-4.33105Q22.5781-4.31641 22.9297-4.66797L25.8398-7.58789Q26.1914-7.93945 26.1816-8.35449Q26.1719-8.76953 25.8105-9.13086L25.0391-9.89258Q24.6875-10.2539 24.3799-10.3857Q24.0723-10.5176 23.7109-10.4883L23.1348-10.4395L22.4902-11.0742L22.7344-12.1973Q22.832-12.6172 22.6953-12.9834Q22.5586-13.3496 22.1191-13.7891L19.9219-15.9766Q18.6719-17.2168 17.2607-17.8369Q15.8496-18.457 14.4189-18.4814Q12.9883-18.5059 11.665-17.959Q10.3418-17.4121 9.25781-16.3281ZM10.752-15.957Q11.6602-16.6211 12.7002-16.9043Q13.7402-17.1875 14.8047-17.085Q15.8691-16.9824 16.8701-16.5137Q17.8711-16.0449 18.7012-15.2051L21.1328-12.793Q21.3086-12.6172 21.3525-12.4512Q21.3965-12.2852 21.3379-12.0312L21.0156-10.5469L22.5195-9.0625L23.5059-9.12109Q23.6914-9.13086 23.7891-9.09668Q23.8867-9.0625 24.0332-8.91602L24.6094-8.33984L22.168-5.89844L21.5918-6.47461Q21.4453-6.62109 21.4062-6.71875Q21.3672-6.81641 21.377-7.01172L21.4453-7.98828L19.9512-9.47266L18.4277-9.21875Q18.1836-9.16992 18.042-9.2041Q17.9004-9.23828 17.7148-9.41406L15.7129-11.416Q15.5176-11.5918 15.4932-11.7529Q15.4688-11.9141 15.5859-12.1875L16.4648-14.2773Q15.293-15.3711 13.8281-15.791Q12.3633-16.2109 10.8398-15.7617Q10.7227-15.7324 10.6885-15.8057Q10.6543-15.8789 10.752-15.957Z"/>
  </g>
  <text style="stroke:none;fill:black;font-family:sans-serif;font-size:13;font-weight:bold;" transform="matrix(1 0 0 1 1289 1953)">Exporting</text>
  <text style="stroke:none;fill:black;font-family:sans-serif;font-size:13;" transform="matrix(1 0 0 1 1289 1971)">Symbols should be outlined when exporting to ensure the</text>
  <text style="stroke:none;fill:black;font-family:sans-serif;font-size:13;" transform="matrix(1 0 0 1 1289 1989)">design is preserved when submitting to Xcode.</text>
  <text id="template-version" style="stroke:none;fill:black;font-family:sans-serif;font-size:13;text-anchor:end;" transform="matrix(1 0 0 1 3036 1933)">Template v.2.0</text>
  <text style="stroke:none;fill:black;font-family:sans-serif;font-size:13;text-anchor:end;" transform="matrix(1 0 0 1 3036 1951)">Requires Xcode 12 or greater</text>
  <text id="descriptive-name" style="stroke:none;fill:black;font-family:sans-serif;font-size:13;text-anchor:end;" transform="matrix(1 0 0 1 3036 1969)">Generated from gobackward</text>
  <text style="stroke:none;fill:black;font-family:sans-serif;font-size:13;text-anchor:end;" transform="matrix(1 0 0 1 3036 1987)">Typeset at 100 points</text>
  <text style="stroke:none;fill:black;font-family:sans-serif;font-size:13;" transform="matrix(1 0 0 1 263 726)">Small</text>
  <text style="stroke:none;fill:black;font-family:sans-serif;font-size:13;" transform="matrix(1 0 0 1 263 1156)">Medium</text>
  <text style="stroke:none;fill:black;font-family:sans-serif;font-size:13;" transform="matrix(1 0 0 1 263 1586)">Large</text>
 </g>
 <g id="Guides">
  <g id="H-reference" style="fill:#27AAE1;stroke:none;" transform="matrix(1 0 0 1 339 696)">
   <path d="M0.993347 0L3.6377 0L29.3282-67.1326L30.0301-67.1326L30.0301-70.459L28.1227-70.459ZM11.6882-24.4797L46.9818-24.4797L46.2311-26.7288L12.4382-26.7288ZM55.1193 0L57.7637 0L30.6381-70.459L29.4327-70.459L29.4327-67.1326Z"/>
  </g>
  <line id="Baseline-S" style="fill:none;stroke:#27AAE1;opacity:1;stroke-width:0.5;" x1="263" x2="3036" y1="696" y2="696"/>
  <line id="Capline-S" style="fill:none;stroke:#27AAE1;opacity:1;stroke-width:0.5;" x1="263" x2="3036" y1="625.541" y2="625.541"/>
  <g id="H-reference" style="fill:#27AAE1;stroke:none;" transform="matrix(1 0 0 1 339 1126)">
   <path d="M0.993347 0L3.6377 0L29.3282-67.1326L30.0301-67.1326L30.0301-70.459L28.1227-70.459ZM11.6882-24.4797L46.9818-24.4797L46.2311-26.7288L12.4382-26.7288ZM55.1193 0L57.7637 0L30.6381-70.459L29.4327-70.459L29.4327-67.1326Z"/>
  </g>
  <line id="Baseline-M" style="fill:none;stroke:#27AAE1;opacity:1;stroke-width:0.5;" x1="263" x2="3036" y1="1126" y2="1126"/>
  <line id="Capline-M" style="fill:none;stroke:#27AAE1;opacity:1;stroke-width:0.5;" x1="263" x2="3036" y1="1055.54" y2="1055.54"/>
  <g id="H-reference" style="fill:#27AAE1;stroke:none;" transform="matrix(1 0 0 1 339 1556)">
   <path d="M0.993347 0L3.6377 0L29.3282-67.1326L30.0301-67.1326L30.0301-70.459L28.1227-70.459ZM11.6882-24.4797L46.9818-24.4797L46.2311-26.7288L12.4382-26.7288ZM55.1193 0L57.7637 0L30.6381-70.459L29.4327-70.459L29.4327-67.1326Z"/>
  </g>
  <line id="Baseline-L" style="fill:none;stroke:#27AAE1;opacity:1;stroke-width:0.5;" x1="263" x2="3036" y1="1556" y2="1556"/>
  <line id="Capline-L" style="fill:none;stroke:#27AAE1;opacity:1;stroke-width:0.5;" x1="263" x2="3036" y1="1485.54" y2="1485.54"/>
  <line id="left-margin" style="fill:none;stroke:#00AEEF;stroke-width:0.5;opacity:1.0;" x1="1391.32" x2="1391.32" y1="1030.79" y2="1150.12"/>
  <line id="right-margin" style="fill:none;stroke:#00AEEF;stroke-width:0.5;opacity:1.0;" x1="1508.37" x2="1508.37" y1="1030.79" y2="1150.12"/>
 </g>
 <g id="Symbols">
  <g id="Black-L" transform="matrix(1 0 0 1 2854.19 1556)">
   <path d="M11.2588-35.2673Q11.2588-21.2483 16.5645-8.96231Q21.8702 3.3237 31.2375 12.7014Q40.6048 22.0791 52.8908 27.3744Q65.1768 32.6697 79.1958 32.6697Q93.2356 32.6697 105.521 27.3744Q117.806 22.0791 127.174 12.7014Q136.542 3.3237 141.848-8.96231Q147.154-21.2483 147.154-35.2673Q147.154-47.2726 143.234-58.0737Q139.314-68.8748 132.219-77.6848Q125.124-86.4947 115.57-92.5996Q106.016-98.7045 94.8057-101.36L94.8057-111.516Q94.8057-115.941 91.5432-117.122Q88.2807-118.302 84.2598-115.373L59.4802-97.2223Q56.3471-94.925 56.3658-91.6119Q56.3846-88.2987 59.4802-85.9794L84.239-67.7717Q88.2015-64.8995 91.5036-65.9826Q94.8057-67.0656 94.8057-71.6492L94.8057-80.3702Q104.195-77.1723 111.458-70.532Q118.72-63.8917 122.842-54.8317Q126.964-45.7717 126.964-35.2673Q126.964-25.3452 123.247-16.6765Q119.53-8.00792 112.992-1.46023Q106.455 5.08746 97.7866 8.80479Q89.1179 12.5221 79.1958 12.5221Q69.2944 12.5221 60.6154 8.80479Q51.9364 5.08746 45.3887-1.46023Q38.841-8.00792 35.1237-16.6765Q31.4063-25.3452 31.426-35.2673Q31.426-45.3216 35.2526-53.8415Q39.0793-62.3615 45.8788-69.2328Q49.0191-72.6535 49.7325-76.7997Q50.4459-80.946 47.2253-84.4004Q44.3563-87.5019 40.2248-87.4144Q36.0933-87.3268 32.0132-83.7465Q25.8055-78.4851 21.1557-70.4905Q16.5058-62.4959 13.8823-53.327Q11.2588-44.1581 11.2588-35.2673Z"/>
  </g>
  <g id="Heavy-L" transform="matrix(1 0 0 1 2558.42 1556)">
   <path d="M11.2588-35.2585Q11.2588-21.454 16.4964-9.33648Q21.7339 2.78102 30.9738 12.036Q40.2137 21.291 52.3312 26.5135Q64.4487 31.736 78.2532 31.736Q92.0879 31.736 104.203 26.5135Q116.317 21.291 125.56 12.036Q134.803 2.78102 140.04-9.33648Q145.278-21.454 145.278-35.2585Q145.278-47.159 141.353-57.8763Q137.428-68.5935 130.335-77.3103Q123.242-86.027 113.712-92.0318Q104.183-98.0366 93.0179-100.578L93.0179-110.495Q93.0179-114.617 90.0857-115.709Q87.1535-116.801 83.4971-114.15L59.8528-96.9795Q56.9746-94.8918 56.9818-91.9043Q56.989-88.9168 59.8528-86.7933L83.4669-69.5843Q87.0787-66.9718 90.0483-67.9845Q93.0179-68.9972 93.0179-73.2692L93.0179-82.1355Q103.037-79.0611 110.822-72.2044Q118.607-65.3476 123.041-55.8359Q127.476-46.3243 127.476-35.2585Q127.476-25.0214 123.651-16.0909Q119.827-7.16028 113.089-0.407411Q106.351 6.34546 97.4209 10.1698Q88.4903 13.9941 78.2532 13.9941Q68.0463 13.9941 59.1007 10.1698Q50.155 6.34546 43.4022-0.407411Q36.6493-7.16028 32.825-16.0909Q29.0007-25.0214 29.0253-35.2585Q29.0253-46.1693 33.423-55.4006Q37.8208-64.6319 45.4713-71.5943Q48.2889-74.5264 48.9505-78.1435Q49.612-81.7606 46.8899-84.8371Q44.4412-87.6348 40.7854-87.6558Q37.1295-87.6769 33.5463-84.5896Q26.8638-79.1887 21.8696-71.1734Q16.8753-63.1582 14.0671-53.8641Q11.2588-44.57 11.2588-35.2585Z"/>
  </g>
  <g id="Bold-L" transform="matrix(1 0 0 1 2262.89 1556)">
   <path d="M11.2588-35.2433Q11.2588-21.7001 16.4081-9.79386Q21.5574 2.1124 30.6361 11.21Q39.7147 20.3076 51.621 25.438Q63.5273 30.5683 77.0704 30.5683Q90.6514 30.5683 102.551 25.438Q114.451 20.3076 123.536 11.21Q132.621 2.1124 137.771-9.79386Q142.92-21.7001 142.92-35.2433Q142.92-47.0131 138.995-57.6192Q135.07-68.2254 127.988-76.8231Q120.906-85.4208 111.414-91.2989Q101.923-97.1769 90.8198-99.5802L90.8198-109.302Q90.8198-113.01 88.2986-113.987Q85.7775-114.964 82.5743-112.658L60.2617-96.6276Q57.706-94.8012 57.7016-92.2208Q57.6971-89.6404 60.2617-87.7626L82.5364-71.7162Q85.7102-69.4266 88.265-70.3472Q90.8198-71.2678 90.8198-75.1108L90.8198-84.3029Q101.608-81.3748 110.034-74.2492Q118.461-67.1235 123.28-57.0584Q128.098-46.9933 128.098-35.2433Q128.098-24.6219 124.14-15.3648Q120.181-6.10769 113.193 0.898802Q106.206 7.9053 96.9488 11.864Q87.6918 15.8226 77.0704 15.8226Q66.4869 15.8226 57.2109 11.864Q47.9348 7.9053 40.9283 0.898802Q33.9218-6.10769 29.9632-15.3648Q26.0045-24.6219 26.0292-35.2433Q26.0292-47.2218 31.1489-57.3293Q36.2685-67.4368 44.9941-74.5144Q47.3971-76.8543 47.986-79.822Q48.5749-82.7897 46.445-85.39Q44.504-87.7888 41.4472-87.9219Q38.3904-88.0551 35.4219-85.5676Q28.1627-80.0347 22.7458-71.9963Q17.3288-63.9579 14.2938-54.5064Q11.2588-45.0549 11.2588-35.2433Z"/>
  </g>
  <g id="Semibold-L" transform="matrix(1 0 0 1 1966.99 1556)">
   <path d="M11.2588-35.2328Q11.2588-21.8698 16.3472-10.1092Q21.4357 1.65146 30.4032 10.6406Q39.3707 19.6297 51.1313 24.6965Q62.892 29.7634 76.2549 29.7634Q89.6611 29.7634 101.413 24.6965Q113.164 19.6297 122.141 10.6406Q131.117 1.65146 136.206-10.1092Q141.295-21.8698 141.295-35.2328Q141.295-46.9125 137.369-57.442Q133.444-67.9715 126.37-76.4872Q119.296-85.0029 109.83-90.7936Q100.365-96.5843 89.3045-98.8922L89.3045-108.479Q89.3045-111.902 87.0667-112.8Q84.8289-113.697 81.9381-111.63L60.5435-96.385Q58.2103-94.7387 58.1978-92.439Q58.1853-90.1392 60.5435-88.4309L81.8949-73.1859Q84.7668-71.1189 87.0356-71.9759Q89.3045-72.833 89.3045-76.3804L89.3045-85.7971Q100.623-82.9698 109.491-75.6588Q118.36-68.3478 123.444-57.9011Q128.528-47.4545 128.528-35.2328Q128.528-24.3464 124.476-14.8642Q120.425-5.38205 113.265 1.7993Q106.106 8.98064 96.6234 13.0319Q87.1413 17.0833 76.2549 17.0833Q65.4118 17.0833 55.908 13.0319Q46.4042 8.98064 39.2229 1.7993Q32.0415-5.38205 27.9902-14.8642Q23.9389-24.3464 23.9638-35.2328Q23.9638-47.9475 29.581-58.6589Q35.1983-69.3704 44.6651-76.5274Q46.7823-78.4592 47.3211-80.9791Q47.8598-83.4991 46.1384-85.7711Q44.5473-87.895 41.9035-88.1054Q39.2597-88.3158 36.7149-86.2418Q29.0582-80.6179 23.3498-72.5635Q17.6415-64.5092 14.4501-54.9492Q11.2588-45.3892 11.2588-35.2328Z"/>
  </g>
  <g id="Medium-L" transform="matrix(1 0 0 1 1670.9 1556)">
   <path d="M11.2588-35.2248Q11.2588-21.9985 16.3011-10.3483Q21.3434 1.30195 30.2266 10.2088Q39.1099 19.1157 50.7601 24.1343Q62.4103 29.153 75.6366 29.153Q88.9102 29.153 100.549 24.1343Q112.188 19.1157 121.083 10.2088Q129.977 1.30195 135.02-10.3483Q140.062-21.9985 140.062-35.2248Q140.062-46.8363 136.137-57.3077Q132.211-67.7791 125.143-76.2326Q118.075-84.6861 108.629-90.4105Q99.1842-96.135 88.1555-98.3705L88.1555-107.855Q88.1555-111.062 86.1325-111.9Q84.1096-112.737 81.4557-110.85L60.7572-96.201Q58.5926-94.6914 58.574-92.6044Q58.5555-90.5175 60.7572-88.9376L81.4084-74.3004Q84.0515-72.402 86.1035-73.211Q88.1555-74.0199 88.1555-77.3431L88.1555-86.9301Q99.8754-84.1793 109.08-76.7277Q118.284-69.2761 123.569-58.5402Q128.853-47.8042 128.853-35.2248Q128.853-24.1375 124.732-14.4847Q120.61-4.83183 113.32 2.48209Q106.03 9.79602 96.3767 13.9176Q86.7239 18.0391 75.6366 18.0391Q64.5966 18.0391 54.9201 13.9176Q45.2437 9.79602 37.9297 2.48209Q30.6158-4.83183 26.4943-14.4847Q22.3727-24.1375 22.3977-35.2248Q22.3977-48.4977 28.3923-59.6671Q34.3868-70.8365 44.4156-78.0538Q46.3162-79.6761 46.8169-81.8565Q47.3177-84.037 45.9059-86.06Q44.5801-87.9755 42.2495-88.2445Q39.9188-88.5135 37.6954-86.753Q29.7371-81.0601 23.8078-72.9937Q17.8785-64.9272 14.5687-55.285Q11.2588-45.6427 11.2588-35.2248Z"/>
  </g>
  <g id="Regular-L" transform="matrix(1 0 0 1 1374.99 1556)">
   <path d="M11.2588-35.2144Q11.2588-22.1663 16.2409-10.6601Q21.2231 0.846075 29.9963 9.64563Q38.7696 18.4452 50.2758 23.4011Q61.782 28.3569 74.8301 28.3569Q87.9308 28.3569 99.4232 23.4011Q110.916 18.4452 119.703 9.64563Q128.49 0.846075 133.472-10.6601Q138.454-22.1663 138.454-35.2144Q138.454-46.7368 134.529-57.1325Q130.603-67.5281 123.543-75.9004Q116.482-84.2727 107.063-89.9108Q97.6437-95.5489 86.6568-97.69L86.6568-107.042Q86.6568-109.967 84.9141-110.726Q83.1714-111.484 80.8265-109.833L61.036-95.961Q59.0913-94.6296 59.0648-92.8202Q59.0383-91.0108 61.036-89.5985L80.774-75.754Q83.1184-74.0757 84.8876-74.8218Q86.6568-75.568 86.6568-78.5987L86.6568-88.4079Q98.9008-85.7568 108.543-78.1219Q118.184-70.487 123.731-59.3736Q129.278-48.2603 129.278-35.2144Q129.278-23.8651 125.064-13.9896Q120.851-4.11416 113.391 3.37269Q105.93 10.8595 96.0549 15.0727Q86.1794 19.2858 74.8301 19.2858Q63.5334 19.2858 53.6316 15.0727Q43.7299 10.8595 36.243 3.37269Q28.7562-4.11416 24.543-13.9896Q20.3299-23.8651 20.355-35.2144Q20.355-49.2154 26.8417-60.9821Q33.3284-72.7489 44.0902-80.0448Q45.7081-81.2633 46.1593-83.001Q46.6105-84.7386 45.6026-86.437Q44.623-88.0805 42.7007-88.4259Q40.7785-88.7713 38.9742-87.4198Q30.6228-81.6369 24.4053-73.5547Q18.1877-65.4725 14.7233-55.7229Q11.2588-45.9734 11.2588-35.2144Z"/>
  </g>
  <g id="Light-L" transform="matrix(1 0 0 1 1079.2 1556)">
   <path d="M11.2588-35.1762Q11.2588-22.2808 16.155-10.9368Q21.0512 0.407097 29.6909 9.06348Q38.3307 17.7199 49.6746 22.5994Q61.0185 27.479 73.914 27.479Q86.8428 27.479 98.1635 22.5994Q109.484 17.7199 118.147 9.06348Q126.81 0.407097 131.707-10.9368Q136.603-22.2808 136.603-35.1762Q136.603-46.6031 132.716-56.8748Q128.829-67.1465 121.835-75.4138Q114.841-83.6811 105.498-89.2142Q96.1549-94.7472 85.2446-96.8121L85.2446-106.679Q85.2446-109.07 83.7977-109.714Q82.3509-110.358 80.3301-108.955L60.9786-95.3884Q59.3013-94.248 59.2843-92.7439Q59.2673-91.2397 60.9786-90.0182L80.2968-76.4982Q82.3168-75.0492 83.7807-75.6998Q85.2446-76.3504 85.2446-78.8087L85.2446-89.7819Q97.9465-87.1882 107.999-79.3625Q118.051-71.5368 123.846-60.0799Q129.64-48.623 129.64-35.1762Q129.64-23.598 125.322-13.484Q121.004-3.36992 113.362 4.2888Q105.72 11.9475 95.6063 16.2655Q85.4923 20.5835 73.914 20.5835Q62.3691 20.5835 52.2384 16.2655Q42.1077 11.9475 34.449 4.2888Q26.7902-3.36992 22.4722-13.484Q18.1542-23.598 18.1412-35.1762Q18.1412-49.9596 25.2195-62.2989Q32.2978-74.6382 43.9376-82.0296Q45.1736-82.9237 45.5199-84.2511Q45.8663-85.5784 45.1062-86.8949Q44.394-88.1186 42.9489-88.3972Q41.5038-88.6758 40.1192-87.668Q31.4433-82.0566 24.9587-73.9744Q18.4741-65.8922 14.8664-56.0187Q11.2588-46.1452 11.2588-35.1762Z"/>
  </g>
  <g id="Thin-L" transform="matrix(1 0 0 1 783.716 1556)">
   <path d="M11.2588-35.1258Q11.2588-22.4322 16.0413-11.3028Q20.8239-0.173486 29.287 8.29354Q37.7501 16.7606 48.8794 21.5392Q60.0088 26.3178 72.7024 26.3178Q85.4038 26.3178 96.4975 21.5392Q107.591 16.7606 116.09 8.29354Q124.589-0.173486 129.372-11.3028Q134.155-22.4322 134.155-35.1258Q134.155-46.4263 130.318-56.534Q126.481-66.6418 119.575-74.7703Q112.67-82.8987 103.428-88.2928Q94.1858-93.687 83.3769-95.6509L83.3769-106.199Q83.3769-107.884 82.3213-108.376Q81.2656-108.869 79.6736-107.794L60.9027-94.6309Q59.5791-93.7433 59.5746-92.6429Q59.5701-91.5426 60.9027-90.5733L79.6658-77.4825Q81.2565-76.3367 82.3167-76.861Q83.3769-77.3852 83.3769-79.0865L83.3769-91.5991Q96.6844-89.0813 107.279-81.0033Q117.874-72.9253 123.997-61.014Q130.12-49.1026 130.12-35.1258Q130.12-23.2447 125.663-12.8152Q121.206-2.3856 113.324 5.50044Q105.443 13.3865 95.013 17.8432Q84.5834 22.2998 72.7024 22.2998Q60.8292 22.2998 50.3957 17.8432Q39.9622 13.3865 32.0761 5.50044Q24.1901-2.3856 19.7334-12.8152Q15.2767-23.2447 15.2132-35.1258Q15.2132-50.9439 23.074-64.0405Q30.9348-77.137 43.7357-84.6548Q44.4666-85.1196 44.6743-85.9044Q44.882-86.6891 44.4497-87.5005Q44.0912-88.1691 43.2772-88.3592Q42.4631-88.5494 41.6337-87.9962Q32.5286-82.6118 25.6907-74.5296Q18.8528-66.4474 15.0558-56.4099Q11.2588-46.3725 11.2588-35.1258Z"/>
  </g>
  <g id="Ultralight-L" transform="matrix(1 0 0 1 487.631 1556)">
   <path d="M11.2588-35.0999Q11.2588-22.5097 15.9831-11.4903Q20.7074-0.470858 29.0801 7.89918Q37.4527 16.2692 48.4721 20.9961Q59.4916 25.7231 72.0818 25.7231Q84.6668 25.7231 95.6442 20.9961Q106.622 16.2692 115.036 7.89918Q123.451-0.470858 128.176-11.4903Q132.901-22.5097 132.901-35.0999Q132.901-46.3357 129.09-56.3595Q125.279-66.3833 118.418-74.4406Q111.558-82.4979 102.367-87.8209Q93.1773-93.1439 82.4203-95.0562L82.4203-105.954Q82.4203-107.276 81.565-107.691Q80.7097-108.106 79.3374-107.2L60.8638-94.243Q59.7214-93.4849 59.7233-92.5912Q59.7252-91.6976 60.8638-90.8577L79.3426-77.9867Q80.7135-76.9962 81.5669-77.4557Q82.4203-77.9152 82.4203-79.2288L82.4203-92.5299Q96.038-90.051 106.911-81.8437Q117.783-73.6364 124.075-61.4924Q130.366-49.3483 130.366-35.0999Q130.366-23.0638 125.837-12.4726Q121.309-1.88144 113.305 6.12103Q105.3 14.1235 94.7091 18.6512Q84.1179 23.1789 72.0818 23.1789Q60.0405 23.1789 49.4519 18.6512Q38.8633 14.1235 30.8608 6.12103Q22.8583-1.88144 18.3306-12.4726Q13.8029-23.0638 13.7136-35.0999Q13.7136-51.4481 21.9751-64.9325Q30.2366-78.4168 43.6323-85.9993Q44.1045-86.2444 44.2412-86.7512Q44.3778-87.258 44.1134-87.8106Q43.9361-88.1949 43.4453-88.3398Q42.9545-88.4847 42.4093-88.1643Q33.0844-82.8961 26.0656-74.8139Q19.0468-66.7317 15.1528-56.6103Q11.2588-46.489 11.2588-35.0999Z"/>
  </g>
  <g id="Black-M" transform="matrix(1 0 0 1 2871.36 1126)">
   <path d="M8.72266-35.2612Q8.72266-24.2364 12.8801-14.5951Q17.0376-4.95381 24.3862 2.39757Q31.7348 9.74894 41.3761 13.9037Q51.0174 18.0584 62.0422 18.0584Q73.0725 18.0584 82.714 13.9037Q92.3554 9.74894 99.7039 2.39757Q107.052-4.95381 111.21-14.5951Q115.367-24.2364 115.367-35.2612Q115.367-44.6394 112.34-53.0627Q109.312-61.486 103.823-68.3773Q98.3342-75.2686 90.9214-80.0702Q83.5086-84.8717 74.7952-87.017L74.7952-95.1605Q74.7952-98.7767 72.0238-99.7518Q69.2523-100.727 65.8678-98.2521L45.7537-83.389Q43.1436-81.4549 43.1694-78.6496Q43.1952-75.8442 45.7537-73.9049L65.8623-58.9844Q69.1898-56.567 71.9925-57.4536Q74.7952-58.3402 74.7952-62.0816L74.7952-68.8709Q81.5907-66.2949 86.8239-61.3106Q92.0571-56.3263 95.0158-49.6487Q97.9744-42.9712 97.9744-35.2612Q97.9744-27.8137 95.1722-21.2906Q92.3699-14.7675 87.453-9.84773Q82.536-4.92802 76.0129-2.12576Q69.4897 0.676489 62.0422 0.676489Q54.6002 0.676489 48.0743-2.12576Q41.5485-4.92802 36.6288-9.84773Q31.709-14.7675 28.9068-21.2906Q26.1045-27.8137 26.1103-35.2612Q26.1103-42.4206 28.6643-48.4875Q31.2183-54.5544 35.8737-59.8127Q38.5323-62.8388 39.1153-66.4502Q39.6983-70.0617 36.8084-73.0109Q34.2608-75.6181 30.7157-75.4479Q27.1707-75.2777 23.6395-72.1267Q19.1943-68.1935 15.8516-62.0176Q12.509-55.8416 10.6158-48.8288Q8.72266-41.8161 8.72266-35.2612Z"/>
  </g>
  <g id="Heavy-M" transform="matrix(1 0 0 1 2575.48 1126)">
   <path d="M8.72266-35.2561Q8.72266-24.4269 12.8214-14.9354Q16.9202-5.44381 24.1566 1.8008Q31.3931 9.04541 40.8846 13.136Q50.3762 17.2266 61.2053 17.2266Q72.0509 17.2266 81.5413 13.136Q91.0318 9.04541 98.2693 1.8008Q105.507-5.44381 109.606-14.9354Q113.704-24.4269 113.704-35.2561Q113.704-44.5406 110.669-52.8934Q107.633-61.2462 102.139-68.0561Q96.6455-74.866 89.2497-79.5793Q81.8539-84.2927 73.1777-86.3335L73.1777-94.1956Q73.1777-97.5651 70.7019-98.4642Q68.2261-99.3634 65.168-97.1374L46.1233-83.2045Q43.7376-81.4577 43.7512-78.9425Q43.7648-76.4274 46.1233-74.6619L65.1516-60.6876Q68.1661-58.503 70.6719-59.3297Q73.1777-60.1563 73.1777-63.6458L73.1777-70.4699Q80.5465-68.0094 86.2524-62.831Q91.9583-57.6527 95.1995-50.5653Q98.4407-43.4779 98.4407-35.2561Q98.4407-27.5219 95.5436-20.7647Q92.6464-14.0075 87.5502-8.90304Q82.454-3.7986 75.6968-0.901456Q68.9395 1.99569 61.2053 1.99569Q53.4875 1.99569 46.7221-0.901456Q39.9567-3.7986 34.8523-8.90304Q29.7478-14.0075 26.8507-20.7647Q23.9535-27.5219 23.9677-35.2561Q23.9677-43.1806 27.0254-49.8901Q30.0831-56.5997 35.4895-61.9381Q37.8678-64.5165 38.4098-67.6485Q38.9518-70.7805 36.5263-73.3956Q34.3648-75.7445 31.2408-75.6866Q28.1168-75.6287 25.0326-72.928Q20.1531-68.8427 16.4984-62.6465Q12.8438-56.4503 10.7832-49.3266Q8.72266-42.2029 8.72266-35.2561Z"/>
  </g>
  <g id="Bold-M" transform="matrix(1 0 0 1 2279.69 1126)">
   <path d="M8.72266-35.2504Q8.72266-24.64 12.7558-15.316Q16.789-5.99195 23.8998 1.13323Q31.0107 8.2584 40.3348 12.2773Q49.6588 16.2961 60.2692 16.2961Q70.9081 16.2961 80.2296 12.2773Q89.5511 8.2584 96.6645 1.13323Q103.778-5.99195 107.811-15.316Q111.844-24.64 111.844-35.2504Q111.844-44.4301 108.799-52.7041Q105.754-60.978 100.255-67.6968Q94.7565-74.4156 87.3797-79.0303Q80.0028-83.645 71.3683-85.5688L71.3683-93.1163Q71.3683-96.2097 69.2232-97.0238Q67.0782-97.838 64.3852-95.8904L46.5368-82.9981Q44.4022-81.4608 44.4021-79.2702Q44.4021-77.0797 46.5368-75.5086L64.3566-62.5929Q67.0209-60.6687 69.1946-61.4283Q71.3683-62.1879 71.3683-65.3957L71.3683-72.2585Q79.3785-69.9272 85.6132-64.5318Q91.8478-59.1365 95.4051-51.5906Q98.9624-44.0448 98.9624-35.2504Q98.9624-27.1955 95.959-20.1764Q92.9557-13.1573 87.6589-7.84627Q82.3622-2.53519 75.3431 0.46811Q68.3241 3.47141 60.2692 3.47141Q52.2428 3.47141 45.2095 0.46811Q38.1761-2.53519 32.865-7.84627Q27.554-13.1573 24.5507-20.1764Q21.5474-27.1955 21.5709-35.2504Q21.5709-44.0307 25.1921-51.4592Q28.8133-58.8876 35.0596-64.3157Q37.1244-66.3932 37.6206-68.989Q38.1168-71.5847 36.2107-73.826Q34.4813-75.8859 31.8282-75.9536Q29.1751-76.0214 26.591-73.8244Q21.2257-69.5688 17.222-63.35Q13.2183-57.1312 10.9705-49.8834Q8.72266-42.6357 8.72266-35.2504Z"/>
  </g>
  <g id="Semibold-M" transform="matrix(1 0 0 1 1983.62 1126)">
   <path d="M8.72266-35.2464Q8.72266-24.787 12.7106-15.5784Q16.6985-6.36983 23.7228 0.673008Q30.7471 7.71585 39.9557 11.6853Q49.1643 15.6547 59.6238 15.6547Q70.1202 15.6547 79.3253 11.6853Q88.5303 7.71585 95.5582 0.673008Q102.586-6.36983 106.574-15.5784Q110.562-24.787 110.562-35.2464Q110.562-44.354 107.51-52.5735Q104.459-60.7931 98.9564-67.4491Q93.4543-74.105 86.0905-78.6517Q78.7267-83.1984 70.1209-85.0417L70.1209-92.3722Q70.1209-95.2753 68.2038-96.0309Q66.2868-96.7864 63.8455-95.0307L46.8218-82.8558Q44.8603-81.4629 44.8509-79.4962Q44.8414-77.5294 46.8218-76.0923L63.8085-63.9064Q66.2315-62.1618 68.1762-62.8751Q70.1209-63.5884 70.1209-66.602L70.1209-73.4915Q78.5733-71.2493 85.1725-65.7043Q91.7717-60.1594 95.5468-52.2975Q99.322-44.4356 99.322-35.2464Q99.322-26.9704 96.2454-19.7709Q93.1689-12.5713 87.7339-7.11774Q82.2989-1.66421 75.0993 1.41228Q67.8998 4.48877 59.6238 4.48877Q51.3847 4.48877 44.1667 1.41228Q36.9486-1.66421 31.4951-7.11774Q26.0415-12.5713 22.965-19.7709Q19.8886-26.9704 19.9185-35.2464Q19.9185-44.6168 23.9282-52.5408Q27.9378-60.4649 34.7633-65.9548Q36.612-67.687 37.0765-69.9131Q37.5411-72.1391 35.9932-74.1227Q34.5615-75.9833 32.2331-76.1377Q29.9047-76.2921 27.6653-74.4423Q21.9652-70.0694 17.7208-63.835Q13.4765-57.6006 11.0996-50.2673Q8.72266-42.934 8.72266-35.2464Z"/>
  </g>
  <g id="Medium-M" transform="matrix(1 0 0 1 1687.4 1126)">
   <path d="M8.72266-35.2434Q8.72266-24.8984 12.6762-15.7774Q16.6298-6.65636 23.5886 0.324051Q30.5473 7.30446 39.6683 11.2364Q48.7893 15.1683 59.1344 15.1683Q69.5228 15.1683 78.6396 11.2364Q87.7563 7.30446 94.7193 0.324051Q101.682-6.65636 105.636-15.7774Q109.59-24.8984 109.59-35.2434Q109.59-44.2962 106.533-52.4746Q103.476-60.6529 97.9716-67.2612Q92.4668-73.8696 85.113-78.3647Q77.7591-82.8599 69.1751-84.6419L69.1751-91.808Q69.1751-94.5669 67.4309-95.2779Q65.6867-95.989 63.4363-94.3788L47.0379-82.7479Q45.2077-81.4646 45.1911-79.6675Q45.1745-77.8704 47.0379-76.5349L63.3929-64.9023Q65.6329-63.2939 67.404-63.9721Q69.1751-64.6504 69.1751-67.5167L69.1751-74.4265Q77.9628-72.2518 84.8383-66.5934Q91.7139-60.935 95.6543-52.8334Q99.5946-44.7319 99.5946-35.2434Q99.5946-26.7998 96.4626-19.4633Q93.3305-12.1269 87.7907-6.56534Q82.251-1.00379 74.9145 2.12819Q67.578 5.26017 59.1344 5.26017Q50.7341 5.26017 43.376 2.12819Q36.0178-1.00379 30.4563-6.56534Q24.8947-12.1269 21.7627-19.4633Q18.6308-26.7998 18.6656-35.2434Q18.6656-45.0612 22.9698-53.361Q27.274-61.6608 34.5386-67.1976Q36.2234-68.6681 36.664-70.6138Q37.1046-72.5594 35.8282-74.3477Q34.6224-76.0572 32.5401-76.2773Q30.4579-76.4973 28.4799-74.9109Q22.5258-70.449 18.0991-64.2028Q13.6723-57.9566 11.1975-50.5584Q8.72266-43.1602 8.72266-35.2434Z"/>
  </g>
  <g id="Regular-M" transform="matrix(1 0 0 1 1391.32 1126)">
   <path d="M8.72266-35.2395Q8.72266-25.0437 12.6315-16.0369Q16.5403-7.03009 23.4135-0.131111Q30.2866 6.76786 39.2934 10.6509Q48.3002 14.5339 58.4961 14.5339Q68.7436 14.5339 77.7452 10.6509Q86.7468 6.76786 93.6251-0.131111Q100.503-7.03009 104.412-16.0369Q108.321-25.0437 108.321-35.2395Q108.321-44.2209 105.258-52.3455Q102.195-60.47 96.6871-67.0162Q91.1789-73.5625 83.838-77.9904Q76.4971-82.4183 67.9414-84.1206L67.9414-91.0721Q67.9414-93.6427 66.4227-94.2959Q64.904-94.949 62.9025-93.5286L47.3198-82.6071Q45.6608-81.4667 45.6349-79.8909Q45.609-78.3151 47.3198-77.1122L62.8509-66.2014Q64.8521-64.7705 66.3968-65.403Q67.9414-66.0356 67.9414-68.7098L67.9414-75.646Q77.1664-73.5594 84.4025-67.753Q91.6386-61.9467 95.7944-53.5325Q99.9503-45.1184 99.9503-35.2395Q99.9503-26.5772 96.7459-19.0622Q93.5414-11.5472 87.8649-5.84481Q82.1884-0.14237 74.6734 3.06198Q67.1584 6.26634 58.4961 6.26634Q49.8854 6.26634 42.3446 3.06198Q34.8038-0.14237 29.1013-5.84481Q23.3989-11.5472 20.1945-19.0622Q16.9902-26.5772 17.0314-35.2395Q17.0314-45.6408 21.7198-54.4308Q26.4082-63.2207 34.2455-68.8187Q35.7166-69.9477 36.1259-71.5277Q36.5352-73.1077 35.6131-74.6411Q34.7017-76.1536 32.9406-76.4593Q31.1795-76.765 29.5424-75.5221Q23.2571-70.9441 18.5924-64.6824Q13.9276-58.4208 11.3251-50.938Q8.72266-43.4553 8.72266-35.2395Z"/>
  </g>
  <g id="Light-M" transform="matrix(1 0 0 1 1095.44 1126)">
   <path d="M8.72266-35.2053Q8.72266-25.1463 12.5544-16.285Q16.3862-7.42365 23.1396-0.653039Q29.893 6.11757 38.7544 9.93216Q47.6157 13.7467 57.6747 13.7467Q67.7682 13.7467 76.6158 9.93216Q85.4634 6.11757 92.2305-0.653039Q98.9976-7.42365 102.83-16.285Q106.662-25.1463 106.662-35.2053Q106.662-44.101 103.633-52.1145Q100.604-60.1279 95.1557-66.58Q89.7072-73.0321 82.4348-77.3658Q75.1623-81.6995 66.6753-83.3335L66.6753-90.7469Q66.6753-92.8387 65.4218-93.389Q64.1683-93.9394 62.4575-92.7415L47.2684-82.0937Q45.8491-81.1246 45.8317-79.8225Q45.8143-78.5204 47.2684-77.4885L62.4231-66.8686Q64.1334-65.6433 65.4044-66.1902Q66.6753-66.737 66.6753-68.8981L66.6753-76.8779Q76.3108-74.8427 83.9148-68.8653Q91.5187-62.8879 95.8971-54.1657Q100.275-45.4435 100.275-35.2053Q100.275-26.3378 96.9768-18.6089Q93.6783-10.88 87.8392-5.02347Q82.0001 0.833065 74.2712 4.13143Q66.5423 7.42979 57.6747 7.42979Q48.8416 7.42979 41.0955 4.13143Q33.3494 0.833065 27.4929-5.02347Q21.6363-10.88 18.338-18.6089Q15.0396-26.3378 15.0466-35.2053Q15.0466-46.3081 20.2654-55.6113Q25.4842-64.9146 34.1087-70.5982Q35.2374-71.4363 35.5527-72.6485Q35.868-73.8606 35.1681-75.0517Q34.4965-76.1878 33.1631-76.4336Q31.8298-76.6794 30.569-75.7446Q23.9928-71.3204 19.0886-65.0588Q14.1844-58.7971 11.4535-51.2032Q8.72266-43.6094 8.72266-35.2053Z"/>
  </g>
  <g id="Thin-M" transform="matrix(1 0 0 1 799.828 1126)">
   <path d="M8.72266-35.1601Q8.72266-25.282 12.4526-16.6131Q16.1824-7.94417 22.7775-1.34333Q29.3725 5.25751 38.0415 8.9816Q46.7104 12.7057 56.5884 12.7057Q66.4781 12.7057 75.1221 8.9816Q83.7661 5.25751 90.3861-1.34333Q97.006-7.94417 100.736-16.6131Q104.467-25.282 104.467-35.1601Q104.467-43.9425 101.483-51.809Q98.4996-59.6754 93.1303-66.003Q87.7609-72.3306 80.5789-76.5398Q73.3969-80.749 65.0008-82.2924L65.0008-90.3169Q65.0008-91.7752 64.0981-92.1896Q63.1953-92.604 61.8689-91.7004L47.2003-81.4146Q46.0982-80.6721 46.092-79.732Q46.0857-78.7919 47.2003-77.9862L61.8573-67.7511Q63.1829-66.7977 64.0918-67.2312Q65.0008-67.6648 65.0008-69.1471L65.0008-78.5071Q75.1793-76.54 83.2697-70.3364Q91.3601-64.1328 96.0328-55.0031Q100.705-45.8735 100.705-35.1601Q100.705-26.021 97.2824-18.0093Q93.8592-9.9975 87.8051-3.93717Q81.751 2.12316 73.7393 5.54585Q65.7275 8.96854 56.5884 8.96854Q47.461 8.96854 39.4434 5.54585Q31.4259 2.12316 25.3655-3.93717Q19.3052-9.9975 15.8825-18.0093Q12.4598-26.021 12.4216-35.1601Q12.4216-47.1906 18.3419-57.1727Q24.2622-67.1549 33.9277-72.9518Q34.6035-73.4051 34.7945-74.1308Q34.9855-74.8564 34.5795-75.5946Q34.225-76.2331 33.4574-76.3996Q32.6899-76.5661 31.9268-76.0389Q24.9658-71.8181 19.7449-65.5565Q14.5239-59.2948 11.6233-51.554Q8.72266-43.8132 8.72266-35.1601Z"/>
  </g>
  <g id="Ultralight-M" transform="matrix(1 0 0 1 503.679 1126)">
   <path d="M8.72266-35.1369Q8.72266-25.3516 12.4004-16.7812Q16.0781-8.21078 22.592-1.6969Q29.1059 4.81699 37.6763 8.49473Q46.2467 12.1725 56.032 12.1725Q65.8173 12.1725 74.357 8.49473Q82.8968 4.81699 89.4414-1.6969Q95.986-8.21078 99.6642-16.7812Q103.342-25.3516 103.342-35.1369Q103.342-43.8613 100.382-51.6525Q97.4217-59.4437 92.0928-65.7075Q86.764-71.9713 79.6283-76.1167Q72.4927-80.2621 64.1431-81.7592L64.1431-90.0966Q64.1431-91.2305 63.42-91.5753Q62.697-91.9201 61.5675-91.1672L47.1655-81.0668Q46.2257-80.4404 46.2253-79.6857Q46.2248-78.9309 47.1655-78.2412L61.5675-68.2031Q62.696-67.3889 63.4196-67.7644Q64.1431-68.14 64.1431-69.2747L64.1431-79.3416Q74.5997-77.4094 82.9393-71.0899Q91.2789-64.7704 96.1023-55.4321Q100.926-46.0938 100.926-35.1369Q100.926-25.8588 97.4388-17.7022Q93.9519-9.54549 87.7877-3.38078Q81.6235 2.78393 73.4668 6.27031Q65.3102 9.75669 56.032 9.75669Q46.7539 9.75669 38.5972 6.27031Q30.4406 2.78393 24.2759-3.38078Q18.1112-9.54549 14.6248-17.7022Q11.1384-25.8588 11.077-35.1369Q11.077-47.6426 17.3566-57.9725Q23.6363-68.3023 33.835-74.1573Q34.2789-74.4135 34.4062-74.89Q34.5335-75.3665 34.278-75.8727Q34.086-76.2562 33.6082-76.3821Q33.1304-76.508 32.6222-76.1896Q25.4642-72.073 20.081-65.8114Q14.6978-59.5498 11.7102-51.7337Q8.72266-43.9175 8.72266-35.1369Z"/>
  </g>
  <g id="Black-S" transform="matrix(1 0 0 1 2884.57 696)">
   <path d="M6.83594-35.2539Q6.83594-26.5625 10.1074-18.9697Q13.3789-11.377 19.165-5.59082Q24.9512 0.195312 32.5439 3.4668Q40.1367 6.73828 48.8281 6.73828Q57.5195 6.73828 65.1123 3.4668Q72.7051 0.195312 78.4912-5.59082Q84.2773-11.377 87.5488-18.9697Q90.8203-26.5625 90.8203-35.2539Q90.8203-42.627 88.4521-49.2432Q86.084-55.8594 81.7871-61.2793Q77.4902-66.6992 71.6797-70.4834Q65.8691-74.2676 59.0332-75.9766L59.0332-82.4707Q59.0332-85.3516 56.7871-86.1328Q54.541-86.9141 51.8066-84.9121L35.7422-72.998Q33.6426-71.4355 33.667-69.165Q33.6914-66.8945 35.7422-65.332L51.8066-53.3691Q54.4922-51.416 56.7627-52.124Q59.0332-52.832 59.0332-55.8105L59.0332-61.1816Q64.209-59.1309 68.1885-55.2734Q72.168-51.416 74.4141-46.2891Q76.6602-41.1621 76.6602-35.2539Q76.6602-29.4922 74.4873-24.4385Q72.3145-19.3848 68.5059-15.5762Q64.6973-11.7676 59.6436-9.59473Q54.5898-7.42188 48.8281-7.42188Q43.0664-7.42188 38.0127-9.59473Q32.959-11.7676 29.1504-15.5762Q25.3418-19.3848 23.1689-24.4385Q20.9961-29.4922 20.9961-35.2539Q20.9961-40.6738 22.876-45.2637Q24.7559-49.8535 28.2227-53.9551Q30.3711-56.4453 30.835-59.3994Q31.2988-62.3535 28.9062-64.7461Q26.8066-66.8457 23.9258-66.6748Q21.0449-66.5039 18.1641-63.916Q14.7949-60.8887 12.2559-56.0547Q9.7168-51.2207 8.27637-45.752Q6.83594-40.2832 6.83594-35.2539Z"/>
  </g>
  <g id="Heavy-S" transform="matrix(1 0 0 1 2588.47 696)">
   <path d="M6.83594-35.2539Q6.83594-26.7123 10.0671-19.229Q13.2982-11.7457 19.0037-6.03451Q24.7092-0.323288 32.1924 2.9021Q39.6757 6.12748 48.2173 6.12748Q56.7704 6.12748 64.2537 2.9021Q71.737-0.323288 77.4425-6.03451Q83.1479-11.7457 86.3791-19.229Q89.6102-26.7123 89.6102-35.2539Q89.6102-42.5578 87.2306-49.1279Q84.8509-55.698 80.5425-61.0603Q76.2341-66.4226 70.4293-70.1434Q64.6245-73.8642 57.8116-75.4925L57.8116-81.687Q57.8116-84.4181 55.7845-85.1475Q53.7574-85.8769 51.265-84.0593L36.0649-72.9059Q34.1266-71.4816 34.1395-69.4243Q34.1524-67.367 36.0649-65.9313L51.2535-54.7406Q53.7085-52.9603 55.7601-53.628Q57.8116-54.2956 57.8116-57.1243L57.8116-62.3917Q63.4253-60.4331 67.7621-56.4316Q72.0988-52.4302 74.5581-46.9921Q77.0174-41.5539 77.0174-35.2539Q77.0174-29.2732 74.7754-24.0466Q72.5334-18.8201 68.5923-14.8732Q64.6512-10.9263 59.4246-8.68429Q54.198-6.4423 48.2173-6.4423Q42.2482-6.4423 37.0158-8.68429Q31.7835-10.9263 27.8366-14.8732Q23.8897-18.8201 21.6477-24.0466Q19.4057-29.2732 19.4172-35.2539Q19.4172-41.2385 21.6601-46.3124Q23.903-51.3863 27.9115-55.5455Q29.864-57.69 30.3048-60.281Q30.7457-62.8721 28.7219-65.0227Q26.9219-66.9494 24.3464-66.8822Q21.771-66.8151 19.2243-64.5729Q15.521-61.3957 12.7456-56.5445Q9.97034-51.6932 8.40314-46.1438Q6.83594-40.5944 6.83594-35.2539Z"/>
  </g>
  <g id="Bold-S" transform="matrix(1 0 0 1 2292.43 696)">
   <path d="M6.83594-35.2539Q6.83594-26.8799 10.022-19.519Q13.208-12.1582 18.8232-6.53076Q24.4385-0.90332 31.7993 2.27051Q39.1602 5.44434 47.5342 5.44434Q55.9326 5.44434 63.2935 2.27051Q70.6543-0.90332 76.2695-6.53076Q81.8848-12.1582 85.0708-19.519Q88.2568-26.8799 88.2568-35.2539Q88.2568-42.4805 85.8643-48.999Q83.4717-55.5176 79.1504-60.8154Q74.8291-66.1133 69.0308-69.7632Q63.2324-73.4131 56.4453-74.9512L56.4453-80.8105Q56.4453-83.374 54.6631-84.0454Q52.8809-84.7168 50.6592-83.1055L36.4258-72.8027Q34.668-71.5332 34.668-69.7144Q34.668-67.8955 36.4258-66.6016L50.6348-56.2744Q52.832-54.6875 54.6387-55.3101Q56.4453-55.9326 56.4453-58.5938L56.4453-63.7451Q62.5488-61.8896 67.2852-57.7271Q72.0215-53.5645 74.7192-47.7783Q77.417-41.9922 77.417-35.2539Q77.417-29.0283 75.0977-23.6084Q72.7783-18.1885 68.689-14.0869Q64.5996-9.98535 59.1797-7.66602Q53.7598-5.34668 47.5342-5.34668Q41.333-5.34668 35.9009-7.66602Q30.4688-9.98535 26.3672-14.0869Q22.2656-18.1885 19.9463-23.6084Q17.627-29.0283 17.6514-35.2539Q17.6514-41.8701 20.3003-47.4854Q22.9492-53.1006 27.5635-57.3242Q29.2969-59.082 29.7119-61.2671Q30.127-63.4521 28.5156-65.332Q27.0508-67.0654 24.8169-67.1143Q22.583-67.1631 20.4102-65.3076Q16.333-61.9629 13.2935-57.0923Q10.2539-52.2217 8.54492-46.582Q6.83594-40.9424 6.83594-35.2539Z"/>
  </g>
  <g id="Semibold-S" transform="matrix(1 0 0 1 1996.19 696)">
   <path d="M6.83594-35.2539Q6.83594-26.9954 9.99087-19.719Q13.1458-12.4426 18.6988-6.8729Q24.2519-1.30322 31.5283 1.83506Q38.8047 4.97334 47.0632 4.97334Q55.355 4.97334 62.6314 1.83506Q69.9078-1.30322 75.4608-6.8729Q81.0139-12.4426 84.1688-19.719Q87.3237-26.9954 87.3237-35.2539Q87.3237-42.4271 84.9223-48.9102Q82.5208-55.3932 78.1906-60.6466Q73.8604-65.9 68.0666-69.501Q62.2727-73.1021 55.5033-74.5779L55.5033-80.2062Q55.5033-82.6542 53.8899-83.2856Q52.2766-83.917 50.2415-82.4479L36.6746-72.7316Q35.0412-71.5687 35.0323-69.9143Q35.0234-68.2599 36.6746-67.0637L50.2082-57.3319Q52.2277-55.8783 53.8655-56.4698Q55.5033-57.0612 55.5033-59.6068L55.5033-64.6782Q61.9445-62.8938 66.9563-58.6202Q71.9682-54.3465 74.8303-48.3204Q77.6925-42.2943 77.6925-35.2539Q77.6925-28.8595 75.3198-23.3062Q72.9472-17.753 68.7556-13.5448Q64.5641-9.33662 59.0108-6.96396Q53.4576-4.59131 47.0632-4.59131Q40.7021-4.59131 35.1322-6.96396Q29.5623-9.33662 25.3541-13.5448Q21.1459-17.753 18.7732-23.3062Q16.4006-28.8595 16.4339-35.2539Q16.4339-42.3056 19.3627-48.294Q22.2916-54.2825 27.3235-58.5506Q28.9059-60.0418 29.3031-61.9469Q29.7004-63.8521 28.3734-65.5453Q27.1396-67.1454 25.1413-67.2742Q23.1429-67.403 21.2277-65.8142Q16.8929-62.3539 13.6711-57.47Q10.4494-52.586 8.64268-46.8842Q6.83594-41.1823 6.83594-35.2539Z"/>
  </g>
  <g id="Medium-S" transform="matrix(1 0 0 1 1699.83 696)">
   <path d="M6.83594-35.2539Q6.83594-27.083 9.96729-19.8706Q13.0986-12.6582 18.6045-7.13232Q24.1104-1.60645 31.3228 1.50488Q38.5352 4.61621 46.7061 4.61621Q54.917 4.61621 62.1294 1.50488Q69.3418-1.60645 74.8477-7.13232Q80.3535-12.6582 83.4849-19.8706Q86.6162-27.083 86.6162-35.2539Q86.6162-42.3867 84.208-48.8428Q81.7998-55.2988 77.4629-60.5186Q73.126-65.7383 67.3354-69.3022Q61.5449-72.8662 54.7891-74.2949L54.7891-79.748Q54.7891-82.1084 53.3037-82.7095Q51.8184-83.3105 49.9248-81.9492L36.8633-72.6777Q35.3242-71.5957 35.3086-70.0659Q35.293-68.5361 36.8633-67.4141L49.8848-58.1338Q51.7695-56.7812 53.2793-57.3491Q54.7891-57.917 54.7891-60.375L54.7891-65.3857Q61.4863-63.6553 66.707-59.2974Q71.9277-54.9395 74.9146-48.7314Q77.9014-42.5234 77.9014-35.2539Q77.9014-28.7314 75.4883-23.0771Q73.0752-17.4229 68.8062-13.1338Q64.5371-8.84473 58.8828-6.43164Q53.2285-4.01855 46.7061-4.01855Q40.2236-4.01855 34.5493-6.43164Q28.875-8.84473 24.5859-13.1338Q20.2969-17.4229 17.8838-23.0771Q15.4707-28.7314 15.5107-35.2539Q15.5107-42.6357 18.6519-48.9072Q21.793-55.1787 27.1416-59.4805Q28.6094-60.7695 28.9932-62.4624Q29.377-64.1553 28.2656-65.707Q27.207-67.2061 25.3872-67.3955Q23.5674-67.585 21.8477-66.1982Q17.3174-62.6504 13.9575-57.7563Q10.5977-52.8623 8.7168-47.1133Q6.83594-41.3643 6.83594-35.2539Z"/>
  </g>
  <g id="Regular-S" transform="matrix(1 0 0 1 1403.58 696)">
   <path d="M6.83594-35.2539Q6.83594-27.1973 9.93652-20.0684Q13.0371-12.9395 18.4814-7.4707Q23.9258-2.00195 31.0547 1.07422Q38.1836 4.15039 46.2402 4.15039Q54.3457 4.15039 61.4746 1.07422Q68.6035-2.00195 74.0479-7.4707Q79.4922-12.9395 82.5928-20.0684Q85.6934-27.1973 85.6934-35.2539Q85.6934-42.334 83.2764-48.7549Q80.8594-55.1758 76.5137-60.3516Q72.168-65.5273 66.3818-69.043Q60.5957-72.5586 53.8574-73.9258L53.8574-79.1504Q53.8574-81.3965 52.5391-81.958Q51.2207-82.5195 49.5117-81.2988L37.1094-72.6074Q35.6934-71.6309 35.6689-70.2637Q35.6445-68.8965 37.1094-67.8711L49.4629-59.1797Q51.1719-57.959 52.5146-58.4961Q53.8574-59.0332 53.8574-61.377L53.8574-66.3086Q60.8887-64.6484 66.3818-60.1807Q71.875-55.7129 75.0244-49.2676Q78.1738-42.8223 78.1738-35.2539Q78.1738-28.5645 75.708-22.7783Q73.2422-16.9922 68.8721-12.5977Q64.502-8.20312 58.7158-5.7373Q52.9297-3.27148 46.2402-3.27148Q39.5996-3.27148 33.7891-5.7373Q27.9785-8.20312 23.584-12.5977Q19.1895-16.9922 16.7236-22.7783Q14.2578-28.5645 14.3066-35.2539Q14.3066-43.0664 17.7246-49.707Q21.1426-56.3477 26.9043-60.6934Q28.2227-61.7188 28.5889-63.1348Q28.9551-64.5508 28.125-65.918Q27.2949-67.2852 25.708-67.5537Q24.1211-67.8223 22.6562-66.6992Q17.8711-63.0371 14.3311-58.1299Q10.791-53.2227 8.81348-47.4121Q6.83594-41.6016 6.83594-35.2539Z"/>
  </g>
  <g id="Light-S" transform="matrix(1 0 0 1 1107.6 696)">
   <path d="M6.83594-35.2236Q6.83594-27.2881 9.86837-20.2878Q12.9008-13.2876 18.2392-7.93241Q23.5776-2.57721 30.5779 0.438436Q37.5781 3.45408 45.5137 3.45408Q53.4828 3.45408 60.4755 0.438436Q67.4683-2.57721 72.8142-7.93241Q78.1601-13.2876 81.1927-20.2878Q84.2252-27.2881 84.2252-35.2236Q84.2252-42.2279 81.8385-48.5505Q79.4518-54.8731 75.1589-59.9656Q70.8661-65.0581 65.1405-68.4905Q59.4149-71.9228 52.7374-73.2295L52.7374-78.8628Q52.7374-80.6852 51.6537-81.1558Q50.5699-81.6264 49.118-80.6025L37.0639-72.1532Q35.8599-71.3282 35.843-70.2031Q35.8261-69.0781 37.0639-68.204L49.0845-59.7699Q50.5361-58.7311 51.6368-59.1924Q52.7374-59.6537 52.7374-61.5435L52.7374-67.3983Q60.1318-65.7837 65.9504-61.1646Q71.769-56.5455 75.1152-49.8277Q78.4615-43.1099 78.4615-35.2236Q78.4615-28.3526 75.9123-22.3773Q73.3632-16.4019 68.8493-11.8711Q64.3354-7.34024 58.36-4.79126Q52.3847-2.24228 45.5137-2.24228Q38.6762-2.24228 32.6841-4.79126Q26.6919-7.34024 22.1611-11.8711Q17.6303-16.4019 15.0813-22.3773Q12.5323-28.3526 12.5509-35.2236Q12.5509-43.6567 16.438-50.7514Q20.3252-57.8461 26.7832-62.2676Q27.7987-63.0356 28.0818-64.1262Q28.3648-65.2168 27.7313-66.2811Q27.1133-67.3154 25.9048-67.5309Q24.6964-67.7465 23.5644-66.8961Q18.5219-63.37 14.77-58.4628Q11.0181-53.5556 8.92703-47.6467Q6.83594-41.7379 6.83594-35.2236Z"/>
  </g>
  <g id="Thin-S" transform="matrix(1 0 0 1 811.863 696)">
   <path d="M6.83594-35.1836Q6.83594-27.4081 9.77823-20.5781Q12.7205-13.7481 17.9188-8.54305Q23.1172-3.33803 29.9472-0.402438Q36.7772 2.53316 44.5527 2.53316Q52.3416 2.53316 59.1542-0.402438Q65.9668-3.33803 71.1825-8.54305Q76.3983-13.7481 79.3409-20.5781Q82.2835-27.4081 82.2835-35.1836Q82.2835-42.0877 79.9368-48.2803Q77.5901-54.4729 73.3672-59.4552Q69.1444-64.4376 63.4988-67.7598Q57.8533-71.0819 51.2561-72.3085L51.2561-78.4824Q51.2561-79.7444 50.4827-80.0948Q49.7092-80.4451 48.5974-79.6816L37.0036-71.5525Q36.0802-70.928 36.0733-70.1231Q36.0663-69.3182 37.0036-68.6443L48.584-60.5506Q49.6952-59.7522 50.4757-60.1133Q51.2561-60.4744 51.2561-61.7638L51.2561-68.8396Q59.1309-67.2852 65.3798-62.4659Q71.6287-57.6467 75.2353-50.5685Q78.8419-43.4903 78.8419-35.1836Q78.8419-28.0724 76.1826-21.8468Q73.5233-15.6213 68.8192-10.9101Q64.1151-6.19901 57.8895-3.54004Q51.6639-0.881072 44.5527-0.881072Q37.4549-0.881072 31.2226-3.54004Q24.9904-6.19901 20.2792-10.9101Q15.5681-15.6213 12.9091-21.8468Q10.2502-28.0724 10.2287-35.1836Q10.2287-44.4373 14.7364-52.1326Q19.2442-59.8278 26.6231-64.3496Q27.238-64.7772 27.4111-65.4375Q27.5841-66.0977 27.2107-66.7614Q26.8732-67.3554 26.1652-67.5008Q25.4572-67.6462 24.7655-67.1564Q19.3826-63.8103 15.3505-58.9031Q11.3185-53.9958 9.07721-47.957Q6.83594-41.9182 6.83594-35.1836Z"/>
  </g>
  <g id="Ultralight-S" transform="matrix(1 0 0 1 515.649 696)">
   <path d="M6.83594-35.1631Q6.83594-27.4696 9.73206-20.7268Q12.6282-13.9839 17.7547-8.85582Q22.8813-3.72772 29.6242-0.83313Q36.367 2.06146 44.0605 2.06146Q51.757 2.06146 58.4774-0.83313Q65.1978-3.72772 70.3468-8.85582Q75.4959-13.9839 78.3924-20.7268Q81.2889-27.4696 81.2889-35.1631Q81.2889-42.0158 78.9627-48.1419Q76.6365-54.2679 72.4495-59.1938Q68.2625-64.1197 62.6579-67.3855Q57.0534-70.6512 50.4974-71.8369L50.4974-78.2875Q50.4974-79.2625 49.8829-79.5513Q49.2683-79.8401 48.3307-79.2099L36.9728-71.2448Q36.1931-70.723 36.1912-70.0821Q36.1893-69.4412 36.9728-68.8698L48.3276-60.9505Q49.2645-60.2753 49.881-60.585Q50.4974-60.8948 50.4974-61.8767L50.4974-69.5778Q58.6182-68.0542 65.0875-63.1325Q71.5569-58.2108 75.2968-50.948Q79.0367-43.6852 79.0367-35.1631Q79.0367-27.9289 76.321-21.5752Q73.6053-15.2214 68.8038-10.4179Q64.0022-5.61447 57.6485-2.89917Q51.2947-0.183868 44.0605-0.183868Q36.8294-0.183868 30.4741-2.89917Q24.1188-5.61447 19.3153-10.4179Q14.5119-15.2214 11.7966-21.5752Q9.08127-27.9289 9.03931-35.1631Q9.03931-44.8372 13.8649-52.84Q18.6905-60.8429 26.5411-65.416Q26.9508-65.6693 27.0676-66.1091Q27.1843-66.5489 26.944-67.0074Q26.7502-67.3759 26.2985-67.4854Q25.8469-67.5949 25.3807-67.2897Q19.8235-64.0358 15.6479-59.1286Q11.4723-54.2213 9.15413-48.1159Q6.83594-42.0105 6.83594-35.1631Z"/>
  </g>
 </g>
</svg>
