<?xml version="1.0" encoding="UTF-8"?>
<!--Generator: Apple Native CoreSVG 175-->
<!DOCTYPE svg
PUBLIC "-//W3C//DTD SVG 1.1//EN"
       "http://www.w3.org/Graphics/SVG/1.1/DTD/svg11.dtd">
<svg version="1.1" xmlns="http://www.w3.org/2000/svg" xmlns:xlink="http://www.w3.org/1999/xlink" width="3300" height="2200">
 <!--glyph: "uni1008CC.medium", point size: 100.0, font version: "17.1d1e1", template writer version: "65.1"-->
 <g id="Notes">
  <rect height="2200" id="artboard" style="fill:white;opacity:1" width="3300" x="0" y="0"/>
  <line style="fill:none;stroke:black;opacity:1;stroke-width:0.5;" x1="263" x2="3036" y1="292" y2="292"/>
  <text style="stroke:none;fill:black;font-family:sans-serif;font-size:13;font-weight:bold;" transform="matrix(1 0 0 1 263 322)">Weight/Scale Variations</text>
  <text style="stroke:none;fill:black;font-family:sans-serif;font-size:13;text-anchor:middle;" transform="matrix(1 0 0 1 559.711 322)">Ultralight</text>
  <text style="stroke:none;fill:black;font-family:sans-serif;font-size:13;text-anchor:middle;" transform="matrix(1 0 0 1 856.422 322)">Thin</text>
  <text style="stroke:none;fill:black;font-family:sans-serif;font-size:13;text-anchor:middle;" transform="matrix(1 0 0 1 1153.13 322)">Light</text>
  <text style="stroke:none;fill:black;font-family:sans-serif;font-size:13;text-anchor:middle;" transform="matrix(1 0 0 1 1449.84 322)">Regular</text>
  <text style="stroke:none;fill:black;font-family:sans-serif;font-size:13;text-anchor:middle;" transform="matrix(1 0 0 1 1746.56 322)">Medium</text>
  <text style="stroke:none;fill:black;font-family:sans-serif;font-size:13;text-anchor:middle;" transform="matrix(1 0 0 1 2043.27 322)">Semibold</text>
  <text style="stroke:none;fill:black;font-family:sans-serif;font-size:13;text-anchor:middle;" transform="matrix(1 0 0 1 2339.98 322)">Bold</text>
  <text style="stroke:none;fill:black;font-family:sans-serif;font-size:13;text-anchor:middle;" transform="matrix(1 0 0 1 2636.69 322)">Heavy</text>
  <text style="stroke:none;fill:black;font-family:sans-serif;font-size:13;text-anchor:middle;" transform="matrix(1 0 0 1 2933.4 322)">Black</text>
  <line style="fill:none;stroke:black;opacity:1;stroke-width:0.5;" x1="263" x2="3036" y1="1903" y2="1903"/>
  <g transform="matrix(1 0 0 1 263 1933)">
   <path d="M9.24805 0.830078Q10.8691 0.830078 12.2949 0.214844Q13.7207-0.400391 14.8096-1.49414Q15.8984-2.58789 16.5186-4.01367Q17.1387-5.43945 17.1387-7.05078Q17.1387-8.66211 16.5186-10.0879Q15.8984-11.5137 14.8047-12.6074Q13.7109-13.7012 12.2852-14.3164Q10.8594-14.9316 9.23828-14.9316Q7.62695-14.9316 6.20117-14.3164Q4.77539-13.7012 3.69141-12.6074Q2.60742-11.5137 1.9873-10.0879Q1.36719-8.66211 1.36719-7.05078Q1.36719-5.43945 1.9873-4.01367Q2.60742-2.58789 3.69629-1.49414Q4.78516-0.400391 6.21094 0.214844Q7.63672 0.830078 9.24805 0.830078ZM9.24805-0.654297Q7.91992-0.654297 6.7627-1.14746Q5.60547-1.64062 4.73145-2.51953Q3.85742-3.39844 3.36426-4.56055Q2.87109-5.72266 2.87109-7.05078Q2.87109-8.37891 3.35938-9.54102Q3.84766-10.7031 4.72168-11.582Q5.5957-12.4609 6.75293-12.9541Q7.91016-13.4473 9.23828-13.4473Q10.5762-13.4473 11.7334-12.9541Q12.8906-12.4609 13.7695-11.582Q14.6484-10.7031 15.1465-9.54102Q15.6445-8.37891 15.6445-7.05078Q15.6445-5.72266 15.1514-4.56055Q14.6582-3.39844 13.7842-2.51953Q12.9102-1.64062 11.748-1.14746Q10.5859-0.654297 9.24805-0.654297ZM5.6543-7.05078Q5.6543-6.72852 5.85938-6.52832Q6.06445-6.32812 6.40625-6.32812L8.51562-6.32812L8.51562-4.20898Q8.51562-3.88672 8.71094-3.67676Q8.90625-3.4668 9.23828-3.4668Q9.56055-3.4668 9.77051-3.67676Q9.98047-3.88672 9.98047-4.20898L9.98047-6.32812L12.0898-6.32812Q12.4219-6.32812 12.627-6.52832Q12.832-6.72852 12.832-7.05078Q12.832-7.38281 12.627-7.58789Q12.4219-7.79297 12.0898-7.79297L9.98047-7.79297L9.98047-9.90234Q9.98047-10.2344 9.77051-10.4443Q9.56055-10.6543 9.23828-10.6543Q8.90625-10.6543 8.71094-10.4443Q8.51562-10.2344 8.51562-9.90234L8.51562-7.79297L6.40625-7.79297Q6.06445-7.79297 5.85938-7.58789Q5.6543-7.38281 5.6543-7.05078Z"/>
  </g>
  <g transform="matrix(1 0 0 1 281.867 1933)">
   <path d="M11.709 2.91016Q13.75 2.91016 15.5518 2.12891Q17.3535 1.34766 18.7305-0.0292969Q20.1074-1.40625 20.8887-3.20801Q21.6699-5.00977 21.6699-7.05078Q21.6699-9.0918 20.8887-10.8936Q20.1074-12.6953 18.7305-14.0723Q17.3535-15.4492 15.5469-16.2305Q13.7402-17.0117 11.6992-17.0117Q9.6582-17.0117 7.85645-16.2305Q6.05469-15.4492 4.68262-14.0723Q3.31055-12.6953 2.5293-10.8936Q1.74805-9.0918 1.74805-7.05078Q1.74805-5.00977 2.5293-3.20801Q3.31055-1.40625 4.6875-0.0292969Q6.06445 1.34766 7.86621 2.12891Q9.66797 2.91016 11.709 2.91016ZM11.709 1.25Q9.98047 1.25 8.47656 0.605469Q6.97266-0.0390625 5.83496-1.17676Q4.69727-2.31445 4.05762-3.81836Q3.41797-5.32227 3.41797-7.05078Q3.41797-8.7793 4.05762-10.2832Q4.69727-11.7871 5.83008-12.9297Q6.96289-14.0723 8.4668-14.7119Q9.9707-15.3516 11.6992-15.3516Q13.4277-15.3516 14.9316-14.7119Q16.4355-14.0723 17.5781-12.9297Q18.7207-11.7871 19.3652-10.2832Q20.0098-8.7793 20.0098-7.05078Q20.0098-5.32227 19.3701-3.81836Q18.7305-2.31445 17.5928-1.17676Q16.4551-0.0390625 14.9463 0.605469Q13.4375 1.25 11.709 1.25ZM7.17773-7.05078Q7.17773-6.69922 7.41211-6.47461Q7.64648-6.25 8.01758-6.25L10.8887-6.25L10.8887-3.36914Q10.8887-2.99805 11.1133-2.76855Q11.3379-2.53906 11.6895-2.53906Q12.0605-2.53906 12.29-2.76855Q12.5195-2.99805 12.5195-3.36914L12.5195-6.25L15.4004-6.25Q15.7715-6.25 16.001-6.47461Q16.2305-6.69922 16.2305-7.05078Q16.2305-7.42188 16.001-7.65137Q15.7715-7.88086 15.4004-7.88086L12.5195-7.88086L12.5195-10.752Q12.5195-11.1328 12.29-11.3623Q12.0605-11.5918 11.6895-11.5918Q11.3379-11.5918 11.1133-11.3574Q10.8887-11.123 10.8887-10.752L10.8887-7.88086L8.01758-7.88086Q7.63672-7.88086 7.40723-7.65137Q7.17773-7.42188 7.17773-7.05078Z"/>
  </g>
  <g transform="matrix(1 0 0 1 305.646 1933)">
   <path d="M14.9707 5.66406Q17.0605 5.66406 18.96 5.01465Q20.8594 4.36523 22.4512 3.19336Q24.043 2.02148 25.2197 0.429688Q26.3965-1.16211 27.0459-3.06641Q27.6953-4.9707 27.6953-7.05078Q27.6953-9.14062 27.0459-11.04Q26.3965-12.9395 25.2197-14.5312Q24.043-16.123 22.4512-17.2998Q20.8594-18.4766 18.9551-19.126Q17.0508-19.7754 14.9609-19.7754Q12.8711-19.7754 10.9717-19.126Q9.07227-18.4766 7.48535-17.2998Q5.89844-16.123 4.72168-14.5312Q3.54492-12.9395 2.90039-11.04Q2.25586-9.14062 2.25586-7.05078Q2.25586-4.9707 2.90527-3.06641Q3.55469-1.16211 4.72656 0.429688Q5.89844 2.02148 7.49023 3.19336Q9.08203 4.36523 10.9814 5.01465Q12.8809 5.66406 14.9707 5.66406ZM14.9707 3.84766Q13.1641 3.84766 11.5283 3.2959Q9.89258 2.74414 8.53516 1.74805Q7.17773 0.751953 6.17676-0.610352Q5.17578-1.97266 4.62891-3.6084Q4.08203-5.24414 4.08203-7.05078Q4.08203-8.86719 4.62891-10.5029Q5.17578-12.1387 6.17188-13.501Q7.16797-14.8633 8.52539-15.8594Q9.88281-16.8555 11.5186-17.4023Q13.1543-17.9492 14.9609-17.9492Q16.7773-17.9492 18.4131-17.4023Q20.0488-16.8555 21.4111-15.8594Q22.7734-14.8633 23.7695-13.501Q24.7656-12.1387 25.3174-10.5029Q25.8691-8.86719 25.8691-7.05078Q25.8789-5.24414 25.332-3.6084Q24.7852-1.97266 23.7842-0.610352Q22.7832 0.751953 21.4209 1.74805Q20.0586 2.74414 18.4229 3.2959Q16.7871 3.84766 14.9707 3.84766ZM9.19922-7.05078Q9.19922-6.66992 9.45801-6.4209Q9.7168-6.17188 10.1172-6.17188L14.0625-6.17188L14.0625-2.2168Q14.0625-1.81641 14.3115-1.55762Q14.5605-1.29883 14.9512-1.29883Q15.3516-1.29883 15.6104-1.55273Q15.8691-1.80664 15.8691-2.2168L15.8691-6.17188L19.8242-6.17188Q20.2246-6.17188 20.4785-6.4209Q20.7324-6.66992 20.7324-7.05078Q20.7324-7.46094 20.4785-7.71484Q20.2246-7.96875 19.8242-7.96875L15.8691-7.96875L15.8691-11.9141Q15.8691-12.3242 15.6104-12.583Q15.3516-12.8418 14.9512-12.8418Q14.5605-12.8418 14.3115-12.583Q14.0625-12.3242 14.0625-11.9141L14.0625-7.96875L10.1172-7.96875Q9.70703-7.96875 9.45312-7.71484Q9.19922-7.46094 9.19922-7.05078Z"/>
  </g>
  <text style="stroke:none;fill:black;font-family:sans-serif;font-size:13;font-weight:bold;" transform="matrix(1 0 0 1 263 1953)">Design Variations</text>
  <text style="stroke:none;fill:black;font-family:sans-serif;font-size:13;" transform="matrix(1 0 0 1 263 1971)">Symbols are supported in up to nine weights and three scales.</text>
  <text style="stroke:none;fill:black;font-family:sans-serif;font-size:13;" transform="matrix(1 0 0 1 263 1989)">For optimal layout with text and other symbols, vertically align</text>
  <text style="stroke:none;fill:black;font-family:sans-serif;font-size:13;" transform="matrix(1 0 0 1 263 2007)">symbols with the adjacent text.</text>
  <line style="fill:none;stroke:#00AEEF;stroke-width:0.5;opacity:1.0;" x1="776" x2="776" y1="1919" y2="1933"/>
  <g transform="matrix(1 0 0 1 776 1933)">
   <path d="M3.31055 0.15625Q3.70117 0.15625 3.91602-0.00976562Q4.13086-0.175781 4.26758-0.585938L5.52734-4.0332L11.2891-4.0332L12.5488-0.585938Q12.6855-0.175781 12.9004-0.00976562Q13.1152 0.15625 13.4961 0.15625Q13.8867 0.15625 14.1162-0.0585938Q14.3457-0.273438 14.3457-0.644531Q14.3457-0.869141 14.2383-1.17188L9.6582-13.3691Q9.48242-13.8184 9.17969-14.043Q8.87695-14.2676 8.4082-14.2676Q7.5-14.2676 7.17773-13.3789L2.59766-1.16211Q2.49023-0.859375 2.49023-0.634766Q2.49023-0.263672 2.70996-0.0537109Q2.92969 0.15625 3.31055 0.15625ZM6.00586-5.51758L8.37891-12.0898L8.42773-12.0898L10.8008-5.51758Z"/>
  </g>
  <line style="fill:none;stroke:#00AEEF;stroke-width:0.5;opacity:1.0;" x1="793.197" x2="793.197" y1="1919" y2="1933"/>
  <text style="stroke:none;fill:black;font-family:sans-serif;font-size:13;font-weight:bold;" transform="matrix(1 0 0 1 776 1953)">Margins</text>
  <text style="stroke:none;fill:black;font-family:sans-serif;font-size:13;" transform="matrix(1 0 0 1 776 1971)">Leading and trailing margins on the left and right side of each symbol</text>
  <text style="stroke:none;fill:black;font-family:sans-serif;font-size:13;" transform="matrix(1 0 0 1 776 1989)">can be adjusted by modifying the x-location of the margin guidelines.</text>
  <text style="stroke:none;fill:black;font-family:sans-serif;font-size:13;" transform="matrix(1 0 0 1 776 2007)">Modifications are automatically applied proportionally to all</text>
  <text style="stroke:none;fill:black;font-family:sans-serif;font-size:13;" transform="matrix(1 0 0 1 776 2025)">scales and weights.</text>
  <g transform="matrix(1 0 0 1 1289 1933)">
   <path d="M2.8418 1.86523L4.54102 3.57422Q5.18555 4.22852 5.90332 4.17969Q6.62109 4.13086 7.31445 3.35938L18.0078-8.42773L17.041-9.4043L6.42578 2.27539Q6.16211 2.57812 5.89355 2.61719Q5.625 2.65625 5.27344 2.30469L4.10156 1.14258Q3.75 0.791016 3.79395 0.522461Q3.83789 0.253906 4.14062-0.0195312L15.6152-10.8203L14.6387-11.7871L3.04688-0.898438Q2.30469-0.214844 2.25098 0.498047Q2.19727 1.21094 2.8418 1.86523ZM9.25781-16.3281Q8.94531-16.0254 8.90625-15.6348Q8.86719-15.2441 9.04297-14.9512Q9.21875-14.6777 9.55566-14.541Q9.89258-14.4043 10.3809-14.5215Q11.4746-14.7754 12.5977-14.7314Q13.7207-14.6875 14.7949-13.9844L14.209-12.5293Q13.9551-11.9043 14.0674-11.4404Q14.1797-10.9766 14.5801-10.5664L16.875-8.25195Q17.2363-7.88086 17.5781-7.82227Q17.9199-7.76367 18.3398-7.8418L19.4043-8.03711L20.0684-7.36328L20.0293-6.80664Q20-6.43555 20.1221-6.12305Q20.2441-5.81055 20.6055-5.44922L21.3672-4.70703Q21.7285-4.3457 22.1533-4.33105Q22.5781-4.31641 22.9297-4.66797L25.8398-7.58789Q26.1914-7.93945 26.1816-8.35449Q26.1719-8.76953 25.8105-9.13086L25.0391-9.89258Q24.6875-10.2539 24.3799-10.3857Q24.0723-10.5176 23.7109-10.4883L23.1348-10.4395L22.4902-11.0742L22.7344-12.1973Q22.832-12.6172 22.6953-12.9834Q22.5586-13.3496 22.1191-13.7891L19.9219-15.9766Q18.6719-17.2168 17.2607-17.8369Q15.8496-18.457 14.4189-18.4814Q12.9883-18.5059 11.665-17.959Q10.3418-17.4121 9.25781-16.3281ZM10.752-15.957Q11.6602-16.6211 12.7002-16.9043Q13.7402-17.1875 14.8047-17.085Q15.8691-16.9824 16.8701-16.5137Q17.8711-16.0449 18.7012-15.2051L21.1328-12.793Q21.3086-12.6172 21.3525-12.4512Q21.3965-12.2852 21.3379-12.0312L21.0156-10.5469L22.5195-9.0625L23.5059-9.12109Q23.6914-9.13086 23.7891-9.09668Q23.8867-9.0625 24.0332-8.91602L24.6094-8.33984L22.168-5.89844L21.5918-6.47461Q21.4453-6.62109 21.4062-6.71875Q21.3672-6.81641 21.377-7.01172L21.4453-7.98828L19.9512-9.47266L18.4277-9.21875Q18.1836-9.16992 18.042-9.2041Q17.9004-9.23828 17.7148-9.41406L15.7129-11.416Q15.5176-11.5918 15.4932-11.7529Q15.4688-11.9141 15.5859-12.1875L16.4648-14.2773Q15.293-15.3711 13.8281-15.791Q12.3633-16.2109 10.8398-15.7617Q10.7227-15.7324 10.6885-15.8057Q10.6543-15.8789 10.752-15.957Z"/>
  </g>
  <text style="stroke:none;fill:black;font-family:sans-serif;font-size:13;font-weight:bold;" transform="matrix(1 0 0 1 1289 1953)">Exporting</text>
  <text style="stroke:none;fill:black;font-family:sans-serif;font-size:13;" transform="matrix(1 0 0 1 1289 1971)">Symbols should be outlined when exporting to ensure the</text>
  <text style="stroke:none;fill:black;font-family:sans-serif;font-size:13;" transform="matrix(1 0 0 1 1289 1989)">design is preserved when submitting to Xcode.</text>
  <text id="template-version" style="stroke:none;fill:black;font-family:sans-serif;font-size:13;text-anchor:end;" transform="matrix(1 0 0 1 3036 1933)">Template v.2.0</text>
  <text style="stroke:none;fill:black;font-family:sans-serif;font-size:13;text-anchor:end;" transform="matrix(1 0 0 1 3036 1951)">Requires Xcode 12 or greater</text>
  <text id="descriptive-name" style="stroke:none;fill:black;font-family:sans-serif;font-size:13;text-anchor:end;" transform="matrix(1 0 0 1 3036 1969)">Generated from gearshape.fill</text>
  <text style="stroke:none;fill:black;font-family:sans-serif;font-size:13;text-anchor:end;" transform="matrix(1 0 0 1 3036 1987)">Typeset at 100 points</text>
  <text style="stroke:none;fill:black;font-family:sans-serif;font-size:13;" transform="matrix(1 0 0 1 263 726)">Small</text>
  <text style="stroke:none;fill:black;font-family:sans-serif;font-size:13;" transform="matrix(1 0 0 1 263 1156)">Medium</text>
  <text style="stroke:none;fill:black;font-family:sans-serif;font-size:13;" transform="matrix(1 0 0 1 263 1586)">Large</text>
 </g>
 <g id="Guides">
  <g id="H-reference" style="fill:#27AAE1;stroke:none;" transform="matrix(1 0 0 1 339 696)">
   <path d="M0.993347 0L3.6377 0L29.3282-67.1326L30.0301-67.1326L30.0301-70.459L28.1227-70.459ZM11.6882-24.4797L46.9818-24.4797L46.2311-26.7288L12.4382-26.7288ZM55.1193 0L57.7637 0L30.6381-70.459L29.4327-70.459L29.4327-67.1326Z"/>
  </g>
  <line id="Baseline-S" style="fill:none;stroke:#27AAE1;opacity:1;stroke-width:0.5;" x1="263" x2="3036" y1="696" y2="696"/>
  <line id="Capline-S" style="fill:none;stroke:#27AAE1;opacity:1;stroke-width:0.5;" x1="263" x2="3036" y1="625.541" y2="625.541"/>
  <g id="H-reference" style="fill:#27AAE1;stroke:none;" transform="matrix(1 0 0 1 339 1126)">
   <path d="M0.993347 0L3.6377 0L29.3282-67.1326L30.0301-67.1326L30.0301-70.459L28.1227-70.459ZM11.6882-24.4797L46.9818-24.4797L46.2311-26.7288L12.4382-26.7288ZM55.1193 0L57.7637 0L30.6381-70.459L29.4327-70.459L29.4327-67.1326Z"/>
  </g>
  <line id="Baseline-M" style="fill:none;stroke:#27AAE1;opacity:1;stroke-width:0.5;" x1="263" x2="3036" y1="1126" y2="1126"/>
  <line id="Capline-M" style="fill:none;stroke:#27AAE1;opacity:1;stroke-width:0.5;" x1="263" x2="3036" y1="1055.54" y2="1055.54"/>
  <g id="H-reference" style="fill:#27AAE1;stroke:none;" transform="matrix(1 0 0 1 339 1556)">
   <path d="M0.993347 0L3.6377 0L29.3282-67.1326L30.0301-67.1326L30.0301-70.459L28.1227-70.459ZM11.6882-24.4797L46.9818-24.4797L46.2311-26.7288L12.4382-26.7288ZM55.1193 0L57.7637 0L30.6381-70.459L29.4327-70.459L29.4327-67.1326Z"/>
  </g>
  <line id="Baseline-L" style="fill:none;stroke:#27AAE1;opacity:1;stroke-width:0.5;" x1="263" x2="3036" y1="1556" y2="1556"/>
  <line id="Capline-L" style="fill:none;stroke:#27AAE1;opacity:1;stroke-width:0.5;" x1="263" x2="3036" y1="1485.54" y2="1485.54"/>
  <line id="left-margin" style="fill:none;stroke:#00AEEF;stroke-width:0.5;opacity:1.0;" x1="1390.13" x2="1390.13" y1="1030.79" y2="1150.12"/>
  <line id="right-margin" style="fill:none;stroke:#00AEEF;stroke-width:0.5;opacity:1.0;" x1="1509.56" x2="1509.56" y1="1030.79" y2="1150.12"/>
 </g>
 <g id="Symbols">
  <g id="Black-L" transform="matrix(1 0 0 1 2851.44 1556)">
   <path d="M76.3092 35.3845L87.6115 35.3845Q91.5463 35.3845 94.4337 33.1108Q97.321 30.8372 98.1772 27.0365L101.002 15.2028Q101.95 14.9123 102.797 14.5327Q103.644 14.1532 104.449 13.821L114.751 20.2052Q118.032 22.1755 121.694 21.7993Q125.356 21.423 128.078 18.7585L136.054 10.7826Q138.799 8.03764 139.147 4.27771Q139.495 0.517787 137.365-2.72642L131.118-12.9465Q131.471-13.6948 131.811-14.5024Q132.151-15.3099 132.421-16.1375L144.356-18.9835Q148.156-19.8188 150.409-22.7056Q152.662-25.5924 152.662-29.5491L152.662-40.6126Q152.662-44.5277 150.409-47.3853Q148.156-50.2428 144.356-51.1366L132.579-53.945Q132.289-54.835 131.928-55.6822Q131.567-56.5293 131.218-57.2152L137.523-67.7314Q139.632-71.0924 139.295-74.7737Q138.958-78.455 136.096-81.1403L127.962-89.1746Q125.218-91.6431 121.842-92.059Q118.465-92.4749 115.164-90.7213L104.449-84.1203Q103.665-84.5109 102.817-84.8612Q101.969-85.2116 101.061-85.5605L98.1772-97.5735Q97.321-101.374 94.4337-103.648Q91.5463-105.921 87.6115-105.921L76.3092-105.921Q72.3733-105.921 69.4865-103.648Q66.5997-101.374 65.7644-97.5151L62.9184-85.6606Q61.992-85.3701 61.1052-84.9905Q60.2184-84.6109 59.4117-84.1996L48.7763-90.7213Q41.7802-94.4464 35.8995-89.1162L27.8235-81.1403Q25.0202-78.455 24.6538-74.7737Q24.2873-71.0924 26.3965-67.7314L32.7014-57.2152Q32.3525-56.5293 32.0021-55.6822Q31.6518-54.835 31.3612-53.945L19.586-51.1366Q15.7853-50.2428 13.522-47.3853Q11.2588-44.5277 11.2588-40.6126L11.2588-29.5491Q11.2588-25.5924 13.522-22.7056Q15.7853-19.8188 19.586-18.9835L31.5197-16.1375Q31.7686-15.3099 32.1189-14.5024Q32.4693-13.6948 32.8015-12.9465L26.5549-2.72642Q24.4249 0.517787 24.783 4.27771Q25.1411 8.03764 27.8652 10.7826L35.8411 18.7585Q38.564 21.423 42.2551 21.7993Q45.9462 22.1755 49.1892 20.2052L59.4909 13.821Q60.2768 14.1532 61.1344 14.5327Q61.992 14.9123 62.9184 15.2028L65.7644 27.0365Q66.5997 30.8372 69.4865 33.1108Q72.3733 35.3845 76.3092 35.3845ZM81.9714-13.8408Q76.0907-13.8408 71.2361-16.7415Q66.3815-19.6422 63.4911-24.5254Q60.6008-29.4086 60.6008-35.2905Q60.6008-41.1504 63.4918-45.9642Q66.3827-50.778 71.2367-53.6787Q76.0907-56.5794 81.9714-56.5794Q87.8325-56.5794 92.6865-53.6787Q97.5405-50.778 100.431-45.9642Q103.321-41.1504 103.321-35.2905Q103.321-29.4086 100.431-24.5254Q97.5405-19.6422 92.6865-16.7415Q87.8325-13.8408 81.9714-13.8408Z"/>
  </g>
  <g id="Heavy-L" transform="matrix(1 0 0 1 2555.92 1556)">
   <path d="M75.0745 34.2172L86.4701 34.2172Q90.0598 34.2172 92.669 32.1527Q95.2782 30.0883 96.0698 26.6013L98.9876 14.3189Q100.139 13.9545 101.185 13.503Q102.231 13.0515 103.217 12.6267L113.925 19.2601Q116.915 21.0689 120.23 20.734Q123.545 20.3991 126.024 17.965L134.053 9.93614Q136.567 7.42167 136.883 4.02479Q137.198 0.627915 135.234-2.35332L128.72-12.9758Q129.175-13.9226 129.589-14.9314Q130.003-15.9401 130.337-16.9617L142.73-19.9097Q146.217-20.6711 148.252-23.2776Q150.286-25.884 150.286-29.5093L150.286-40.675Q150.286-44.24 148.252-46.8241Q146.217-49.4082 142.73-50.2143L130.487-53.1478Q130.123-54.2599 129.678-55.3061Q129.234-56.3523 128.825-57.2086L135.384-68.1Q137.317-71.1705 137.017-74.4954Q136.717-77.8203 134.113-80.2845L125.935-88.358Q123.426-90.628 120.365-91.0003Q117.304-91.3726 114.284-89.758L103.217-82.9304Q102.261-83.3998 101.212-83.829Q100.163-84.2582 99.0322-84.6672L96.0698-97.1295Q95.2782-100.616 92.669-102.681Q90.0598-104.745 86.4701-104.745L75.0745-104.745Q71.4793-104.745 68.8729-102.681Q66.2665-100.616 65.505-97.0849L62.5571-84.7722Q61.436-84.4078 60.3525-83.9563Q59.2689-83.5048 58.2775-83.0053L47.2855-89.758Q40.9114-93.1871 35.5599-88.3134L27.426-80.2845Q24.8669-77.8203 24.5442-74.4954Q24.2216-71.1705 26.1555-68.1L32.714-57.2086Q32.305-56.3523 31.8758-55.3061Q31.4466-54.2599 31.0822-53.1478L18.8444-50.2143Q15.3575-49.4082 13.3081-46.8241Q11.2588-44.24 11.2588-40.675L11.2588-29.5093Q11.2588-25.884 13.3081-23.2776Q15.3575-20.6711 18.8444-19.9097L31.2318-16.9617Q31.5358-15.9401 31.965-14.9314Q32.3942-13.9226 32.819-12.9758L26.3051-2.35332Q24.341 0.627915 24.6715 4.02479Q25.002 7.42167 27.4863 9.93614L35.5152 17.965Q37.9939 20.3991 41.3311 20.734Q44.6682 21.0689 47.6439 19.2601L58.3523 12.6267Q59.3135 13.0515 60.3748 13.503Q61.436 13.9545 62.5571 14.3189L65.505 26.6013Q66.2665 30.0883 68.8729 32.1527Q71.4793 34.2172 75.0745 34.2172ZM80.7903-13.6224Q74.8455-13.6224 69.9363-16.5573Q65.0271-19.4922 62.1073-24.4209Q59.1875-29.3496 59.1875-35.2998Q59.1875-41.2143 62.1101-46.0806Q65.0328-50.9468 69.9392-53.8817Q74.8455-56.8166 80.7903-56.8166Q86.7104-56.8166 91.6167-53.8817Q96.5231-50.9468 99.4429-46.0806Q102.363-41.2143 102.363-35.2998Q102.363-29.3496 99.4429-24.4209Q96.5231-19.4922 91.6167-16.5573Q86.7104-13.6224 80.7903-13.6224Z"/>
  </g>
  <g id="Bold-L" transform="matrix(1 0 0 1 2260.6 1556)">
   <path d="M73.6051 32.8471L85.1531 32.8471Q88.3648 32.8471 90.6655 31.014Q92.9662 29.1809 93.6883 26.0261L96.699 13.2873Q98.0516 12.8456 99.299 12.3244Q100.546 11.8031 101.718 11.2854L112.844 18.1815Q115.525 19.8203 118.454 19.5317Q121.384 19.243 123.6 17.0561L131.72 8.93578Q133.987 6.6684 134.268 3.6763Q134.549 0.684193 132.762-2.01893L125.962-13.0513Q126.518-14.2069 127.006-15.4206Q127.493-16.6344 127.897-17.857L140.754-20.9056Q143.909-21.5898 145.704-23.8839Q147.499-26.1781 147.499-29.4407L147.499-40.7742Q147.499-43.9609 145.704-46.2405Q143.909-48.52 140.754-49.2334L128.032-52.2909Q127.59-53.6274 127.064-54.8748Q126.539-56.1222 126.068-57.1636L132.897-68.4267Q134.645-71.1882 134.383-74.1198Q134.122-77.0514 131.796-79.2762L123.541-87.4257Q121.287-89.4872 118.57-89.8094Q115.852-90.1316 113.133-88.6563L101.718-81.5967Q100.584-82.1436 99.3303-82.6502Q98.0763-83.1569 96.7282-83.6278L93.6883-96.5391Q92.9662-99.6938 90.6655-101.527Q88.3648-103.36 85.1531-103.36L73.6051-103.36Q70.3803-103.36 68.0861-101.527Q65.792-99.6938 65.1078-96.5099L62.0592-83.733Q60.7445-83.2913 59.4636-82.77Q58.1826-82.2488 56.9981-81.664L45.6499-88.6563Q39.9474-91.7838 35.1746-87.3965L26.9491-79.2762Q24.6525-77.0514 24.3762-74.1198Q24.1-71.1882 25.8484-68.4267L32.6772-57.1636Q32.2063-56.1222 31.6996-54.8748Q31.193-53.6274 30.7513-52.2909L18.0417-49.2334Q14.8869-48.52 13.0729-46.2405Q11.2588-43.9609 11.2588-40.7742L11.2588-29.4407Q11.2588-26.1781 13.0729-23.8839Q14.8869-21.5898 18.0417-20.9056L30.8857-17.857Q31.2514-16.6344 31.758-15.4206Q32.2647-14.2069 32.7824-13.0513L25.9828-2.01893Q24.1963 0.684193 24.4959 3.6763Q24.7956 6.6684 27.0251 8.93578L35.1454 17.0561Q37.3615 19.243 40.3054 19.5317Q43.2492 19.8203 45.9392 18.1815L57.0652 11.2854Q58.2118 11.8031 59.4782 12.3244Q60.7445 12.8456 62.0592 13.2873L65.1078 26.0261Q65.792 29.1809 68.0861 31.014Q70.3803 32.8471 73.6051 32.8471ZM79.4048-13.346Q73.383-13.346 68.4047-16.3231Q63.4264-19.3002 60.4682-24.2866Q57.5101-29.2729 57.5101-35.3076Q57.5101-41.2913 60.4749-46.2228Q63.4398-51.1543 68.4114-54.1315Q73.383-57.1086 79.4048-57.1086Q85.4016-57.1086 90.3733-54.1315Q95.3449-51.1543 98.3031-46.2228Q101.261-41.2913 101.261-35.3076Q101.261-29.2729 98.3031-24.2866Q95.3449-19.3002 90.3733-16.3231Q85.4016-13.346 79.4048-13.346Z"/>
  </g>
  <g id="Semibold-L" transform="matrix(1 0 0 1 1964.85 1556)">
   <path d="M72.592 31.9026L84.2452 31.9026Q87.1963 31.9026 89.2843 30.229Q91.3724 28.5553 92.0465 25.6296L95.1212 12.5762Q96.6127 12.0812 97.9988 11.5118Q99.3849 10.9425 100.684 10.3608L112.098 17.4379Q114.566 18.9596 117.23 18.7028Q119.893 18.446 121.929 16.4294L130.112 8.24614Q132.209 6.1491 132.465 3.43605Q132.722 0.722991 131.058-1.7884L124.061-13.1034Q124.687-14.4029 125.225-15.7579Q125.763-17.113 126.215-18.4742L139.392-21.5922Q142.318-22.2231 143.948-24.3019Q145.578-26.3808 145.578-29.3935L145.578-40.8426Q145.578-43.7685 143.948-45.8381Q142.318-47.9077 139.392-48.5572L126.339-51.7001Q125.844-53.1913 125.262-54.5774Q124.68-55.9635 124.167-57.1327L131.182-68.652Q132.803-71.2005 132.568-73.8609Q132.333-76.5213 130.199-78.5812L121.891-86.783Q119.813-88.7007 117.332-88.9884Q114.851-89.276 112.34-87.8968L100.684-80.6772Q99.4281-81.2775 98.0328-81.8376Q96.6376-82.3977 95.1398-82.9112L92.0465-96.1321Q91.3724-99.0578 89.2843-100.731Q87.1963-102.405 84.2452-102.405L72.592-102.405Q69.6226-102.405 67.5437-100.731Q65.4648-99.0578 64.8339-96.1135L61.716-83.0165Q60.2678-82.5216 58.8508-81.9522Q57.4338-81.3828 56.1161-80.7393L44.5224-87.8968Q39.2829-90.8163 34.909-86.7645L26.6204-78.5812Q24.5048-76.5213 24.2604-73.8609Q24.0161-71.2005 25.6368-68.652L32.6518-57.1327Q32.1383-55.9635 31.5782-54.5774Q31.0181-53.1913 30.5231-51.7001L17.4883-48.5572Q14.5626-47.9077 12.9107-45.8381Q11.2588-43.7685 11.2588-40.8426L11.2588-29.3935Q11.2588-26.3808 12.9107-24.3019Q14.5626-22.2231 17.4883-21.5922L30.647-18.4742Q31.0553-17.113 31.6153-15.7579Q32.1754-14.4029 32.7571-13.1034L25.7606-1.7884Q24.0965 0.722991 24.3749 3.43605Q24.6533 6.1491 26.7071 8.24614L34.8904 16.4294Q36.9256 18.446 39.5983 18.7028Q42.271 18.9596 44.7641 17.4379L56.1779 10.3608Q57.4523 10.9425 58.8601 11.5118Q60.2678 12.0812 61.716 12.5762L64.8339 25.6296Q65.4648 28.5553 67.5437 30.229Q69.6226 31.9026 72.592 31.9026ZM78.4497-13.1554Q72.3748-13.1554 67.3489-16.1616Q62.3229-19.1679 59.3383-24.1939Q56.3537-29.22 56.3537-35.3129Q56.3537-41.3443 59.3476-46.3209Q62.3415-51.2974 67.3582-54.3037Q72.3748-57.3099 78.4497-57.3099Q84.4994-57.3099 89.516-54.3037Q94.5326-51.2974 97.5173-46.3209Q100.502-41.3443 100.502-35.3129Q100.502-29.22 97.5173-24.1939Q94.5326-19.1679 89.516-16.1616Q84.4994-13.1554 78.4497-13.1554Z"/>
  </g>
  <g id="Medium-L" transform="matrix(1 0 0 1 1668.87 1556)">
   <path d="M71.8239 31.1865L83.5568 31.1865Q86.3103 31.1865 88.2371 29.6337Q90.1639 28.081 90.8016 25.329L93.9249 12.0369Q95.5216 11.5016 97.0129 10.8957Q98.5042 10.2899 99.9006 9.65964L111.533 16.8741Q113.839 18.3069 116.301 18.0743Q118.763 17.8417 120.661 15.9543L128.892 7.72323Q130.86 5.75535 131.099 3.25388Q131.337 0.752409 129.766-1.6136L122.62-13.143Q123.298-14.5515 123.875-16.0137Q124.451-17.4759 124.94-18.9422L138.359-22.1127Q141.112-22.7032 142.617-24.6189Q144.122-26.5346 144.122-29.3576L144.122-40.8945Q144.122-43.6226 142.617-45.5331Q141.112-47.4435 138.359-48.0445L125.055-51.2522Q124.52-52.8606 123.896-54.3519Q123.271-55.8432 122.725-57.1092L129.882-68.8227Q131.406-71.2098 131.191-73.6646Q130.976-76.1194 128.987-78.0542L120.64-86.2957Q118.695-88.1044 116.393-88.3658Q114.092-88.6273 111.738-87.321L99.9006-79.98Q98.5515-80.6208 97.049-81.2214Q95.5466-81.822 93.9354-82.3679L90.8016-95.8235Q90.1639-98.5755 88.2371-100.128Q86.3103-101.681 83.5568-101.681L71.8239-101.681Q69.0481-101.681 67.1325-100.128Q65.2168-98.5755 64.6263-95.813L61.4557-82.4733Q59.9063-81.9379 58.3861-81.3321Q56.8659-80.7262 55.4473-80.0382L43.6674-87.321Q38.779-90.0828 34.7076-86.2852L26.3711-78.0542Q24.3927-76.1194 24.1726-73.6646Q23.9525-71.2098 25.4762-68.8227L32.6326-57.1092Q32.0867-55.8432 31.4861-54.3519Q30.8855-52.8606 30.3502-51.2522L17.0686-48.0445Q14.3166-47.4435 12.7877-45.5331Q11.2588-43.6226 11.2588-40.8945L11.2588-29.3576Q11.2588-26.5346 12.7877-24.6189Q14.3166-22.7032 17.0686-22.1127L30.4661-18.9422Q30.9066-17.4759 31.5071-16.0137Q32.1077-14.5515 32.738-13.143L25.5922-1.6136Q24.0208 0.752409 24.2831 3.25388Q24.5454 5.75535 26.466 7.72323L34.697 15.9543Q36.595 17.8417 39.0621 18.0743Q41.5293 18.3069 43.873 16.8741L55.5051 9.65964Q56.8765 10.2899 58.3914 10.8957Q59.9063 11.5016 61.4557 12.0369L64.6263 25.329Q65.2168 28.081 67.1325 29.6337Q69.0481 31.1865 71.8239 31.1865ZM77.7255-13.0109Q71.6103-13.0109 66.5483-16.0392Q61.4862-19.0675 58.4815-24.1237Q55.4768-29.1799 55.4768-35.317Q55.4768-41.3845 58.4928-46.3952Q61.5088-51.4059 66.5596-54.4342Q71.6103-57.4626 77.7255-57.4626Q83.8153-57.4626 88.866-54.4342Q93.9168-51.4059 96.9214-46.3952Q99.9261-41.3845 99.9261-35.317Q99.9261-29.1799 96.9214-24.1237Q93.9168-19.0675 88.866-16.0392Q83.8153-13.0109 77.7255-13.0109Z"/>
  </g>
  <g id="Regular-L" transform="matrix(1 0 0 1 1373.1 1556)">
   <path d="M70.822 30.2524L82.6588 30.2524Q85.1546 30.2524 86.8711 28.8573Q88.5875 27.4623 89.1779 24.9368L92.3645 11.3336Q94.0985 10.7455 95.727 10.0921Q97.3555 9.43873 98.8784 8.74512L110.795 16.1387Q112.891 17.4556 115.09 17.2545Q117.29 17.0535 119.009 15.3345L127.302 7.04116Q129.101 5.24176 129.316 3.01627Q129.531 0.79078 128.081-1.3856L120.74-13.1945Q121.487-14.7453 122.113-16.3473Q122.74-17.9492 123.276-19.5526L137.012-22.7918Q139.538-23.3296 140.88-25.0323Q142.222-26.7351 142.222-29.3108L142.222-40.9622Q142.222-43.4324 140.88-45.1351Q139.538-46.8379 137.012-47.3757L123.381-50.6679Q122.793-52.4293 122.113-54.0578Q121.434-55.6863 120.845-57.0785L128.186-69.0455Q129.584-71.2219 129.395-73.4085Q129.207-75.5952 127.407-77.3667L119.009-85.6601Q117.237-87.3265 115.169-87.5538Q113.102-87.7812 110.954-86.5698L98.8784-79.0707Q97.408-79.7643 95.7659-80.4177Q94.1237-81.0711 92.3645-81.6592L89.1779-95.4209Q88.5875-97.9464 86.8711-99.3412Q85.1546-100.736 82.6588-100.736L70.822-100.736Q68.2988-100.736 66.596-99.3412Q64.8933-97.9464 64.3554-95.4209L61.1163-81.7647Q59.4348-81.1766 57.7801-80.5232Q56.1253-79.8698 54.575-79.1237L42.5522-86.5698Q38.1218-89.1259 34.4449-85.6601L26.046-77.3667Q24.2466-75.5952 24.0581-73.4085Q23.8696-71.2219 25.2669-69.0455L32.6075-57.0785Q32.0194-55.6863 31.366-54.0578Q30.7126-52.4293 30.1245-50.6679L16.5213-47.3757Q13.9958-46.8379 12.6273-45.1351Q11.2588-43.4324 11.2588-40.9622L11.2588-29.3108Q11.2588-26.7351 12.6273-25.0323Q13.9958-23.3296 16.5213-22.7918L30.2301-19.5526Q30.7126-17.9492 31.366-16.3473Q32.0194-14.7453 32.713-13.1945L25.3724-1.3856Q23.9221 0.79078 24.1634 3.01627Q24.4046 5.24176 26.1515 7.04116L34.4449 15.3345Q36.1638 17.0535 38.3628 17.2545Q40.5618 17.4556 42.7108 16.1387L54.6275 8.74512Q56.1253 9.43873 57.7801 10.0921Q59.4348 10.7455 61.1163 11.3336L64.3554 24.9368Q64.8933 27.4623 66.596 28.8573Q68.2988 30.2524 70.822 30.2524ZM76.7808-12.8225Q70.6132-12.8225 65.504-15.8796Q60.3948-18.9367 57.364-24.0321Q54.3331-29.1276 54.3331-35.3222Q54.3331-41.4369 57.3779-46.4922Q60.4227-51.5475 65.5179-54.6046Q70.6132-57.6617 76.7808-57.6617Q82.9229-57.6617 88.0182-54.6046Q93.1134-51.5475 96.1443-46.4922Q99.1751-41.4369 99.1751-35.3222Q99.1751-29.1276 96.1443-24.0321Q93.1134-18.9367 88.0182-15.8796Q82.9229-12.8225 76.7808-12.8225Z"/>
  </g>
  <g id="Light-L" transform="matrix(1 0 0 1 1076.85 1556)">
   <path d="M70.1922 29.7945L82.3725 29.7945Q84.9257 29.7945 86.6612 28.3802Q88.3967 26.9659 89.006 24.3071L92.1163 11.0283Q93.6596 10.4784 95.1354 9.90134Q96.6113 9.32425 98.0197 8.70696L109.669 15.9861Q111.879 17.3793 114.098 17.1782Q116.316 16.9772 118.112 15.1819L126.634 6.65958Q128.51 4.78386 128.734 2.54875Q128.958 0.313644 127.451-1.97721L120.205-13.4997Q120.857-14.9553 121.417-16.4141Q121.977-17.8729 122.493-19.3618L135.886-22.5054Q138.546-23.0814 139.926-24.7938Q141.306-26.5062 141.306-29.139L141.306-41.1722Q141.306-43.7376 139.926-45.45Q138.546-47.1624 135.886-47.7384L122.561-50.9161Q122.011-52.5056 121.417-53.9815Q120.823-55.4573 120.273-56.8114L127.519-68.4347Q128.992-70.7255 128.785-72.9505Q128.577-75.1755 126.701-77.0041L118.112-85.5264Q116.282-87.2884 114.148-87.5061Q112.014-87.7238 109.77-86.3979L98.0197-79.0514Q96.6446-79.6687 95.1455-80.2458Q93.6465-80.8229 92.1163-81.3728L89.006-94.753Q88.3967-97.4119 86.6612-98.8258Q84.9257-100.24 82.3725-100.24L70.1922-100.24Q67.5927-100.24 65.8803-98.8258Q64.1679-97.4119 63.592-94.753L60.4484-81.4402Q58.9384-80.8903 57.4459-80.3132Q55.9534-79.7361 54.4986-79.0855L42.7812-86.3979Q38.1792-89.1641 34.4067-85.5264L25.817-77.0041Q23.9413-75.1755 23.7337-72.9505Q23.5262-70.7255 24.9998-68.4347L32.2448-56.8114Q31.6949-55.4573 31.1178-53.9815Q30.5407-52.5056 29.9908-50.9161L16.7121-47.7384Q14.0532-47.1624 12.656-45.45Q11.2588-43.7376 11.2588-41.1722L11.2588-29.139Q11.2588-26.5062 12.656-24.7938Q14.0532-23.0814 16.7121-22.5054L30.0582-19.3618Q30.5407-17.8729 31.1178-16.4141Q31.6949-14.9553 32.3122-13.4997L25.0672-1.97721Q23.5595 0.313644 23.8007 2.54875Q24.042 4.78386 25.8844 6.65958L34.4067 15.1819Q36.202 16.9772 38.4201 17.1782Q40.6381 17.3793 42.8827 15.9861L54.5319 8.70696Q55.9534 9.32425 57.4459 9.90134Q58.9384 10.4784 60.4484 11.0283L63.592 24.3071Q64.1679 26.9659 65.8803 28.3802Q67.5927 29.7945 70.1922 29.7945ZM76.3229-12.5935Q70.1168-12.5935 64.9504-15.6791Q59.7839-18.7648 56.715-23.908Q53.646-29.0513 53.646-35.303Q53.646-41.4751 56.7385-46.5781Q59.8311-51.6812 64.9739-54.7668Q70.1168-57.8524 76.3229-57.8524Q82.5413-57.8524 87.6842-54.7668Q92.8271-51.6812 95.8961-46.5781Q98.9651-41.4751 98.9651-35.303Q98.9651-29.0513 95.8961-23.908Q92.8271-18.7648 87.6842-15.6791Q82.5413-12.5935 76.3229-12.5935Z"/>
  </g>
  <g id="Thin-L" transform="matrix(1 0 0 1 780.746 1556)">
   <path d="M69.3593 29.1889L81.9938 29.1889Q84.6229 29.1889 86.3836 27.7491Q88.1444 26.3094 88.7787 23.4741L91.7881 10.6246Q93.079 10.1252 94.353 9.649Q95.6269 9.17285 96.884 8.65649L108.18 15.7842Q110.541 17.2783 112.785 17.0773Q115.029 16.8762 116.925 14.98L125.751 6.15491Q127.727 4.17825 127.964 1.93042Q128.201-0.317406 126.618-2.75967L119.498-13.9035Q120.024-15.2331 120.495-16.5026Q120.967-17.772 121.459-19.1095L134.396-22.1267Q137.233-22.7531 138.664-24.4782Q140.094-26.2033 140.094-28.9116L140.094-41.45Q140.094-44.1414 138.664-45.8665Q137.233-47.5916 134.396-48.218L121.476-51.2443Q120.976-52.6066 120.495-53.8805Q120.015-55.1545 119.515-56.4582L126.635-67.6268Q128.21-70.069 127.977-72.3447Q127.744-74.6203 125.767-76.5244L116.925-85.3495Q115.02-87.2379 112.798-87.4429Q110.575-87.6478 108.206-86.1706L96.884-79.026Q95.6348-79.5424 94.3251-80.0185Q93.0155-80.4947 91.7881-80.9941L88.7787-93.8696Q88.1444-96.7049 86.3836-98.144Q84.6229-99.5831 81.9938-99.5831L69.3593-99.5831Q66.6588-99.5831 64.9337-98.144Q63.2086-96.7049 62.5822-93.8696L59.565-81.011Q58.2819-80.5116 57.004-80.0354Q55.7261-79.5593 54.3977-79.0351L43.084-86.1706Q38.2551-89.2146 34.3562-85.3495L25.5142-76.5244Q23.5376-74.6203 23.3048-72.3447Q23.072-70.069 24.6465-67.6268L31.7652-56.4582Q31.2657-55.1545 30.7896-53.8805Q30.3134-52.6066 29.814-51.2443L16.9644-48.218Q14.1291-47.5916 12.694-45.8665Q11.2588-44.1414 11.2588-41.45L11.2588-28.9116Q11.2588-26.2033 12.694-24.4782Q14.1291-22.7531 16.9644-22.1267L29.8309-19.1095Q30.3134-17.772 30.7896-16.5026Q31.2657-15.2331 31.7821-13.9035L24.6634-2.75967Q23.0798-0.317406 23.3211 1.93042Q23.5623 4.17825 25.5311 6.15491L34.3562 14.98Q36.2525 16.8762 38.4958 17.0773Q40.7391 17.2783 43.11 15.7842L54.4056 8.65649Q55.7261 9.17285 57.004 9.649Q58.2819 10.1252 59.565 10.6246L62.5822 23.4741Q63.2086 26.3094 64.9337 27.7491Q66.6588 29.1889 69.3593 29.1889ZM75.7173-12.2907Q69.4603-12.2907 64.2182-15.4141Q58.976-18.5375 55.8566-23.7439Q52.7371-28.9504 52.7371-35.2776Q52.7371-41.5255 55.8929-46.6918Q59.0486-51.858 64.2545-54.9814Q69.4603-58.1048 75.7173-58.1048Q82.0367-58.1048 87.2425-54.9814Q92.4484-51.858 95.5678-46.6918Q98.6873-41.5255 98.6873-35.2776Q98.6873-28.9504 95.5678-23.7439Q92.4484-18.5375 87.2425-15.4141Q82.0367-12.2907 75.7173-12.2907Z"/>
  </g>
  <g id="Ultralight-L" transform="matrix(1 0 0 1 484.345 1556)">
   <path d="M68.9327 28.8787L81.7998 28.8787Q84.4678 28.8787 86.2415 27.4259Q88.0152 25.9732 88.6623 23.0475L91.62 10.4178Q92.7816 9.94421 93.9522 9.51976Q95.1228 9.09531 96.3023 8.63065L107.417 15.6808Q109.856 17.2266 112.113 17.0256Q114.37 16.8245 116.318 14.8766L125.298 5.89642Q127.326 3.86807 127.57 1.61372Q127.813-0.640627 126.192-3.16043L119.136-14.1103Q119.597-15.3754 120.024-16.5478Q120.45-17.7203 120.929-18.9802L133.634-21.9327Q136.561-22.585 138.017-24.3166Q139.474-26.0483 139.474-28.7952L139.474-41.5923Q139.474-44.3482 138.017-46.0798Q136.561-47.8114 133.634-48.4637L120.92-51.4124Q120.446-52.6583 120.024-53.8288Q119.601-54.9994 119.127-56.2772L126.183-67.213Q127.809-69.7328 127.563-72.0344Q127.318-74.336 125.289-76.2787L116.318-85.2589Q114.374-87.212 112.106-87.4105Q109.838-87.609 107.404-86.0542L96.3023-79.013Q95.1176-79.4776 93.9049-79.9021Q92.6923-80.3265 91.62-80.8001L88.6623-93.4172Q88.0152-96.3428 86.2415-97.7948Q84.4678-99.2469 81.7998-99.2469L68.9327-99.2469Q66.1805-99.2469 64.4489-97.7948Q62.7173-96.3428 62.065-93.4172L59.1125-80.7912Q57.9457-80.3176 56.7777-79.8931Q55.6097-79.4687 54.346-79.0092L43.2391-86.0542Q38.294-89.2404 34.3304-85.2589L25.3591-76.2787Q23.3308-74.336 23.085-72.0344Q22.8393-69.7328 24.4656-67.213L31.5195-56.2772Q31.0459-54.9994 30.6214-53.8288Q30.197-52.6583 29.7234-51.4124L17.0937-48.4637Q14.168-47.8114 12.7134-46.0798Q11.2588-44.3482 11.2588-41.5923L11.2588-28.7952Q11.2588-26.0483 12.7134-24.3166Q14.168-22.585 17.0937-21.9327L29.7145-18.9802Q30.197-17.7203 30.6214-16.5478Q31.0459-15.3754 31.5106-14.1103L24.4566-3.16043Q22.8341-0.640627 23.0754 1.61372Q23.3167 3.86807 25.3502 5.89642L34.3304 14.8766Q36.2783 16.8245 38.5345 17.0256Q40.7908 17.2266 43.2264 15.6808L54.3408 8.63065Q55.6097 9.09531 56.7777 9.51976Q57.9457 9.94421 59.1125 10.4178L62.065 23.0475Q62.7173 25.9732 64.4489 27.4259Q66.1805 28.8787 68.9327 28.8787ZM75.4072-12.1356Q69.124-12.1356 63.8431-15.2783Q58.5622-18.421 55.4169-23.6599Q52.2716-28.8987 52.2716-35.2645Q52.2716-41.5514 55.4597-46.75Q58.6478-51.9486 63.8859-55.0913Q69.124-58.234 75.4072-58.234Q81.7782-58.234 87.0163-55.0913Q92.2544-51.9486 95.3997-46.75Q98.545-41.5514 98.545-35.2645Q98.545-28.8987 95.3997-23.6599Q92.2544-18.421 87.0163-15.2783Q81.7782-12.1356 75.4072-12.1356Z"/>
  </g>
  <g id="Black-M" transform="matrix(1 0 0 1 2868.94 1126)">
   <path d="M60.0957 20.4193L68.8185 20.4193Q72.1713 20.4193 74.6499 18.4754Q77.1285 16.5315 77.8498 13.2993L79.9487 4.56081Q80.4814 4.40438 80.946 4.18248Q81.4106 3.96058 81.8643 3.79318L89.4596 8.50959Q92.2664 10.1853 95.4043 9.85823Q98.5422 9.53118 100.872 7.25848L107.037 1.09371Q109.372-1.24129 109.67-4.46758Q109.969-7.69387 108.168-10.4488L103.571-17.9821Q103.744-18.3784 103.935-18.8117Q104.125-19.245 104.276-19.7039L113.083-21.8083Q116.315-22.5241 118.253-25.0028Q120.192-27.4816 120.192-30.8396L120.192-39.3748Q120.192-42.7219 118.253-45.1721Q116.315-47.6222 113.083-48.3952L104.401-50.4479Q104.245-50.9232 104.049-51.3879Q103.853-51.8525 103.639-52.2323L108.293-60.0105Q110.088-62.8796 109.793-66.0432Q109.497-69.2067 107.048-71.4849L100.758-77.7068Q98.4226-79.8027 95.5268-80.161Q92.631-80.5194 89.8187-79.026L81.8643-74.1273Q81.4161-74.3518 80.9516-74.5451Q80.4872-74.7385 80.0058-74.952L77.8498-83.8211Q77.1285-87.0534 74.6499-88.9973Q72.1713-90.9412 68.8185-90.9412L60.0957-90.9412Q56.7432-90.9412 54.2645-88.9973Q51.7858-87.0534 51.0699-83.764L48.9656-75.0201Q48.4384-74.8637 47.9424-74.6418Q47.4465-74.4199 46.9931-74.1899L39.1014-79.026Q33.1234-82.1948 28.0996-77.6497L21.8667-71.4849Q19.4746-69.2067 19.1505-66.0432Q18.8263-62.8796 20.6214-60.0105L25.2752-52.2323Q25.0617-51.8525 24.8684-51.3879Q24.675-50.9232 24.5186-50.4479L15.8372-48.3952Q12.6049-47.6222 10.6638-45.1721Q8.72266-42.7219 8.72266-39.3748L8.72266-30.8396Q8.72266-27.4816 10.6638-25.0028Q12.6049-22.5241 15.8372-21.8083L24.6438-19.7039Q24.7892-19.245 24.9826-18.8117Q25.1759-18.3784 25.3433-17.9821L20.7466-10.4488Q18.946-7.69387 19.2471-4.46758Q19.5482-1.24129 21.8777 1.09371L28.0425 7.25848Q30.3723 9.53118 33.5387 9.85823Q36.7052 10.1853 39.4604 8.50959L47.0557 3.79318Q47.5036 3.96058 47.971 4.18248Q48.4384 4.40438 48.9656 4.56081L51.0699 13.2993Q51.7858 16.5315 54.2645 18.4754Q56.7432 20.4193 60.0957 20.4193ZM64.4597-18.8154Q59.9535-18.8154 56.2316-21.0372Q52.5097-23.259 50.2906-27.0096Q48.0716-30.7602 48.0716-35.2661Q48.0716-39.7668 50.2905-43.4577Q52.5094-47.1486 56.2315-49.3704Q59.9535-51.5923 64.4597-51.5923Q68.9602-51.5923 72.6822-49.3704Q76.4042-47.1486 78.6233-43.4577Q80.8424-39.7668 80.8424-35.2661Q80.8424-30.7602 78.6233-27.0096Q76.4042-23.259 72.6822-21.0372Q68.9602-18.8154 64.4597-18.8154Z"/>
  </g>
  <g id="Heavy-M" transform="matrix(1 0 0 1 2573.35 1126)">
   <path d="M58.9469 19.3204L67.7291 19.3204Q70.7393 19.3204 72.9442 17.5828Q75.1491 15.8452 75.8056 12.9319L78.002 3.7249Q78.7517 3.49274 79.425 3.19348Q80.0982 2.89422 80.7387 2.62924L88.7563 7.59981Q91.2685 9.11055 94.0654 8.82392Q96.8623 8.5373 98.9463 6.49692L105.142 0.301482Q107.244-1.8012 107.51-4.6717Q107.776-7.54219 106.143-10.0295L101.276-17.9826Q101.558-18.5817 101.827-19.2249Q102.096-19.8681 102.312-20.5273L111.598-22.7401Q114.511-23.3802 116.232-25.584Q117.953-27.7877 117.953-30.8165L117.953-39.4165Q117.953-42.4124 116.232-44.5944Q114.511-46.7764 111.598-47.4601L102.432-49.6457Q102.2-50.3541 101.914-51.0273Q101.628-51.7006 101.353-52.2504L106.263-60.4272Q107.88-63.0017 107.622-65.8134Q107.364-68.625 105.175-70.6817L98.859-76.9208Q96.7586-78.8139 94.1772-79.1305Q91.5959-79.4472 89.0673-78.1001L80.7387-72.9659Q80.1146-73.2745 79.4402-73.5519Q78.7658-73.8294 78.0456-74.1052L75.8056-83.4487Q75.1491-86.362 72.9442-88.0995Q70.7393-89.8371 67.7291-89.8371L58.9469-89.8371Q55.9345-89.8371 53.7307-88.0995Q51.5269-86.362 50.8868-83.4051L48.674-74.1816Q47.9407-73.9494 47.2374-73.6502Q46.5341-73.3509 45.8914-73.0259L37.6229-78.1001Q32.2687-80.9602 27.7711-76.8772L21.4992-70.6817Q19.3529-68.625 19.0733-65.8134Q18.7938-63.0017 20.4105-60.4272L25.321-52.2504Q25.0452-51.7006 24.7677-51.0273Q24.4903-50.3541 24.2581-49.6457L15.0947-47.4601Q12.1814-46.7764 10.452-44.5944Q8.72266-42.4124 8.72266-39.4165L8.72266-30.8165Q8.72266-27.7877 10.452-25.584Q12.1814-23.3802 15.0947-22.7401L24.3782-20.5273Q24.5775-19.8681 24.855-19.2249Q25.1324-18.5817 25.3974-17.9826L20.5305-10.0295Q18.8974-7.54219 19.1716-4.6717Q19.4457-1.8012 21.532 0.301482L27.7275 6.49692Q29.8115 8.5373 32.6301 8.82392Q35.4488 9.11055 37.9338 7.59981L45.9515 2.62924Q46.5778 2.89422 47.2592 3.19348Q47.9407 3.49274 48.674 3.7249L50.8868 12.9319Q51.5269 15.8452 53.7307 17.5828Q55.9345 19.3204 58.9469 19.3204ZM63.3473-18.623Q58.7821-18.623 55.0121-20.8756Q51.2421-23.1282 48.9977-26.9189Q46.7533-30.7096 46.7533-35.277Q46.7533-39.8259 48.9989-43.5636Q51.2444-47.3013 55.0132-49.5539Q58.7821-51.8065 63.3473-51.8065Q67.8984-51.8065 71.6673-49.5539Q75.4361-47.3013 77.6805-43.5636Q79.9249-39.8259 79.9249-35.277Q79.9249-30.7096 77.6805-26.9189Q75.4361-23.1282 71.6673-20.8756Q67.8984-18.623 63.3473-18.623Z"/>
  </g>
  <g id="Bold-M" transform="matrix(1 0 0 1 2277.89 1126)">
   <path d="M57.6617 18.0911L66.5105 18.0911Q69.1373 18.0911 71.0361 16.5843Q72.9348 15.0774 73.5188 12.521L75.8244 2.78982Q76.8168 2.47294 77.7234 2.08714Q78.6301 1.70134 79.4795 1.3272L87.9695 6.58209Q90.1522 7.90831 92.5676 7.66691Q94.983 7.4255 96.792 5.64501L103.022-0.584742Q104.865-2.42754 105.094-4.90003Q105.324-7.37252 103.878-9.56045L98.709-17.9831Q99.1118-18.8091 99.469-19.6871Q99.8262-20.5651 100.115-21.4483L109.937-23.7824Q112.493-24.3378 113.971-26.2341Q115.449-28.1303 115.449-30.7908L115.449-39.463Q115.449-42.0663 113.971-43.9482Q112.493-45.8302 109.937-46.4141L100.229-48.7484Q99.912-49.7173 99.5261-50.624Q99.1403-51.5306 98.7948-52.2707L103.993-60.8934Q105.41-63.1384 105.194-65.5563Q104.979-67.9742 103.079-69.7833L96.7349-76.0416Q94.8972-77.7078 92.6676-77.9778Q90.438-78.2478 88.2267-77.0644L79.4795-71.6667Q78.6587-72.0693 77.7495-72.4409Q76.8403-72.8124 75.8529-73.1578L73.5188-83.032Q72.9348-85.5885 71.0361-87.0953Q69.1373-88.6021 66.5105-88.6021L57.6617-88.6021Q55.0298-88.6021 53.1335-87.0953Q51.2373-85.5885 50.6819-83.0035L48.3478-73.2436Q47.3839-72.9267 46.4487-72.5409Q45.5135-72.1551 44.6591-71.7239L35.9689-77.0644Q31.3126-79.5792 27.4036-76.013L21.0881-69.7833Q19.2167-67.9742 18.9871-65.5563Q18.7574-63.1384 20.1745-60.8934L25.3721-52.2707Q25.0267-51.5306 24.6552-50.624Q24.2836-49.7173 23.9668-48.7484L14.2641-46.4141Q11.7077-45.8302 10.2152-43.9482Q8.72266-42.0663 8.72266-39.463L8.72266-30.7908Q8.72266-28.1303 10.2152-26.2341Q11.7077-24.3378 14.2641-23.7824L24.0811-21.4483Q24.3407-20.5651 24.7123-19.6871Q25.0838-18.8091 25.4579-17.9831L20.2888-9.56045Q18.8431-7.37252 19.0871-4.90003Q19.3311-2.42754 21.1453-0.584742L27.3751 5.64501Q29.1841 7.4255 31.6137 7.66691Q34.0433 7.90831 36.2261 6.58209L44.7162 1.3272Q45.5421 1.70134 46.463 2.08714Q47.3839 2.47294 48.3478 2.78982L50.6819 12.521Q51.2373 15.0774 53.1335 16.5843Q55.0298 18.0911 57.6617 18.0911ZM62.103-18.4078Q57.4717-18.4078 53.6479-20.6949Q49.8241-22.9819 47.5514-26.8174Q45.2787-30.6529 45.2787-35.2892Q45.2787-39.8919 47.554-43.682Q49.8293-47.4721 53.6505-49.7591Q57.4717-52.0461 62.103-52.0461Q66.7107-52.0461 70.5319-49.7591Q74.3531-47.4721 76.6259-43.682Q78.8986-39.8919 78.8986-35.2892Q78.8986-30.6529 76.6259-26.8174Q74.3531-22.9819 70.5319-20.6949Q66.7107-18.4078 62.103-18.4078Z"/>
  </g>
  <g id="Semibold-M" transform="matrix(1 0 0 1 1982.04 1126)">
   <path d="M56.7757 17.2437L65.6703 17.2437Q68.0329 17.2437 69.7206 15.8959Q71.4084 14.5481 71.9423 12.2377L74.3231 2.14518Q75.4829 1.76989 76.5504 1.32443Q77.6179 0.878968 78.6114 0.429588L87.4271 5.88048Q89.3826 7.0795 91.535 6.86926Q93.6874 6.65903 95.3069 5.05771L101.56-1.1957Q103.224-2.85933 103.429-5.05744Q103.633-7.25555 102.317-9.23708L96.9392-17.9835Q97.4257-18.9659 97.8435-20.0058Q98.2614-21.0457 98.5997-22.0832L108.792-24.5011Q111.102-24.998 112.413-26.6822Q113.723-28.3664 113.723-30.773L113.723-39.4951Q113.723-41.8276 112.413-43.5027Q111.102-45.1778 108.792-45.693L98.7101-48.1297Q98.3348-49.2784 97.8798-50.3459Q97.4249-51.4134 97.0315-52.2847L102.427-61.2147Q103.707-63.2326 103.521-65.3791Q103.334-67.5256 101.634-69.1639L95.2706-75.4354Q93.614-76.9453 91.6269-77.1831Q89.6397-77.4209 87.6472-76.3505L78.6114-70.771Q77.6549-71.2385 76.5839-71.6749Q75.5128-72.1113 74.3413-72.5048L71.9423-82.7448Q71.4084-85.0552 69.7206-86.4029Q68.0329-87.7507 65.6703-87.7507L56.7757-87.7507Q54.4061-87.7507 52.7219-86.4029Q51.0377-85.0552 50.5407-82.7267L48.1229-72.597Q47.0001-72.2217 45.905-71.7763Q44.8099-71.3308 43.8095-70.8263L34.8287-76.3505Q30.6535-78.6271 27.1503-75.4173L20.8046-69.1639Q19.1228-67.5256 18.9276-65.3791Q18.7323-63.2326 20.0118-61.2147L25.4074-52.2847Q25.014-51.4134 24.5776-50.3459Q24.1412-49.2784 23.7659-48.1297L13.6915-45.693Q11.3811-45.1778 10.0519-43.5027Q8.72266-41.8276 8.72266-39.4951L8.72266-30.773Q8.72266-28.3664 10.0519-26.6822Q11.3811-24.998 13.6915-24.5011L23.8763-22.0832Q24.1775-21.0457 24.6139-20.0058Q25.0503-18.9659 25.4997-17.9835L20.1222-9.23708Q18.8056-7.25555 19.0288-5.05744Q19.2521-2.85933 20.8787-1.1957L27.1321 5.05771Q28.7516 6.65903 30.913 6.86926Q33.0744 7.0795 35.0489 5.88048L43.8646 0.429588Q44.8281 0.878968 45.9141 1.32443Q47.0001 1.76989 48.1229 2.14518L50.5407 12.2377Q51.0377 14.5481 52.7219 15.8959Q54.4061 17.2437 56.7757 17.2437ZM61.2451-18.2595Q56.5683-18.2595 52.7074-20.5702Q48.8465-22.881 46.5543-26.7474Q44.262-30.6138 44.262-35.2976Q44.262-39.9374 46.5579-43.7636Q48.8537-47.5898 52.711-49.9005Q56.5683-52.2113 61.2451-52.2113Q65.8919-52.2113 69.7492-49.9005Q73.6065-47.5898 75.8988-43.7636Q78.191-39.9374 78.191-35.2976Q78.191-30.6138 75.8988-26.7474Q73.6065-22.881 69.7492-20.5702Q65.8919-18.2595 61.2451-18.2595Z"/>
  </g>
  <g id="Medium-M" transform="matrix(1 0 0 1 1685.99 1126)">
   <path d="M56.1039 16.6011L65.0333 16.6011Q67.1955 16.6011 68.7232 15.374Q70.2509 14.1468 70.747 12.0229L73.1848 1.65639Q74.4715 1.23681 75.661 0.746115Q76.8505 0.255415 77.9532-0.25102L87.0158 5.34848Q88.7991 6.45105 90.7521 6.26446Q92.705 6.07787 94.1808 4.61239L100.452-1.65895Q101.98-3.18674 102.166-5.1768Q102.351-7.16686 101.133-8.99189L95.5973-17.9837Q96.1472-19.0848 96.611-20.2474Q97.0748-21.41 97.451-22.5647L107.923-25.0459Q110.047-25.4986 111.231-27.022Q112.415-28.5455 112.415-30.7596L112.415-39.5194Q112.415-41.6467 111.231-43.165Q110.047-44.6832 107.923-45.1462L97.5584-47.6607Q97.1389-48.9456 96.6316-50.1351Q96.1242-51.3246 95.6944-52.2953L101.24-61.4584Q102.415-63.304 102.251-65.2447Q102.087-67.1854 100.539-68.6942L94.1602-74.9758Q92.641-76.3671 90.8377-76.5805Q89.0345-76.794 87.2078-75.8091L77.9532-70.0919Q76.8939-70.6086 75.7001-71.0942Q74.5063-71.5797 73.1951-72.0096L70.747-82.527Q70.2509-84.6509 68.7232-85.878Q67.1955-87.1051 65.0333-87.1051L56.1039-87.1051Q53.9331-87.1051 52.4097-85.878Q50.8863-84.6509 50.4336-82.5167L47.9524-72.1067Q46.7091-71.6871 45.4928-71.1964Q44.2764-70.7057 43.1653-70.1457L33.9642-75.8091Q30.1537-77.9052 26.9582-74.9656L20.5897-68.6942Q19.0516-67.1854 18.8825-65.2447Q18.7133-63.304 19.8884-61.4584L25.4342-52.2953Q25.0043-51.3246 24.5187-50.1351Q24.0332-48.9456 23.6136-47.6607L13.2573-45.1462Q11.1335-44.6832 9.92805-43.165Q8.72266-41.6467 8.72266-39.5194L8.72266-30.7596Q8.72266-28.5455 9.92805-27.022Q11.1335-25.4986 13.2573-25.0459L23.721-22.5647Q24.0537-21.41 24.5393-20.2474Q25.0249-19.0848 25.5313-17.9837L19.9958-8.99189Q18.7772-7.16686 18.9847-5.1768Q19.1921-3.18674 20.6766-1.65895L26.9479 4.61239Q28.4236 6.07787 30.3817 6.26446Q32.3397 6.45105 34.1562 5.34848L43.2189-0.25102Q44.2867 0.255415 45.4979 0.746115Q46.7091 1.23681 47.9524 1.65639L50.4336 12.0229Q50.8863 14.1468 52.4097 15.374Q53.9331 16.6011 56.1039 16.6011ZM60.5947-18.147Q55.8833-18.147 51.9943-20.4757Q48.1053-22.8045 45.7982-26.6944Q43.4912-30.5842 43.4912-35.304Q43.4912-39.9719 45.8026-43.8255Q48.114-47.6791 51.9986-50.0078Q55.8833-52.3365 60.5947-52.3365Q65.2711-52.3365 69.1558-50.0078Q73.0404-47.6791 75.3475-43.8255Q77.6546-39.9719 77.6546-35.304Q77.6546-30.5842 75.3475-26.6944Q73.0404-22.8045 69.1558-20.4757Q65.2711-18.147 60.5947-18.147Z"/>
  </g>
  <g id="Regular-M" transform="matrix(1 0 0 1 1390.13 1126)">
   <path d="M55.2276 15.763L64.2024 15.763Q66.1033 15.763 67.4223 14.6932Q68.7412 13.6233 69.1878 11.7428L71.7001 1.01884Q73.1522 0.541494 74.5009-0.00821013Q75.8495-0.557914 77.0946-1.13877L86.4794 4.65458Q88.038 5.63134 89.7308 5.47558Q91.4237 5.31982 92.712 4.03154L99.0067-2.2632Q100.357-3.61379 100.518-5.33248Q100.679-7.05118 99.5886-8.67208L93.8469-17.9841Q94.4796-19.2398 95.0034-20.5625Q95.5271-21.8853 95.9528-23.1927L106.791-25.7566Q108.671-26.1516 109.689-27.4653Q110.707-28.779 110.707-30.742L110.707-39.5512Q110.707-41.4107 109.689-42.7244Q108.671-44.0381 106.791-44.433L96.0563-47.0488Q95.579-48.5114 95.0034-49.8601Q94.4277-51.2087 93.9504-52.3091L99.6921-61.7763Q100.731-63.3972 100.596-65.0694Q100.461-66.7417 99.1102-68.0816L92.712-74.3764Q91.3719-75.613 89.8084-75.7946Q88.245-75.9762 86.6347-75.1029L77.0946-69.2061Q75.9012-69.7869 74.5473-70.3366Q73.1934-70.8863 71.7001-71.3637L69.1878-82.243Q68.7412-84.1235 67.4223-85.1933Q66.1033-86.263 64.2024-86.263L55.2276-86.263Q53.3163-86.263 52.0026-85.1933Q50.6889-84.1235 50.2939-82.243L47.73-71.4672Q46.3295-70.9898 44.955-70.4401Q43.5806-69.8904 42.325-69.2579L32.8365-75.1029Q29.5018-76.9636 26.7076-74.3764L20.3094-68.0816Q18.9588-66.7417 18.8236-65.0694Q18.6885-63.3972 19.7275-61.7763L25.469-52.3091Q24.9917-51.2087 24.442-49.8601Q23.8923-48.5114 23.4149-47.0488L12.691-44.433Q10.8104-44.0381 9.76655-42.7244Q8.72266-41.4107 8.72266-39.5512L8.72266-30.742Q8.72266-28.779 9.76655-27.4653Q10.8104-26.1516 12.691-25.7566L23.5185-23.1927Q23.8923-21.8853 24.442-20.5625Q24.9917-19.2398 25.5726-17.9841L19.831-8.67208Q18.7401-7.05118 18.927-5.33248Q19.114-3.61379 20.4129-2.2632L26.7076 4.03154Q27.9959 5.31982 29.6887 5.47558Q31.3814 5.63134 32.9919 4.65458L42.3767-1.13877Q43.5806-0.557914 44.955-0.00821013Q46.3295 0.541494 47.73 1.01884L50.2939 11.7428Q50.6889 13.6233 52.0026 14.6932Q53.3163 15.763 55.2276 15.763ZM59.7463-18.0003Q54.9898-18.0003 51.0642-20.3525Q47.1385-22.7047 44.8121-26.6251Q42.4857-30.5456 42.4857-35.3123Q42.4857-40.0169 44.8174-43.9062Q47.1491-47.7955 51.0695-50.1477Q54.9898-52.4999 59.7463-52.4999Q64.4613-52.4999 68.3817-50.1477Q72.302-47.7955 74.6284-43.9062Q76.9548-40.0169 76.9548-35.3123Q76.9548-30.5456 74.6284-26.6251Q72.302-22.7047 68.3817-20.3525Q64.4613-18.0003 59.7463-18.0003Z"/>
  </g>
  <g id="Light-M" transform="matrix(1 0 0 1 1093.83 1126)">
   <path d="M54.663 15.3524L63.9457 15.3524Q65.898 15.3524 67.2341 14.2654Q68.5702 13.1783 69.0337 11.1781L71.4776 0.745151Q72.7587 0.30202 73.9705-0.179263Q75.1822-0.660546 76.3247-1.17298L85.4697 4.51774Q87.131 5.56292 88.8411 5.40716Q90.5512 5.2514 91.9079 3.89469L98.4079-2.6053Q99.8269-4.02431 99.9964-5.75164Q100.166-7.47896 99.0239-9.20249L93.3676-18.2578Q93.915-19.4281 94.3788-20.6225Q94.8426-21.8168 95.2514-23.0216L105.781-25.4999Q107.782-25.929 108.834-27.2514Q109.886-28.5737 109.886-30.5879L109.886-39.7395Q109.886-41.6843 108.834-43.0067Q107.782-44.329 105.781-44.7582L95.3207-47.2713Q94.8775-48.5798 94.3788-49.7916Q93.8801-51.0034 93.4369-52.0696L99.0932-61.2286Q100.201-62.9521 100.048-64.6588Q99.8962-66.3654 98.4772-67.7565L91.9079-74.2565Q90.5163-75.5788 88.8929-75.7517Q87.2696-75.9247 85.5739-74.9488L76.3247-69.1888Q75.2167-69.7012 73.9912-70.1825Q72.7657-70.6638 71.4776-71.1069L69.0337-81.6441Q68.5702-83.6443 67.2341-84.7311Q65.898-85.818 63.9457-85.818L54.663-85.818Q52.6833-85.818 51.3609-84.7311Q50.0386-83.6443 49.6094-81.6441L47.1311-71.1763Q45.8845-70.7331 44.6555-70.2518Q43.4265-69.7706 42.2566-69.2237L33.0418-74.9488Q29.5533-76.9978 26.6734-74.2565L20.1041-67.7565Q18.6851-66.3654 18.5328-64.6588Q18.3806-62.9521 19.4881-61.2286L25.1439-52.0696Q24.7008-51.0034 24.2195-49.7916Q23.7382-48.5798 23.2951-47.2713L12.8621-44.7582Q10.8619-44.329 9.79228-43.0067Q8.72266-41.6843 8.72266-39.7395L8.72266-30.5879Q8.72266-28.5737 9.79228-27.2514Q10.8619-25.929 12.8621-25.4999L23.3644-23.0216Q23.7382-21.8168 24.2195-20.6225Q24.7008-19.4281 25.2132-18.2578L19.5574-9.20249Q18.415-7.47896 18.6019-5.75164Q18.7888-4.02431 20.1734-2.6053L26.6734 3.89469Q28.0301 5.2514 29.74 5.40716Q31.4499 5.56292 33.146 4.51774L42.291-1.17298Q43.4265-0.660546 44.6555-0.179263Q45.8845 0.30202 47.1311 0.745151L49.6094 11.1781Q50.0386 13.1783 51.3609 14.2654Q52.6833 15.3524 54.663 15.3524ZM59.3357-17.795Q54.5448-17.795 50.5678-20.1728Q46.5908-22.5506 44.2302-26.5139Q41.8697-30.4772 41.8697-35.2951Q41.8697-40.0511 44.2442-43.9832Q46.6187-47.9154 50.5818-50.2932Q54.5448-52.671 59.3357-52.671Q64.1192-52.671 68.0823-50.2932Q72.0453-47.9154 74.4059-43.9832Q76.7665-40.0511 76.7665-35.2951Q76.7665-30.4772 74.4059-26.5139Q72.0453-22.5506 68.0823-20.1728Q64.1192-17.795 59.3357-17.795Z"/>
  </g>
  <g id="Thin-M" transform="matrix(1 0 0 1 797.661 1126)">
   <path d="M53.9162 14.8095L63.6062 14.8095Q65.6266 14.8095 66.9852 13.6996Q68.3439 12.5897 68.8299 10.4314L71.1833 0.383181Q72.2381-0.0147048 73.2689-0.405495Q74.2997-0.796285 75.3065-1.21823L84.1344 4.33676Q85.9314 5.47243 87.6643 5.31667Q89.3972 5.16091 90.8444 3.71371L97.6159-3.05777Q99.1254-4.56727 99.3061-6.306Q99.4868-8.04473 98.2772-9.904L92.7338-18.6197Q93.1682-19.6772 93.5528-20.7018Q93.9373-21.7263 94.3236-22.7954L104.446-25.1604Q106.605-25.6348 107.702-26.9685Q108.8-28.3023 108.8-30.3841L108.8-39.9885Q108.8-42.0463 107.702-43.3801Q106.605-44.7138 104.446-45.1882L94.3477-47.5656Q93.9498-48.6703 93.5528-49.7011Q93.1558-50.7319 92.7579-51.7529L98.3012-60.5043Q99.4992-62.3636 99.3243-64.1156Q99.1495-65.8677 97.6399-67.3265L90.8444-74.0979Q89.3848-75.5335 87.6821-75.6951Q85.9795-75.8567 84.1709-74.745L75.3065-69.166Q74.3114-69.5879 73.2556-69.9787Q72.1999-70.3695 71.1833-70.7674L68.8299-80.8521Q68.3439-83.0105 66.9852-84.1199Q65.6266-85.2294 63.6062-85.2294L53.9162-85.2294Q51.846-85.2294 50.5123-84.1199Q49.1785-83.0105 48.7041-80.8521L46.3391-70.7915Q45.2959-70.3936 44.2593-70.0028Q43.2227-69.612 42.1661-69.1785L33.3133-74.745Q29.6214-77.043 26.6282-74.0979L19.8326-67.3265Q18.3231-65.8677 18.1482-64.1156Q17.9734-62.3636 19.1713-60.5043L24.7139-51.7529Q24.316-50.7319 23.9252-49.7011Q23.5344-48.6703 23.1365-47.5656L13.0883-45.1882Q10.93-44.7138 9.82631-43.3801Q8.72266-42.0463 8.72266-39.9885L8.72266-30.3841Q8.72266-28.3023 9.82631-26.9685Q10.93-25.6348 13.0883-25.1604L23.1606-22.7954Q23.5344-21.7263 23.9252-20.7018Q24.316-19.6772 24.7379-18.6197L19.1954-9.904Q17.985-8.04473 18.1719-6.306Q18.3588-4.56727 19.8567-3.05777L26.6282 3.71371Q28.0754 5.16091 29.8079 5.31667Q31.5404 5.47243 33.3498 4.33676L42.1777-1.21823Q43.2227-0.796285 44.2593-0.405495Q45.2959-0.0147048 46.3391 0.383181L48.7041 10.4314Q49.1785 12.5897 50.5123 13.6996Q51.846 14.8095 53.9162 14.8095ZM58.7928-17.5235Q53.9562-17.5235 49.9114-19.9352Q45.8665-22.3468 43.4607-26.3667Q41.0548-30.3867 41.0548-35.2723Q41.0548-40.0964 43.486-44.0851Q45.9172-48.0739 49.9367-50.4856Q53.9562-52.8972 58.7928-52.8972Q63.6667-52.8972 67.6863-50.4856Q71.7058-48.0739 74.1116-44.0851Q76.5174-40.0964 76.5174-35.2723Q76.5174-30.3867 74.1116-26.3667Q71.7058-22.3468 67.6863-19.9352Q63.6667-17.5235 58.7928-17.5235Z"/>
  </g>
  <g id="Ultralight-M" transform="matrix(1 0 0 1 501.228 1126)">
   <path d="M53.5338 14.5314L63.4323 14.5314Q65.4875 14.5314 66.8578 13.4098Q68.228 12.2883 68.7255 10.0489L71.0326 0.197781Q71.9715-0.176929 72.9096-0.52137Q73.8477-0.86581 74.785-1.2414L83.4504 4.24406Q85.3169 5.42608 87.0615 5.27032Q88.8062 5.11456 90.2997 3.62101L97.2102-3.28952Q98.7661-4.84537 98.9525-6.58994Q99.139-8.33451 97.8947-10.2633L92.4092-18.8051Q92.7857-19.8047 93.1297-20.7424Q93.4736-21.68 93.8484-22.6795L103.762-24.9865Q106.002-25.484 107.123-26.8236Q108.243-28.1632 108.243-30.2797L108.243-40.1161Q108.243-42.2317 107.123-43.5713Q106.002-44.9109 103.762-45.4084L93.8493-47.7164Q93.4746-48.7167 93.1297-49.6548Q92.7848-50.5929 92.41-51.5906L97.8956-60.1333Q99.1399-62.0621 98.9534-63.8374Q98.767-65.6127 97.2111-67.1062L90.2997-74.0167Q88.8052-75.5104 87.0619-75.6661Q85.3187-75.8218 83.4523-74.6407L74.785-69.1543Q73.8477-69.5299 72.8789-69.8743Q71.9101-70.2188 71.0326-70.5935L68.7255-80.4465Q68.228-82.6858 66.8578-83.8069Q65.4875-84.9279 63.4323-84.9279L53.5338-84.9279Q51.4172-84.9279 50.0776-83.8069Q48.738-82.6858 48.2404-80.4465L45.9335-70.5944Q44.9944-70.2197 44.0564-69.8752Q43.1183-69.5308 42.1197-69.1553L33.4523-74.6407Q29.6562-77.0662 26.605-74.0167L19.6936-67.1062Q18.1377-65.6127 17.9512-63.8374Q17.7648-62.0621 19.0091-60.1333L24.4936-51.5906Q24.1189-50.5929 23.7745-49.6548Q23.43-48.7167 23.0553-47.7164L13.2042-45.4084Q10.9648-44.9109 9.84374-43.5713Q8.72266-42.2317 8.72266-40.1161L8.72266-30.2797Q8.72266-28.1632 9.84374-26.8236Q10.9648-25.484 13.2042-24.9865L23.0562-22.6795Q23.43-21.68 23.7745-20.7424Q24.1189-19.8047 24.4945-18.8051L19.01-10.2633Q17.7647-8.33451 17.9516-6.58994Q18.1385-4.84537 19.6945-3.28952L26.605 3.62101Q28.0985 5.11456 29.8426 5.27032Q31.5867 5.42608 33.4542 4.24406L42.1197-1.2414Q43.1183-0.86581 44.0564-0.52137Q44.9944-0.176929 45.9335 0.197781L48.2404 10.0489Q48.738 12.2883 50.0776 13.4098Q51.4172 14.5314 53.5338 14.5314ZM58.5147-17.3845Q53.6548-17.3845 49.5751-19.8135Q45.4955-22.2424 43.0665-26.2914Q40.6375-30.3403 40.6375-35.2606Q40.6375-40.1195 43.0977-44.1373Q45.5579-48.1551 49.6063-50.5841Q53.6548-53.0131 58.5147-53.0131Q63.435-53.0131 67.4834-50.5841Q71.5319-48.1551 73.9609-44.1373Q76.3899-40.1195 76.3899-35.2606Q76.3899-30.3403 73.9609-26.2914Q71.5319-22.2424 67.4834-19.8135Q63.435-17.3845 58.5147-17.3845Z"/>
  </g>
  <g id="Black-S" transform="matrix(1 0 0 1 2882.57 696)">
   <path d="M47.4121 8.69141L54.248 8.69141Q56.9824 8.69141 59.0088 7.10449Q61.0352 5.51758 61.6211 2.88086L63.2324-3.80859Q63.5742-3.90625 63.8672-4.05273Q64.1602-4.19922 64.4531-4.29688L70.2637-0.683594Q72.5586 0.683594 75.1221 0.415039Q77.6855 0.146484 79.5898-1.70898L84.4238-6.54297Q86.3281-8.44727 86.5723-11.084Q86.8164-13.7207 85.3516-15.9668L81.8359-21.7285Q81.9336-21.9727 82.0557-22.2412Q82.1777-22.5098 82.2754-22.8027L89.0137-24.4141Q91.6504-25 93.2373-27.0264Q94.8242-29.0527 94.8242-31.7871L94.8242-38.4766Q94.8242-41.2109 93.2373-43.2129Q91.6504-45.2148 89.0137-45.8496L82.373-47.4121Q82.2754-47.7051 82.1533-47.998Q82.0312-48.291 81.8848-48.5352L85.4492-54.4922Q86.9141-56.8359 86.6699-59.4238Q86.4258-62.0117 84.4238-63.8672L79.4922-68.75Q77.5879-70.459 75.2197-70.752Q72.8516-71.0449 70.5566-69.8242L64.4531-66.0645Q64.1602-66.2109 63.8672-66.333Q63.5742-66.4551 63.2812-66.6016L61.6211-73.3887Q61.0352-76.0254 59.0088-77.6123Q56.9824-79.1992 54.248-79.1992L47.4121-79.1992Q44.6777-79.1992 42.6514-77.6123Q40.625-76.0254 40.0391-73.3398L38.4277-66.6504Q38.0859-66.5527 37.7686-66.4062Q37.4512-66.2598 37.1582-66.1133L31.1035-69.8242Q26.2207-72.4121 22.1191-68.7012L17.2363-63.8672Q15.2832-62.0117 15.0146-59.4238Q14.7461-56.8359 16.2109-54.4922L19.7754-48.5352Q19.6289-48.291 19.5068-47.998Q19.3848-47.7051 19.2871-47.4121L12.6465-45.8496Q10.0098-45.2148 8.42285-43.2129Q6.83594-41.2109 6.83594-38.4766L6.83594-31.7871Q6.83594-29.0527 8.42285-27.0264Q10.0098-25 12.6465-24.4141L19.3848-22.8027Q19.4824-22.5098 19.6045-22.2412Q19.7266-21.9727 19.8242-21.7285L16.3086-15.9668Q14.8438-13.7207 15.0879-11.084Q15.332-8.44727 17.2363-6.54297L22.0703-1.70898Q23.9746 0.146484 26.5625 0.415039Q29.1504 0.683594 31.3965-0.683594L37.207-4.29688Q37.5-4.19922 37.793-4.05273Q38.0859-3.90625 38.4277-3.80859L40.0391 2.88086Q40.625 5.51758 42.6514 7.10449Q44.6777 8.69141 47.4121 8.69141ZM50.8301-22.4121Q47.3145-22.4121 44.4092-24.1455Q41.5039-25.8789 39.7705-28.8086Q38.0371-31.7383 38.0371-35.2539Q38.0371-38.7695 39.7705-41.6504Q41.5039-44.5312 44.4092-46.2646Q47.3145-47.998 50.8301-47.998Q54.3457-47.998 57.251-46.2646Q60.1562-44.5312 61.8896-41.6504Q63.623-38.7695 63.623-35.2539Q63.623-31.7383 61.8896-28.8086Q60.1562-25.8789 57.251-24.1455Q54.3457-22.4121 50.8301-22.4121Z"/>
  </g>
  <g id="Heavy-S" transform="matrix(1 0 0 1 2586.76 696)">
   <path d="M46.5017 7.80402L53.3491 7.80402Q55.7839 7.80402 57.574 6.39574Q59.3641 4.98745 59.8924 2.63885L61.5959-4.48854Q62.1452-4.65534 62.6341-4.87673Q63.123-5.09813 63.5888-5.28798L69.7912-1.44421Q71.821-0.226839 74.0906-0.46082Q76.3602-0.694802 78.0456-2.34283L82.8795-7.17681Q84.5764-8.87367 84.7917-11.205Q85.0071-13.5363 83.692-15.5404L79.9344-21.6939Q80.1358-22.1225 80.3328-22.5869Q80.5297-23.0514 80.685-23.5288L87.8727-25.2438Q90.2214-25.7606 91.6181-27.5507Q93.0149-29.3408 93.0149-31.7871L93.0149-38.4881Q93.0149-40.9113 91.6181-42.6828Q90.2214-44.4542 87.8727-45.0083L80.7827-46.6976Q80.6159-47.2095 80.4074-47.6984Q80.1989-48.1873 79.9948-48.5813L83.7897-54.9186Q85.0932-56.9973 84.8836-59.2798Q84.6741-61.5623 82.9026-63.2218L77.971-68.0931Q76.2741-69.6177 74.1825-69.8761Q72.0909-70.1345 70.0496-69.0521L63.5888-65.0733Q63.1345-65.3005 62.6456-65.5032Q62.1567-65.706 61.6333-65.9101L59.8924-73.1467Q59.3641-75.4953 57.574-76.9036Q55.7839-78.3118 53.3491-78.3118L46.5017-78.3118Q44.0669-78.3118 42.2768-76.9036Q40.4867-75.4953 39.9699-73.1094L38.2549-65.9704Q37.7172-65.8036 37.2039-65.5823Q36.6906-65.3609 36.2247-65.1222L29.8128-69.0521Q25.4831-71.3519 21.8426-68.0558L16.9482-63.2218Q15.2141-61.5623 14.9858-59.2798Q14.7576-56.9973 16.0611-54.9186L19.8561-48.5813Q19.652-48.1873 19.4492-47.6984Q19.2465-47.2095 19.0797-46.6976L11.9896-45.0083Q9.64098-44.4542 8.23846-42.6828Q6.83594-40.9113 6.83594-38.4881L6.83594-31.7871Q6.83594-29.3408 8.23846-27.5507Q9.64098-25.7606 11.9896-25.2438L19.1773-23.5288Q19.3211-23.0514 19.5238-22.5869Q19.7266-22.1225 19.9164-21.6939L16.1588-15.5404Q14.8438-13.5363 15.0648-11.205Q15.2859-8.87367 16.9713-7.17681L21.8052-2.34283Q23.4906-0.694802 25.7788-0.46082Q28.0671-0.226839 30.0712-1.44421L36.2735-5.28798Q36.7279-5.09813 37.2225-4.87673Q37.7172-4.65534 38.2549-4.48854L39.9699 2.63885Q40.4867 4.98745 42.2768 6.39574Q44.0669 7.80402 46.5017 7.80402ZM49.9312-22.2738Q46.3694-22.2738 43.4296-24.0303Q40.4898-25.7867 38.7391-28.7452Q36.9884-31.7037 36.9884-35.2654Q36.9884-38.8156 38.7391-41.7311Q40.4898-44.6465 43.4296-46.4029Q46.3694-48.1594 49.9312-48.1594Q53.4814-48.1594 56.4212-46.4029Q59.3611-44.6465 61.1117-41.7311Q62.8624-38.8156 62.8624-35.2654Q62.8624-31.7037 61.1117-28.7452Q59.3611-25.7867 56.4212-24.0303Q53.4814-22.2738 49.9312-22.2738Z"/>
  </g>
  <g id="Bold-S" transform="matrix(1 0 0 1 2291.06 696)">
   <path d="M45.4834 6.81152L52.3438 6.81152Q54.4434 6.81152 55.9692 5.60303Q57.4951 4.39453 57.959 2.36816L59.7656-5.24902Q60.5469-5.49316 61.2549-5.79834Q61.9629-6.10352 62.6221-6.39648L69.2627-2.29492Q70.9961-1.24512 72.937-1.44043Q74.8779-1.63574 76.3184-3.05176L81.1523-7.88574Q82.6172-9.35059 82.8003-11.3403Q82.9834-13.3301 81.8359-15.0635L77.8076-21.6553Q78.125-22.29 78.4058-22.9736Q78.6865-23.6572 78.9062-24.3408L86.5967-26.1719Q88.623-26.6113 89.8071-28.1372Q90.9912-29.6631 90.9912-31.7871L90.9912-38.501Q90.9912-40.5762 89.8071-42.0898Q88.623-43.6035 86.5967-44.0674L79.0039-45.8984Q78.7598-46.6553 78.4546-47.3633Q78.1494-48.0713 77.8809-48.6328L81.9336-55.3955Q83.0566-57.1777 82.8857-59.1187Q82.7148-61.0596 81.2012-62.5L76.2695-67.3584Q74.8047-68.6768 73.0225-68.8965Q71.2402-69.1162 69.4824-68.1885L62.6221-63.9648Q61.9873-64.2822 61.2793-64.5752Q60.5713-64.8682 59.79-65.1367L57.959-72.876Q57.4951-74.9023 55.9692-76.1108Q54.4434-77.3193 52.3438-77.3193L45.4834-77.3193Q43.3838-77.3193 41.8579-76.1108Q40.332-74.9023 39.8926-72.8516L38.0615-65.21Q37.3047-64.9658 36.5723-64.6606Q35.8398-64.3555 35.1807-64.0137L28.3691-68.1885Q24.6582-70.166 21.5332-67.334L16.626-62.5Q15.1367-61.0596 14.9536-59.1187Q14.7705-57.1777 15.8936-55.3955L19.9463-48.6328Q19.6777-48.0713 19.3848-47.3633Q19.0918-46.6553 18.8477-45.8984L11.2549-44.0674Q9.22852-43.6035 8.03223-42.0898Q6.83594-40.5762 6.83594-38.501L6.83594-31.7871Q6.83594-29.6631 8.03223-28.1372Q9.22852-26.6113 11.2549-26.1719L18.9453-24.3408Q19.1406-23.6572 19.4336-22.9736Q19.7266-22.29 20.0195-21.6553L15.9912-15.0635Q14.8438-13.3301 15.0391-11.3403Q15.2344-9.35059 16.6748-7.88574L21.5088-3.05176Q22.9492-1.63574 24.9023-1.44043Q26.8555-1.24512 28.5889-2.29492L35.2295-6.39648Q35.8643-6.10352 36.5845-5.79834Q37.3047-5.49316 38.0615-5.24902L39.8926 2.36816Q40.332 4.39453 41.8579 5.60303Q43.3838 6.81152 45.4834 6.81152ZM48.9258-22.1191Q45.3125-22.1191 42.334-23.9014Q39.3555-25.6836 37.5854-28.6743Q35.8154-31.665 35.8154-35.2783Q35.8154-38.8672 37.5854-41.8213Q39.3555-44.7754 42.334-46.5576Q45.3125-48.3398 48.9258-48.3398Q52.5146-48.3398 55.4932-46.5576Q58.4717-44.7754 60.2417-41.8213Q62.0117-38.8672 62.0117-35.2783Q62.0117-31.665 60.2417-28.6743Q58.4717-25.6836 55.4932-23.9014Q52.5146-22.1191 48.9258-22.1191Z"/>
  </g>
  <g id="Semibold-S" transform="matrix(1 0 0 1 1995.05 696)">
   <path d="M44.7813 6.12725L51.6506 6.12725Q53.5191 6.12725 54.8628 5.05649Q56.2065 3.98574 56.626 2.18154L58.5037-5.77334Q59.4449-6.0708 60.304-6.43374Q61.1631-6.79668 61.9556-7.16074L68.8983-2.88145Q70.4273-1.94717 72.1417-2.11582Q73.856-2.28447 75.1275-3.54053L79.9615-8.37451Q81.2664-9.67939 81.4273-11.4336Q81.5882-13.1879 80.5563-14.7347L76.3413-21.6286Q76.7387-22.4056 77.0772-23.2402Q77.4157-24.0749 77.6799-24.9007L85.7169-26.8117Q87.5211-27.1979 88.5585-28.5416Q89.596-29.8853 89.596-31.7871L89.596-38.5099Q89.596-40.3451 88.5585-41.6811Q87.5211-43.017 85.7169-43.4187L77.7775-45.3475Q77.4801-46.2731 77.1083-47.1322Q76.7364-47.9913 76.4234-48.6684L80.6539-55.7243Q81.6525-57.3021 81.5083-59.0076Q81.3641-60.713 80.0281-62.0023L75.0965-66.8519Q73.7916-68.028 72.2227-68.2211Q70.6537-68.4142 69.0914-67.5931L61.9556-63.2006Q61.1964-63.5802 60.3373-63.9354Q59.4782-64.2905 58.5192-64.6035L56.626-72.6894Q56.2065-74.4936 54.8628-75.5643Q53.5191-76.6351 51.6506-76.6351L44.7813-76.6351Q42.9128-76.6351 41.5691-75.5643Q40.2254-74.4936 39.8393-72.6738L37.9282-64.6856Q37.0203-64.3882 36.1368-64.0252Q35.2533-63.6623 34.4608-63.2494L27.3738-67.5931Q24.0895-69.3484 21.3199-66.8363L16.4038-62.0023Q15.0834-60.713 14.9314-59.0076Q14.7794-57.3021 15.778-55.7243L20.0085-48.6684Q19.6955-47.9913 19.3403-47.1322Q18.9852-46.2731 18.6877-45.3475L10.7483-43.4187Q8.94414-43.017 7.89004-41.6811Q6.83594-40.3451 6.83594-38.5099L6.83594-31.7871Q6.83594-29.8853 7.89004-28.5416Q8.94414-27.1979 10.7483-26.8117L18.7854-24.9007Q19.0162-24.0749 19.3714-23.2402Q19.7266-22.4056 20.0906-21.6286L15.8757-14.7347Q14.8438-13.1879 15.0213-11.4336Q15.1988-9.67939 16.4704-8.37451L21.3044-3.54053Q22.576-2.28447 24.298-2.11582Q26.0201-1.94717 27.5669-2.88145L34.5097-7.16074Q35.2688-6.79668 36.1446-6.43374Q37.0203-6.0708 37.9282-5.77334L39.8393 2.18154Q40.2254 3.98574 41.5691 5.05649Q42.9128 6.12725 44.7813 6.12725ZM48.2326-22.0125Q44.5838-22.0125 41.5786-23.8125Q38.5734-25.6125 36.7901-28.6254Q35.0067-31.6384 35.0067-35.2872Q35.0067-38.9027 36.7901-41.8835Q38.5734-44.8643 41.5786-46.6643Q44.5838-48.4643 48.2326-48.4643Q51.8481-48.4643 54.8533-46.6643Q57.8585-44.8643 59.6418-41.8835Q61.4252-38.9027 61.4252-35.2872Q61.4252-31.6384 59.6418-28.6254Q57.8585-25.6125 54.8533-23.8125Q51.8481-22.0125 48.2326-22.0125Z"/>
  </g>
  <g id="Medium-S" transform="matrix(1 0 0 1 1698.87 696)">
   <path d="M44.249 5.6084L51.125 5.6084Q52.8184 5.6084 54.0239 4.64209Q55.2295 3.67578 55.6152 2.04004L57.5469-6.1709Q58.6094-6.50879 59.583-6.91553Q60.5566-7.32227 61.4502-7.74023L68.6221-3.32617Q69.9961-2.47949 71.5386-2.62793Q73.0811-2.77637 74.2246-3.91113L79.0586-8.74512Q80.2422-9.92871 80.3862-11.5044Q80.5303-13.0801 79.5859-14.4854L75.2295-21.6084Q75.6875-22.4932 76.0698-23.4424Q76.4521-24.3916 76.75-25.3252L85.0498-27.2969Q86.6855-27.6426 87.6118-28.8481Q88.5381-30.0537 88.5381-31.7871L88.5381-38.5166Q88.5381-40.1699 87.6118-41.3711Q86.6855-42.5723 85.0498-42.9268L76.8477-44.9297Q76.5098-45.9834 76.0874-46.957Q75.665-47.9307 75.3184-48.6953L79.6836-55.9736Q80.5879-57.3965 80.4639-58.9233Q80.3398-60.4502 79.1387-61.625L74.207-66.4678Q73.0234-67.5361 71.6162-67.709Q70.209-67.8818 68.7949-67.1416L61.4502-62.6211Q60.5967-63.0479 59.623-63.4502Q58.6494-63.8525 57.5557-64.1992L55.6152-72.5479Q55.2295-74.1836 54.0239-75.1499Q52.8184-76.1162 51.125-76.1162L44.249-76.1162Q42.5557-76.1162 41.3501-75.1499Q40.1445-74.1836 39.7988-72.5391L37.8271-64.2881Q36.8047-63.9502 35.8066-63.5435Q34.8086-63.1367 33.915-62.6699L26.6191-67.1416Q23.6582-68.7285 21.1582-66.459L16.2354-61.625Q15.043-60.4502 14.9146-58.9233Q14.7861-57.3965 15.6904-55.9736L20.0557-48.6953Q19.709-47.9307 19.3066-46.957Q18.9043-45.9834 18.5664-44.9297L10.3643-42.9268Q8.72852-42.5723 7.78223-41.3711Q6.83594-40.1699 6.83594-38.5166L6.83594-31.7871Q6.83594-30.0537 7.78223-28.8481Q8.72852-27.6426 10.3643-27.2969L18.6641-25.3252Q18.9219-24.3916 19.3242-23.4424Q19.7266-22.4932 20.1445-21.6084L15.7881-14.4854Q14.8438-13.0801 15.0078-11.5044Q15.1719-9.92871 16.3154-8.74512L21.1494-3.91113Q22.293-2.77637 23.8398-2.62793Q25.3867-2.47949 26.792-3.32617L33.9639-7.74023Q34.8174-7.32227 35.811-6.91553Q36.8047-6.50879 37.8271-6.1709L39.7988 2.04004Q40.1445 3.67578 41.3501 4.64209Q42.5557 5.6084 44.249 5.6084ZM47.707-21.9316Q44.0312-21.9316 41.0059-23.7451Q37.9805-25.5586 36.187-28.5884Q34.3936-31.6182 34.3936-35.2939Q34.3936-38.9297 36.187-41.9307Q37.9805-44.9316 41.0059-46.7451Q44.0312-48.5586 47.707-48.5586Q51.3428-48.5586 54.3682-46.7451Q57.3936-44.9316 59.187-41.9307Q60.9805-38.9297 60.9805-35.2939Q60.9805-31.6182 59.187-28.5884Q57.3936-25.5586 54.3682-23.7451Q51.3428-21.9316 47.707-21.9316Z"/>
  </g>
  <g id="Regular-S" transform="matrix(1 0 0 1 1402.85 696)">
   <path d="M43.5547 4.93164L50.4395 4.93164Q51.9043 4.93164 52.9297 4.10156Q53.9551 3.27148 54.2969 1.85547L56.2988-6.68945Q57.5195-7.08008 58.6426-7.54395Q59.7656-8.00781 60.791-8.49609L68.2617-3.90625Q69.4336-3.17383 70.752-3.2959Q72.0703-3.41797 73.0469-4.39453L77.8809-9.22852Q78.9062-10.2539 79.0283-11.5967Q79.1504-12.9395 78.3203-14.1602L73.7793-21.582Q74.3164-22.6074 74.7559-23.7061Q75.1953-24.8047 75.5371-25.8789L84.1797-27.9297Q85.5957-28.2227 86.377-29.248Q87.1582-30.2734 87.1582-31.7871L87.1582-38.5254Q87.1582-39.9414 86.377-40.9668Q85.5957-41.9922 84.1797-42.2852L75.6348-44.3848Q75.2441-45.6055 74.7559-46.7285Q74.2676-47.8516 73.877-48.7305L78.418-56.2988Q79.1992-57.5195 79.1016-58.8135Q79.0039-60.1074 77.9785-61.1328L73.0469-65.9668Q72.0215-66.8945 70.8252-67.041Q69.6289-67.1875 68.4082-66.5527L60.791-61.8652Q59.8145-62.3535 58.6914-62.8174Q57.5684-63.2812 56.2988-63.6719L54.2969-72.3633Q53.9551-73.7793 52.9297-74.6094Q51.9043-75.4395 50.4395-75.4395L43.5547-75.4395Q42.0898-75.4395 41.0645-74.6094Q40.0391-73.7793 39.7461-72.3633L37.6953-63.7695Q36.5234-63.3789 35.376-62.915Q34.2285-62.4512 33.2031-61.9141L25.6348-66.5527Q23.0957-67.9199 20.9473-65.9668L16.0156-61.1328Q14.9902-60.1074 14.8926-58.8135Q14.7949-57.5195 15.5762-56.2988L20.1172-48.7305Q19.7266-47.8516 19.2627-46.7285Q18.7988-45.6055 18.4082-44.3848L9.86328-42.2852Q8.44727-41.9922 7.6416-40.9668Q6.83594-39.9414 6.83594-38.5254L6.83594-31.7871Q6.83594-30.2734 7.6416-29.248Q8.44727-28.2227 9.86328-27.9297L18.5059-25.8789Q18.7988-24.8047 19.2627-23.7061Q19.7266-22.6074 20.2148-21.582L15.6738-14.1602Q14.8438-12.9395 14.9902-11.5967Q15.1367-10.2539 16.1133-9.22852L20.9473-4.39453Q21.9238-3.41797 23.2422-3.2959Q24.5605-3.17383 25.7812-3.90625L33.252-8.49609Q34.2285-8.00781 35.376-7.54395Q36.5234-7.08008 37.6953-6.68945L39.7461 1.85547Q40.0391 3.27148 41.0645 4.10156Q42.0898 4.93164 43.5547 4.93164ZM47.0215-21.8262Q43.3105-21.8262 40.2588-23.6572Q37.207-25.4883 35.4004-28.54Q33.5938-31.5918 33.5938-35.3027Q33.5938-38.9648 35.4004-41.9922Q37.207-45.0195 40.2588-46.8506Q43.3105-48.6816 47.0215-48.6816Q50.6836-48.6816 53.7354-46.8506Q56.7871-45.0195 58.5938-41.9922Q60.4004-38.9648 60.4004-35.3027Q60.4004-31.5918 58.5938-28.54Q56.7871-25.4883 53.7354-23.6572Q50.6836-21.8262 47.0215-21.8262Z"/>
  </g>
  <g id="Light-S" transform="matrix(1 0 0 1 1106.5 696)">
   <path d="M43.0552 4.56848L50.2124 4.56848Q51.7227 4.56848 52.7632 3.72314Q53.8038 2.87781 54.1606 1.356L56.102-6.93156Q57.1714-7.29192 58.1734-7.69526Q59.1754-8.0986 60.11-8.52636L67.3686-4.0273Q68.6312-3.23435 69.9649-3.35642Q71.2985-3.4785 72.3356-4.51558L77.3511-9.53115Q78.437-10.6171 78.5666-11.9675Q78.6962-13.3179 77.8208-14.6294L73.3554-21.8241Q73.8169-22.774 74.2034-23.7591Q74.5898-24.7442 74.9166-25.7276L83.2865-27.7026Q84.8086-28.0258 85.6201-29.0588Q86.4316-30.0919 86.4316-31.6508L86.4316-38.692Q86.4316-40.1835 85.6201-41.2165Q84.8086-42.2496 83.2865-42.5728L74.984-44.5816Q74.6236-45.666 74.2034-46.668Q73.7831-47.67 73.4227-48.5186L77.8882-55.8144Q78.73-57.1259 78.6172-58.4502Q78.5044-59.7745 77.4185-60.8452L72.3356-65.8607Q71.2646-66.8643 70.0153-67.0031Q68.766-67.142 67.4698-66.4164L60.11-61.85Q59.2089-62.2777 58.1994-62.6811Q57.1899-63.0844 56.102-63.4448L54.1606-71.8335Q53.8038-73.3554 52.7632-74.2006Q51.7227-75.0458 50.2124-75.0458L43.0552-75.0458Q41.5298-75.0458 40.4968-74.2006Q39.4638-73.3554 39.1406-71.8335L37.1656-63.5122Q36.1298-63.1518 35.111-62.7485Q34.0922-62.3451 33.1426-61.8838L25.8163-66.4164Q23.1412-67.9502 20.917-65.8607L15.834-60.8452Q14.7481-59.7745 14.6353-58.4502Q14.5226-57.1259 15.3643-55.8144L19.8296-48.5186Q19.4692-47.67 19.0659-46.668Q18.6625-45.666 18.3022-44.5816L10.0146-42.5728Q8.49279-42.2496 7.66436-41.2165Q6.83594-40.1835 6.83594-38.692L6.83594-31.6508Q6.83594-30.0919 7.66436-29.0588Q8.49279-28.0258 10.0146-27.7026L18.3695-25.7276Q18.6625-24.7442 19.0659-23.7591Q19.4692-22.774 19.897-21.8241L15.4317-14.6294Q14.5561-13.3179 14.7026-11.9675Q14.8491-10.6171 15.9014-9.53115L20.917-4.51558Q21.9541-3.4785 23.2876-3.35642Q24.6211-3.23435 25.9176-4.0273L33.1762-8.52636Q34.0922-8.0986 35.111-7.69526Q36.1298-7.29192 37.1656-6.93156L39.1406 1.356Q39.4638 2.87781 40.4968 3.72314Q41.5298 4.56848 43.0552 4.56848ZM46.6583-21.6446Q42.9169-21.6446 39.8197-23.4983Q36.7226-25.352 34.8857-28.4416Q33.0488-31.5313 33.0488-35.2875Q33.0488-38.9951 34.8933-42.0603Q36.7378-45.1256 39.8273-46.9793Q42.9169-48.833 46.6583-48.833Q50.381-48.833 53.4705-46.9793Q56.56-45.1256 58.3969-42.0603Q60.2338-38.9951 60.2338-35.2875Q60.2338-31.5313 58.3969-28.4416Q56.56-25.352 53.4705-23.4983Q50.381-21.6446 46.6583-21.6446Z"/>
  </g>
  <g id="Thin-S" transform="matrix(1 0 0 1 810.269 696)">
   <path d="M42.3946 4.08817L49.912 4.08817Q51.4826 4.08817 52.5431 3.22266Q53.6036 2.35714 53.9803 0.695407L55.8417-7.25176Q56.7109-7.5721 57.5528-7.89539Q58.3947-8.21868 59.2092-8.56638L66.1873-4.18741Q67.5701-3.31441 68.9239-3.43648Q70.2777-3.55855 71.3948-4.67569L76.6505-9.9314Q77.8165-11.0974 77.956-12.4579Q78.0955-13.8184 77.1603-15.2499L72.7947-22.1443Q73.1563-22.9943 73.4726-23.8292Q73.7889-24.6641 74.0959-25.5275L82.1053-27.4022Q83.7676-27.7655 84.6191-28.8086Q85.4707-29.8517 85.4707-31.4705L85.4707-38.9123Q85.4707-40.5037 84.6191-41.5468Q83.7676-42.5899 82.1053-42.9532L74.1233-44.8419Q73.8029-45.746 73.4726-46.5879Q73.1424-47.4298 72.822-48.2384L77.1876-55.1736Q78.1094-56.6052 77.9766-57.9697Q77.8438-59.3342 76.6779-60.4648L71.3948-65.7205Q70.2637-66.8242 68.9442-66.953Q67.6248-67.0818 66.2287-66.2361L59.2092-61.8298Q58.4081-62.1775 57.5488-62.5008Q56.6895-62.8241 55.8417-63.1444L53.9803-71.1329Q53.6036-72.7947 52.5431-73.6599Q51.4826-74.5251 49.912-74.5251L42.3946-74.5251Q40.7892-74.5251 39.7461-73.6599Q38.703-72.7947 38.3397-71.1329L36.465-63.1718Q35.6091-62.8514 34.7605-62.5282Q33.9119-62.2049 33.0625-61.8438L26.0565-66.2361Q23.2014-67.9902 20.877-65.7205L15.5939-60.4648Q14.4279-59.3342 14.2951-57.9697Q14.1623-56.6052 15.0841-55.1736L19.4491-48.2384Q19.1288-47.4298 18.8055-46.5879Q18.4822-45.746 18.1619-44.8419L10.2147-42.9532Q8.55299-42.5899 7.69447-41.5468Q6.83594-40.5037 6.83594-38.9123L6.83594-31.4705Q6.83594-29.8517 7.69447-28.8086Q8.55299-27.7655 10.2147-27.4022L18.1893-25.5275Q18.4822-24.6641 18.8055-23.8292Q19.1288-22.9943 19.4765-22.1443L15.1115-15.2499Q14.1757-13.8184 14.3222-12.4579Q14.4687-11.0974 15.6213-9.9314L20.877-4.67569Q21.9941-3.55855 23.3476-3.43648Q24.7011-3.31441 26.0978-4.18741L33.0759-8.56638Q33.9119-8.21868 34.7605-7.89539Q35.6091-7.5721 36.465-7.25176L38.3397 0.695407Q38.703 2.35714 39.7461 3.22266Q40.7892 4.08817 42.3946 4.08817ZM46.178-21.4044Q42.3962-21.4044 39.239-23.2881Q36.0818-25.1717 34.2049-28.3115Q32.328-31.4512 32.328-35.2673Q32.328-39.0351 34.2226-42.1505Q36.1173-45.2658 39.2567-47.1495Q42.3962-49.0331 46.178-49.0331Q49.9807-49.0331 53.1202-47.1495Q56.2596-45.2658 58.1366-42.1505Q60.0135-39.0351 60.0135-35.2673Q60.0135-31.4512 58.1366-28.3115Q56.2596-25.1717 53.1202-23.2881Q49.9807-21.4044 46.178-21.4044Z"/>
  </g>
  <g id="Ultralight-S" transform="matrix(1 0 0 1 513.804 696)">
   <path d="M42.0563 3.84216L49.7581 3.84216Q51.3596 3.84216 52.4303 2.96631Q53.5011 2.09045 53.8879 0.357056L55.7083-7.41577Q56.4751-7.71561 57.235-7.99789Q57.9948-8.28018 58.7479-8.58688L65.5823-4.26941Q67.0265-3.35541 68.3907-3.47748Q69.7548-3.59955 70.9129-4.75769L76.2917-10.1364Q77.4986-11.3434 77.6432-12.709Q77.7878-14.0747 76.8219-15.5678L72.5075-22.3083Q72.818-23.1071 73.0984-23.8651Q73.3788-24.6231 73.6755-25.425L81.5002-27.2484Q83.2344-27.6321 84.1064-28.6804Q84.9785-29.7287 84.9785-31.3782L84.9785-39.0251Q84.9785-40.6677 84.1064-41.716Q83.2344-42.7643 81.5002-43.148L73.6824-44.9753Q73.3826-45.787 73.0984-46.5469Q72.8142-47.3068 72.5143-48.0949L76.8288-54.8454Q77.7916-56.3385 77.6485-57.7236Q77.5055-59.1087 76.2985-60.2699L70.9129-65.6487Q69.751-66.8037 68.3956-66.9273Q67.0403-67.0509 65.593-66.1438L58.7479-61.8195Q57.9979-62.1262 57.2155-62.4084Q56.4331-62.6907 55.7083-62.9906L53.8879-70.7741Q53.5011-72.5075 52.4303-73.3829Q51.3596-74.2584 49.7581-74.2584L42.0563-74.2584Q40.4099-74.2584 39.3616-73.3829Q38.3133-72.5075 37.9295-70.7741L36.1061-62.9974Q35.3424-62.6976 34.581-62.4153Q33.8196-62.133 33.0215-61.8233L26.1795-66.1438Q23.2323-68.0107 20.8565-65.6487L15.4709-60.2699Q14.2639-59.1087 14.1209-57.7236Q13.9778-56.3385 14.9406-54.8454L19.2543-48.0949Q18.9545-47.3068 18.6722-46.5469Q18.3899-45.787 18.0901-44.9753L10.3172-43.148Q8.58383-42.7643 7.70988-41.716Q6.83594-40.6677 6.83594-39.0251L6.83594-31.3782Q6.83594-29.7287 7.70988-28.6804Q8.58383-27.6321 10.3172-27.2484L18.0969-25.425Q18.3899-24.6231 18.6722-23.8651Q18.9545-23.1071 19.2612-22.3083L14.9475-15.5678Q13.9809-14.0747 14.1273-12.709Q14.2738-11.3434 15.4778-10.1364L20.8565-4.75769Q22.0146-3.59955 23.3784-3.47748Q24.7421-3.35541 26.1902-4.26941L33.0246-8.58688Q33.8196-8.28018 34.581-7.99789Q35.3424-7.71561 36.1061-7.41577L37.9295 0.357056Q38.3133 2.09045 39.3616 2.96631Q40.4099 3.84216 42.0563 3.84216ZM45.932-21.2814Q42.1295-21.2814 38.9416-23.1804Q35.7536-25.0793 33.8562-28.2448Q31.9588-31.4102 31.9588-35.257Q31.9588-39.0556 33.8791-42.1967Q35.7994-45.3377 38.9645-47.2366Q42.1295-49.1356 45.932-49.1356Q49.7757-49.1356 52.9408-47.2366Q56.1058-45.3377 58.0032-42.1967Q59.9007-39.0556 59.9007-35.257Q59.9007-31.4102 58.0032-28.2448Q56.1058-25.0793 52.9408-23.1804Q49.7757-21.2814 45.932-21.2814Z"/>
  </g>
 </g>
</svg>
