<?xml version="1.0" encoding="UTF-8"?>
<!--Generator: Apple Native CoreSVG 175-->
<!DOCTYPE svg
PUBLIC "-//W3C//DTD SVG 1.1//EN"
       "http://www.w3.org/Graphics/SVG/1.1/DTD/svg11.dtd">
<svg version="1.1" xmlns="http://www.w3.org/2000/svg" xmlns:xlink="http://www.w3.org/1999/xlink" width="3300" height="2200">
 <!--glyph: "uni100216.medium", point size: 100.0, font version: "17.1d1e1", template writer version: "65.1"-->
 <g id="Notes">
  <rect height="2200" id="artboard" style="fill:white;opacity:1" width="3300" x="0" y="0"/>
  <line style="fill:none;stroke:black;opacity:1;stroke-width:0.5;" x1="263" x2="3036" y1="292" y2="292"/>
  <text style="stroke:none;fill:black;font-family:sans-serif;font-size:13;font-weight:bold;" transform="matrix(1 0 0 1 263 322)">Weight/Scale Variations</text>
  <text style="stroke:none;fill:black;font-family:sans-serif;font-size:13;text-anchor:middle;" transform="matrix(1 0 0 1 559.711 322)">Ultralight</text>
  <text style="stroke:none;fill:black;font-family:sans-serif;font-size:13;text-anchor:middle;" transform="matrix(1 0 0 1 856.422 322)">Thin</text>
  <text style="stroke:none;fill:black;font-family:sans-serif;font-size:13;text-anchor:middle;" transform="matrix(1 0 0 1 1153.13 322)">Light</text>
  <text style="stroke:none;fill:black;font-family:sans-serif;font-size:13;text-anchor:middle;" transform="matrix(1 0 0 1 1449.84 322)">Regular</text>
  <text style="stroke:none;fill:black;font-family:sans-serif;font-size:13;text-anchor:middle;" transform="matrix(1 0 0 1 1746.56 322)">Medium</text>
  <text style="stroke:none;fill:black;font-family:sans-serif;font-size:13;text-anchor:middle;" transform="matrix(1 0 0 1 2043.27 322)">Semibold</text>
  <text style="stroke:none;fill:black;font-family:sans-serif;font-size:13;text-anchor:middle;" transform="matrix(1 0 0 1 2339.98 322)">Bold</text>
  <text style="stroke:none;fill:black;font-family:sans-serif;font-size:13;text-anchor:middle;" transform="matrix(1 0 0 1 2636.69 322)">Heavy</text>
  <text style="stroke:none;fill:black;font-family:sans-serif;font-size:13;text-anchor:middle;" transform="matrix(1 0 0 1 2933.4 322)">Black</text>
  <line style="fill:none;stroke:black;opacity:1;stroke-width:0.5;" x1="263" x2="3036" y1="1903" y2="1903"/>
  <g transform="matrix(1 0 0 1 263 1933)">
   <path d="M9.24805 0.830078Q10.8691 0.830078 12.2949 0.214844Q13.7207-0.400391 14.8096-1.49414Q15.8984-2.58789 16.5186-4.01367Q17.1387-5.43945 17.1387-7.05078Q17.1387-8.66211 16.5186-10.0879Q15.8984-11.5137 14.8047-12.6074Q13.7109-13.7012 12.2852-14.3164Q10.8594-14.9316 9.23828-14.9316Q7.62695-14.9316 6.20117-14.3164Q4.77539-13.7012 3.69141-12.6074Q2.60742-11.5137 1.9873-10.0879Q1.36719-8.66211 1.36719-7.05078Q1.36719-5.43945 1.9873-4.01367Q2.60742-2.58789 3.69629-1.49414Q4.78516-0.400391 6.21094 0.214844Q7.63672 0.830078 9.24805 0.830078ZM9.24805-0.654297Q7.91992-0.654297 6.7627-1.14746Q5.60547-1.64062 4.73145-2.51953Q3.85742-3.39844 3.36426-4.56055Q2.87109-5.72266 2.87109-7.05078Q2.87109-8.37891 3.35938-9.54102Q3.84766-10.7031 4.72168-11.582Q5.5957-12.4609 6.75293-12.9541Q7.91016-13.4473 9.23828-13.4473Q10.5762-13.4473 11.7334-12.9541Q12.8906-12.4609 13.7695-11.582Q14.6484-10.7031 15.1465-9.54102Q15.6445-8.37891 15.6445-7.05078Q15.6445-5.72266 15.1514-4.56055Q14.6582-3.39844 13.7842-2.51953Q12.9102-1.64062 11.748-1.14746Q10.5859-0.654297 9.24805-0.654297ZM5.6543-7.05078Q5.6543-6.72852 5.85938-6.52832Q6.06445-6.32812 6.40625-6.32812L8.51562-6.32812L8.51562-4.20898Q8.51562-3.88672 8.71094-3.67676Q8.90625-3.4668 9.23828-3.4668Q9.56055-3.4668 9.77051-3.67676Q9.98047-3.88672 9.98047-4.20898L9.98047-6.32812L12.0898-6.32812Q12.4219-6.32812 12.627-6.52832Q12.832-6.72852 12.832-7.05078Q12.832-7.38281 12.627-7.58789Q12.4219-7.79297 12.0898-7.79297L9.98047-7.79297L9.98047-9.90234Q9.98047-10.2344 9.77051-10.4443Q9.56055-10.6543 9.23828-10.6543Q8.90625-10.6543 8.71094-10.4443Q8.51562-10.2344 8.51562-9.90234L8.51562-7.79297L6.40625-7.79297Q6.06445-7.79297 5.85938-7.58789Q5.6543-7.38281 5.6543-7.05078Z"/>
  </g>
  <g transform="matrix(1 0 0 1 281.867 1933)">
   <path d="M11.709 2.91016Q13.75 2.91016 15.5518 2.12891Q17.3535 1.34766 18.7305-0.0292969Q20.1074-1.40625 20.8887-3.20801Q21.6699-5.00977 21.6699-7.05078Q21.6699-9.0918 20.8887-10.8936Q20.1074-12.6953 18.7305-14.0723Q17.3535-15.4492 15.5469-16.2305Q13.7402-17.0117 11.6992-17.0117Q9.6582-17.0117 7.85645-16.2305Q6.05469-15.4492 4.68262-14.0723Q3.31055-12.6953 2.5293-10.8936Q1.74805-9.0918 1.74805-7.05078Q1.74805-5.00977 2.5293-3.20801Q3.31055-1.40625 4.6875-0.0292969Q6.06445 1.34766 7.86621 2.12891Q9.66797 2.91016 11.709 2.91016ZM11.709 1.25Q9.98047 1.25 8.47656 0.605469Q6.97266-0.0390625 5.83496-1.17676Q4.69727-2.31445 4.05762-3.81836Q3.41797-5.32227 3.41797-7.05078Q3.41797-8.7793 4.05762-10.2832Q4.69727-11.7871 5.83008-12.9297Q6.96289-14.0723 8.4668-14.7119Q9.9707-15.3516 11.6992-15.3516Q13.4277-15.3516 14.9316-14.7119Q16.4355-14.0723 17.5781-12.9297Q18.7207-11.7871 19.3652-10.2832Q20.0098-8.7793 20.0098-7.05078Q20.0098-5.32227 19.3701-3.81836Q18.7305-2.31445 17.5928-1.17676Q16.4551-0.0390625 14.9463 0.605469Q13.4375 1.25 11.709 1.25ZM7.17773-7.05078Q7.17773-6.69922 7.41211-6.47461Q7.64648-6.25 8.01758-6.25L10.8887-6.25L10.8887-3.36914Q10.8887-2.99805 11.1133-2.76855Q11.3379-2.53906 11.6895-2.53906Q12.0605-2.53906 12.29-2.76855Q12.5195-2.99805 12.5195-3.36914L12.5195-6.25L15.4004-6.25Q15.7715-6.25 16.001-6.47461Q16.2305-6.69922 16.2305-7.05078Q16.2305-7.42188 16.001-7.65137Q15.7715-7.88086 15.4004-7.88086L12.5195-7.88086L12.5195-10.752Q12.5195-11.1328 12.29-11.3623Q12.0605-11.5918 11.6895-11.5918Q11.3379-11.5918 11.1133-11.3574Q10.8887-11.123 10.8887-10.752L10.8887-7.88086L8.01758-7.88086Q7.63672-7.88086 7.40723-7.65137Q7.17773-7.42188 7.17773-7.05078Z"/>
  </g>
  <g transform="matrix(1 0 0 1 305.646 1933)">
   <path d="M14.9707 5.66406Q17.0605 5.66406 18.96 5.01465Q20.8594 4.36523 22.4512 3.19336Q24.043 2.02148 25.2197 0.429688Q26.3965-1.16211 27.0459-3.06641Q27.6953-4.9707 27.6953-7.05078Q27.6953-9.14062 27.0459-11.04Q26.3965-12.9395 25.2197-14.5312Q24.043-16.123 22.4512-17.2998Q20.8594-18.4766 18.9551-19.126Q17.0508-19.7754 14.9609-19.7754Q12.8711-19.7754 10.9717-19.126Q9.07227-18.4766 7.48535-17.2998Q5.89844-16.123 4.72168-14.5312Q3.54492-12.9395 2.90039-11.04Q2.25586-9.14062 2.25586-7.05078Q2.25586-4.9707 2.90527-3.06641Q3.55469-1.16211 4.72656 0.429688Q5.89844 2.02148 7.49023 3.19336Q9.08203 4.36523 10.9814 5.01465Q12.8809 5.66406 14.9707 5.66406ZM14.9707 3.84766Q13.1641 3.84766 11.5283 3.2959Q9.89258 2.74414 8.53516 1.74805Q7.17773 0.751953 6.17676-0.610352Q5.17578-1.97266 4.62891-3.6084Q4.08203-5.24414 4.08203-7.05078Q4.08203-8.86719 4.62891-10.5029Q5.17578-12.1387 6.17188-13.501Q7.16797-14.8633 8.52539-15.8594Q9.88281-16.8555 11.5186-17.4023Q13.1543-17.9492 14.9609-17.9492Q16.7773-17.9492 18.4131-17.4023Q20.0488-16.8555 21.4111-15.8594Q22.7734-14.8633 23.7695-13.501Q24.7656-12.1387 25.3174-10.5029Q25.8691-8.86719 25.8691-7.05078Q25.8789-5.24414 25.332-3.6084Q24.7852-1.97266 23.7842-0.610352Q22.7832 0.751953 21.4209 1.74805Q20.0586 2.74414 18.4229 3.2959Q16.7871 3.84766 14.9707 3.84766ZM9.19922-7.05078Q9.19922-6.66992 9.45801-6.4209Q9.7168-6.17188 10.1172-6.17188L14.0625-6.17188L14.0625-2.2168Q14.0625-1.81641 14.3115-1.55762Q14.5605-1.29883 14.9512-1.29883Q15.3516-1.29883 15.6104-1.55273Q15.8691-1.80664 15.8691-2.2168L15.8691-6.17188L19.8242-6.17188Q20.2246-6.17188 20.4785-6.4209Q20.7324-6.66992 20.7324-7.05078Q20.7324-7.46094 20.4785-7.71484Q20.2246-7.96875 19.8242-7.96875L15.8691-7.96875L15.8691-11.9141Q15.8691-12.3242 15.6104-12.583Q15.3516-12.8418 14.9512-12.8418Q14.5605-12.8418 14.3115-12.583Q14.0625-12.3242 14.0625-11.9141L14.0625-7.96875L10.1172-7.96875Q9.70703-7.96875 9.45312-7.71484Q9.19922-7.46094 9.19922-7.05078Z"/>
  </g>
  <text style="stroke:none;fill:black;font-family:sans-serif;font-size:13;font-weight:bold;" transform="matrix(1 0 0 1 263 1953)">Design Variations</text>
  <text style="stroke:none;fill:black;font-family:sans-serif;font-size:13;" transform="matrix(1 0 0 1 263 1971)">Symbols are supported in up to nine weights and three scales.</text>
  <text style="stroke:none;fill:black;font-family:sans-serif;font-size:13;" transform="matrix(1 0 0 1 263 1989)">For optimal layout with text and other symbols, vertically align</text>
  <text style="stroke:none;fill:black;font-family:sans-serif;font-size:13;" transform="matrix(1 0 0 1 263 2007)">symbols with the adjacent text.</text>
  <line style="fill:none;stroke:#00AEEF;stroke-width:0.5;opacity:1.0;" x1="776" x2="776" y1="1919" y2="1933"/>
  <g transform="matrix(1 0 0 1 776 1933)">
   <path d="M3.31055 0.15625Q3.70117 0.15625 3.91602-0.00976562Q4.13086-0.175781 4.26758-0.585938L5.52734-4.0332L11.2891-4.0332L12.5488-0.585938Q12.6855-0.175781 12.9004-0.00976562Q13.1152 0.15625 13.4961 0.15625Q13.8867 0.15625 14.1162-0.0585938Q14.3457-0.273438 14.3457-0.644531Q14.3457-0.869141 14.2383-1.17188L9.6582-13.3691Q9.48242-13.8184 9.17969-14.043Q8.87695-14.2676 8.4082-14.2676Q7.5-14.2676 7.17773-13.3789L2.59766-1.16211Q2.49023-0.859375 2.49023-0.634766Q2.49023-0.263672 2.70996-0.0537109Q2.92969 0.15625 3.31055 0.15625ZM6.00586-5.51758L8.37891-12.0898L8.42773-12.0898L10.8008-5.51758Z"/>
  </g>
  <line style="fill:none;stroke:#00AEEF;stroke-width:0.5;opacity:1.0;" x1="793.197" x2="793.197" y1="1919" y2="1933"/>
  <text style="stroke:none;fill:black;font-family:sans-serif;font-size:13;font-weight:bold;" transform="matrix(1 0 0 1 776 1953)">Margins</text>
  <text style="stroke:none;fill:black;font-family:sans-serif;font-size:13;" transform="matrix(1 0 0 1 776 1971)">Leading and trailing margins on the left and right side of each symbol</text>
  <text style="stroke:none;fill:black;font-family:sans-serif;font-size:13;" transform="matrix(1 0 0 1 776 1989)">can be adjusted by modifying the x-location of the margin guidelines.</text>
  <text style="stroke:none;fill:black;font-family:sans-serif;font-size:13;" transform="matrix(1 0 0 1 776 2007)">Modifications are automatically applied proportionally to all</text>
  <text style="stroke:none;fill:black;font-family:sans-serif;font-size:13;" transform="matrix(1 0 0 1 776 2025)">scales and weights.</text>
  <g transform="matrix(1 0 0 1 1289 1933)">
   <path d="M2.8418 1.86523L4.54102 3.57422Q5.18555 4.22852 5.90332 4.17969Q6.62109 4.13086 7.31445 3.35938L18.0078-8.42773L17.041-9.4043L6.42578 2.27539Q6.16211 2.57812 5.89355 2.61719Q5.625 2.65625 5.27344 2.30469L4.10156 1.14258Q3.75 0.791016 3.79395 0.522461Q3.83789 0.253906 4.14062-0.0195312L15.6152-10.8203L14.6387-11.7871L3.04688-0.898438Q2.30469-0.214844 2.25098 0.498047Q2.19727 1.21094 2.8418 1.86523ZM9.25781-16.3281Q8.94531-16.0254 8.90625-15.6348Q8.86719-15.2441 9.04297-14.9512Q9.21875-14.6777 9.55566-14.541Q9.89258-14.4043 10.3809-14.5215Q11.4746-14.7754 12.5977-14.7314Q13.7207-14.6875 14.7949-13.9844L14.209-12.5293Q13.9551-11.9043 14.0674-11.4404Q14.1797-10.9766 14.5801-10.5664L16.875-8.25195Q17.2363-7.88086 17.5781-7.82227Q17.9199-7.76367 18.3398-7.8418L19.4043-8.03711L20.0684-7.36328L20.0293-6.80664Q20-6.43555 20.1221-6.12305Q20.2441-5.81055 20.6055-5.44922L21.3672-4.70703Q21.7285-4.3457 22.1533-4.33105Q22.5781-4.31641 22.9297-4.66797L25.8398-7.58789Q26.1914-7.93945 26.1816-8.35449Q26.1719-8.76953 25.8105-9.13086L25.0391-9.89258Q24.6875-10.2539 24.3799-10.3857Q24.0723-10.5176 23.7109-10.4883L23.1348-10.4395L22.4902-11.0742L22.7344-12.1973Q22.832-12.6172 22.6953-12.9834Q22.5586-13.3496 22.1191-13.7891L19.9219-15.9766Q18.6719-17.2168 17.2607-17.8369Q15.8496-18.457 14.4189-18.4814Q12.9883-18.5059 11.665-17.959Q10.3418-17.4121 9.25781-16.3281ZM10.752-15.957Q11.6602-16.6211 12.7002-16.9043Q13.7402-17.1875 14.8047-17.085Q15.8691-16.9824 16.8701-16.5137Q17.8711-16.0449 18.7012-15.2051L21.1328-12.793Q21.3086-12.6172 21.3525-12.4512Q21.3965-12.2852 21.3379-12.0312L21.0156-10.5469L22.5195-9.0625L23.5059-9.12109Q23.6914-9.13086 23.7891-9.09668Q23.8867-9.0625 24.0332-8.91602L24.6094-8.33984L22.168-5.89844L21.5918-6.47461Q21.4453-6.62109 21.4062-6.71875Q21.3672-6.81641 21.377-7.01172L21.4453-7.98828L19.9512-9.47266L18.4277-9.21875Q18.1836-9.16992 18.042-9.2041Q17.9004-9.23828 17.7148-9.41406L15.7129-11.416Q15.5176-11.5918 15.4932-11.7529Q15.4688-11.9141 15.5859-12.1875L16.4648-14.2773Q15.293-15.3711 13.8281-15.791Q12.3633-16.2109 10.8398-15.7617Q10.7227-15.7324 10.6885-15.8057Q10.6543-15.8789 10.752-15.957Z"/>
  </g>
  <text style="stroke:none;fill:black;font-family:sans-serif;font-size:13;font-weight:bold;" transform="matrix(1 0 0 1 1289 1953)">Exporting</text>
  <text style="stroke:none;fill:black;font-family:sans-serif;font-size:13;" transform="matrix(1 0 0 1 1289 1971)">Symbols should be outlined when exporting to ensure the</text>
  <text style="stroke:none;fill:black;font-family:sans-serif;font-size:13;" transform="matrix(1 0 0 1 1289 1989)">design is preserved when submitting to Xcode.</text>
  <text id="template-version" style="stroke:none;fill:black;font-family:sans-serif;font-size:13;text-anchor:end;" transform="matrix(1 0 0 1 3036 1933)">Template v.2.0</text>
  <text style="stroke:none;fill:black;font-family:sans-serif;font-size:13;text-anchor:end;" transform="matrix(1 0 0 1 3036 1951)">Requires Xcode 12 or greater</text>
  <text id="descriptive-name" style="stroke:none;fill:black;font-family:sans-serif;font-size:13;text-anchor:end;" transform="matrix(1 0 0 1 3036 1969)">Generated from folder.fill</text>
  <text style="stroke:none;fill:black;font-family:sans-serif;font-size:13;text-anchor:end;" transform="matrix(1 0 0 1 3036 1987)">Typeset at 100 points</text>
  <text style="stroke:none;fill:black;font-family:sans-serif;font-size:13;" transform="matrix(1 0 0 1 263 726)">Small</text>
  <text style="stroke:none;fill:black;font-family:sans-serif;font-size:13;" transform="matrix(1 0 0 1 263 1156)">Medium</text>
  <text style="stroke:none;fill:black;font-family:sans-serif;font-size:13;" transform="matrix(1 0 0 1 263 1586)">Large</text>
 </g>
 <g id="Guides">
  <g id="H-reference" style="fill:#27AAE1;stroke:none;" transform="matrix(1 0 0 1 339 696)">
   <path d="M0.993347 0L3.6377 0L29.3282-67.1326L30.0301-67.1326L30.0301-70.459L28.1227-70.459ZM11.6882-24.4797L46.9818-24.4797L46.2311-26.7288L12.4382-26.7288ZM55.1193 0L57.7637 0L30.6381-70.459L29.4327-70.459L29.4327-67.1326Z"/>
  </g>
  <line id="Baseline-S" style="fill:none;stroke:#27AAE1;opacity:1;stroke-width:0.5;" x1="263" x2="3036" y1="696" y2="696"/>
  <line id="Capline-S" style="fill:none;stroke:#27AAE1;opacity:1;stroke-width:0.5;" x1="263" x2="3036" y1="625.541" y2="625.541"/>
  <g id="H-reference" style="fill:#27AAE1;stroke:none;" transform="matrix(1 0 0 1 339 1126)">
   <path d="M0.993347 0L3.6377 0L29.3282-67.1326L30.0301-67.1326L30.0301-70.459L28.1227-70.459ZM11.6882-24.4797L46.9818-24.4797L46.2311-26.7288L12.4382-26.7288ZM55.1193 0L57.7637 0L30.6381-70.459L29.4327-70.459L29.4327-67.1326Z"/>
  </g>
  <line id="Baseline-M" style="fill:none;stroke:#27AAE1;opacity:1;stroke-width:0.5;" x1="263" x2="3036" y1="1126" y2="1126"/>
  <line id="Capline-M" style="fill:none;stroke:#27AAE1;opacity:1;stroke-width:0.5;" x1="263" x2="3036" y1="1055.54" y2="1055.54"/>
  <g id="H-reference" style="fill:#27AAE1;stroke:none;" transform="matrix(1 0 0 1 339 1556)">
   <path d="M0.993347 0L3.6377 0L29.3282-67.1326L30.0301-67.1326L30.0301-70.459L28.1227-70.459ZM11.6882-24.4797L46.9818-24.4797L46.2311-26.7288L12.4382-26.7288ZM55.1193 0L57.7637 0L30.6381-70.459L29.4327-70.459L29.4327-67.1326Z"/>
  </g>
  <line id="Baseline-L" style="fill:none;stroke:#27AAE1;opacity:1;stroke-width:0.5;" x1="263" x2="3036" y1="1556" y2="1556"/>
  <line id="Capline-L" style="fill:none;stroke:#27AAE1;opacity:1;stroke-width:0.5;" x1="263" x2="3036" y1="1485.54" y2="1485.54"/>
  <line id="left-margin" style="fill:none;stroke:#00AEEF;stroke-width:0.5;opacity:1.0;" x1="1381.98" x2="1381.98" y1="1030.79" y2="1150.12"/>
  <line id="right-margin" style="fill:none;stroke:#00AEEF;stroke-width:0.5;opacity:1.0;" x1="1517.71" x2="1517.71" y1="1030.79" y2="1150.12"/>
 </g>
 <g id="Symbols">
  <g id="Black-L" transform="matrix(1 0 0 1 2842.85 1556)">
   <path d="M16.084 1.90914Q16.084 13.2363 22.2958 19.4273Q28.5077 25.6183 39.8556 25.6183L141.855 25.6183Q152.787 25.6183 158.905 19.4261Q165.023 13.2339 165.023 1.90914L165.023-43.2711L16.084-43.2711ZM16.084-55.0764L165.023-55.0764L165.023-63.1621Q165.023-74.4869 158.822-80.6687Q152.62-86.8505 141.251-86.8505L88.9958-86.8505Q85.1238-86.8505 82.3168-87.8495Q79.5098-88.8486 76.1215-91.3515L73.2818-93.5146Q69.3277-96.5028 65.9711-97.6621Q62.6145-98.8214 56.7408-98.8214L39.3132-98.8214Q28.7088-98.8214 22.3964-92.5445Q16.084-86.2677 16.084-74.8613Z"/>
  </g>
  <g id="Heavy-L" transform="matrix(1 0 0 1 2546.9 1556)">
   <path d="M16.084 2.05473Q16.084 12.9732 21.9834 18.8424Q27.8828 24.7117 38.8315 24.7117L141.631 24.7117Q151.976 24.7117 157.74 18.8368Q163.503 12.9619 163.503 2.05473L163.503-44.7263L16.084-44.7263ZM16.084-55.5807L163.503-55.5807L163.503-62.9377Q163.503-73.8449 157.619-79.7047Q151.735-85.5644 140.756-85.5644L86.5281-85.5644Q82.7878-85.5644 80.1239-86.5271Q77.46-87.4897 74.3021-89.8808L71.2353-92.2831Q67.4742-95.1969 64.2357-96.3176Q60.9971-97.4383 55.409-97.4383L37.8524-97.4383Q27.8281-97.4383 21.956-91.5577Q16.084-85.6771 16.084-74.7782Z"/>
  </g>
  <g id="Bold-L" transform="matrix(1 0 0 1 2251.15 1556)">
   <path d="M16.084 2.239Q16.084 12.628 21.5991 18.1052Q27.1142 23.5824 37.5412 23.5824L141.221 23.5824Q150.888 23.5824 156.232 18.092Q161.576 12.6015 161.576 2.239L161.576-46.4425L16.084-46.4425ZM16.084-56.0243L161.576-56.0243L161.576-62.6759Q161.576-73.0385 156.08-78.5098Q150.584-83.9812 140.119-83.9812L83.6339-83.9812Q79.9954-83.9812 77.4822-84.8978Q74.969-85.8144 72.058-88.1044L68.7667-90.7691Q65.2215-93.613 62.1364-94.6838Q59.0514-95.7547 53.7718-95.7547L36.0763-95.7547Q26.7518-95.7547 21.4179-90.3695Q16.084-84.9844 16.084-74.7603Z"/>
  </g>
  <g id="Semibold-L" transform="matrix(1 0 0 1 1955.1 1556)">
   <path d="M16.084 2.36604Q16.084 12.39 21.3341 17.5969Q26.5843 22.8039 36.6518 22.8039L140.937 22.8039Q150.138 22.8039 155.193 17.5785Q160.248 12.353 160.248 2.36604L160.248-47.6256L16.084-47.6256ZM16.084-56.3302L160.248-56.3302L160.248-62.4955Q160.248-72.4825 155.019-77.6861Q149.791-82.8898 139.68-82.8898L81.6387-82.8898Q78.0703-82.8898 75.661-83.7746Q73.2517-84.6594 70.511-86.8798L67.0648-89.7253Q63.6684-92.521 60.6892-93.5575Q57.71-94.594 52.6432-94.594L34.8518-94.594Q26.0099-94.594 21.0469-89.5504Q16.084-84.5068 16.084-74.7479Z"/>
  </g>
  <g id="Medium-L" transform="matrix(1 0 0 1 1658.89 1556)">
   <path d="M16.084 2.46236Q16.084 12.2096 21.1332 17.2115Q26.1825 22.2135 35.9773 22.2135L140.723 22.2135Q149.569 22.2135 154.404 17.1891Q159.24 12.1646 159.24 2.46236L159.24-48.5227L16.084-48.5227ZM16.084-56.5621L159.24-56.5621L159.24-62.3587Q159.24-72.061 154.215-77.0616Q149.189-82.0622 139.347-82.0622L80.1258-82.0622Q76.6106-82.0622 74.2801-82.9229Q71.9496-83.7837 69.3379-85.9513L65.7744-88.9339Q62.4908-91.693 59.5919-92.7035Q56.6929-93.7139 51.7874-93.7139L33.9234-93.7139Q25.4473-93.7139 20.7656-88.9293Q16.084-84.1447 16.084-74.7385Z"/>
  </g>
  <g id="Regular-L" transform="matrix(1 0 0 1 1362.84 1556)">
   <path d="M16.084 2.588Q16.084 11.9742 20.8712 16.7089Q25.6584 21.4436 35.0976 21.4436L140.443 21.4436Q148.826 21.4436 153.376 16.6812Q157.926 11.9189 157.926 2.588L157.926-49.6929L16.084-49.6929ZM16.084-56.8646L157.926-56.8646L157.926-62.1802Q157.926-71.5111 153.165-76.2469Q148.404-80.9828 138.913-80.9828L78.1525-80.9828Q74.7067-80.9828 72.4789-81.8121Q70.2511-82.6414 67.8079-84.7401L64.0913-87.9016Q60.9549-90.6131 58.1605-91.5895Q55.3662-92.566 50.6712-92.566L32.7124-92.566Q24.7135-92.566 20.3987-88.1192Q16.084-83.6724 16.084-74.7263Z"/>
  </g>
  <g id="Light-L" transform="matrix(1 0 0 1 1066.94 1556)">
   <path d="M16.084 2.74063Q16.084 11.6115 20.623 16.1173Q25.1621 20.623 34.067 20.623L139.298 20.623Q147.529 20.623 151.916 16.0705Q156.304 11.5181 156.304 2.74063L156.304-50.3226L16.084-50.3226ZM16.084-56.0059L156.304-56.0059L156.304-62.1039Q156.304-70.8813 151.782-75.4168Q147.259-79.9522 138.321-79.9522L77.1982-79.9522Q73.4279-79.9522 71.1334-80.7433Q68.839-81.5345 66.3191-83.8051L62.8125-86.9284Q59.6761-89.7351 57.0346-90.664Q54.393-91.5928 49.6214-91.5928L31.7008-91.5928Q24.0645-91.5928 20.0742-87.5181Q16.084-83.4435 16.084-75.2608Z"/>
  </g>
  <g id="Thin-L" transform="matrix(1 0 0 1 771.301 1556)">
   <path d="M16.084 2.9425Q16.084 11.1319 20.2948 15.3348Q24.5056 19.5378 32.704 19.5378L137.783 19.5378Q145.812 19.5378 149.985 15.2629Q154.158 10.988 154.158 2.9425L154.158-51.1555L16.084-51.1555ZM16.084-54.8701L154.158-54.8701L154.158-62.003Q154.158-70.0484 149.952-74.3188Q145.745-78.5891 137.538-78.5891L75.9361-78.5891Q71.7366-78.5891 69.3539-79.3298Q66.9712-80.0705 64.35-82.5684L61.1212-85.6413Q57.9848-88.574 55.5454-89.4398Q53.1059-90.3057 48.2329-90.3057L30.3628-90.3057Q23.2061-90.3057 19.645-86.7232Q16.084-83.1407 16.084-75.9678Z"/>
  </g>
  <g id="Ultralight-L" transform="matrix(1 0 0 1 475.139 1556)">
   <path d="M16.084 3.0459Q16.084 10.8862 20.1266 14.934Q24.1693 18.9819 32.0059 18.9819L137.007 18.9819Q144.933 18.9819 148.996 14.8492Q153.06 10.7164 153.06 3.0459L153.06-51.5822L16.084-51.5822ZM16.084-54.2884L153.06-54.2884L153.06-61.9513Q153.06-69.6218 149.014-73.7564Q144.969-77.891 137.138-77.891L75.2896-77.891Q70.8704-77.891 68.4425-78.6058Q66.0146-79.3207 63.3415-81.935L60.2549-84.9821Q57.1185-87.9792 54.7826-88.8128Q52.4466-89.6464 47.5217-89.6464L29.6774-89.6464Q22.7665-89.6464 19.4252-86.316Q16.084-82.9856 16.084-76.3299Z"/>
  </g>
  <g id="Black-M" transform="matrix(1 0 0 1 2862.7 1126)">
   <path d="M12.4609-6.56109Q12.4609 2.49597 17.5084 7.53794Q22.5559 12.5799 31.6184 12.5799L109.938 12.5799Q118.891 12.5799 123.914 7.53822Q128.936 2.49654 128.936-6.56109L128.936-40.2943L12.4609-40.2943ZM12.4609-50.056L128.936-50.056L128.936-57.0526Q128.936-66.1102 123.892-71.1492Q118.847-76.1881 109.779-76.1881L70.9402-76.1881Q67.7833-76.1881 65.4766-76.9882Q63.1699-77.7883 60.3365-79.8468L58.36-81.3119Q55.1308-83.7039 52.4495-84.6287Q49.7683-85.5536 44.9619-85.5536L31.5761-85.5536Q22.9109-85.5536 17.6859-80.4005Q12.4609-75.2474 12.4609-66.0777Z"/>
  </g>
  <g id="Heavy-M" transform="matrix(1 0 0 1 2566.66 1126)">
   <path d="M12.4609-6.43284Q12.4609 2.27221 17.2259 7.02075Q21.9908 11.7693 30.7123 11.7693L109.825 11.7693Q118.218 11.7693 122.909 7.01848Q127.601 2.26767 127.601-6.43284L127.601-41.6588L12.4609-41.6588ZM12.4609-50.6282L127.601-50.6282L127.601-56.8403Q127.601-65.5408 122.844-70.2834Q118.087-75.026 109.349-75.026L68.616-75.026Q65.6177-75.026 63.457-75.794Q61.2964-76.5621 58.6952-78.4954L56.4774-80.1978Q53.4369-82.5083 50.8569-83.3998Q48.2769-84.2913 43.7568-84.2913L30.2413-84.2913Q22.1098-84.2913 17.2854-79.4913Q12.4609-74.6913 12.4609-65.9472Z"/>
  </g>
  <g id="Bold-M" transform="matrix(1 0 0 1 2270.69 1126)">
   <path d="M12.4609-6.28938Q12.4609 2.02191 16.9098 6.44221Q21.3587 10.8625 29.6986 10.8625L109.699 10.8625Q117.466 10.8625 121.786 6.43707Q126.106 2.01164 126.106-6.28938L126.106-43.1852L12.4609-43.1852ZM12.4609-51.2682L126.106-51.2682L126.106-56.6027Q126.106-64.9037 121.672-69.3148Q117.237-73.7259 108.869-73.7259L66.016-73.7259Q63.1952-73.7259 61.1979-74.4581Q59.2006-75.1903 56.8592-76.9836L54.3715-78.9516Q51.5419-81.1708 49.0753-82.0251Q46.6087-82.8793 42.4086-82.8793L28.7481-82.8793Q21.2137-82.8793 16.8373-78.4742Q12.4609-74.0691 12.4609-65.8012Z"/>
  </g>
  <g id="Semibold-M" transform="matrix(1 0 0 1 1974.5 1126)">
   <path d="M12.4609-6.19048Q12.4609 1.84935 16.6919 6.04336Q20.9229 10.2374 28.9999 10.2374L109.612 10.2374Q116.948 10.2374 121.012 6.03626Q125.076 1.83514 125.076-6.19048L125.076-44.2374L12.4609-44.2374ZM12.4609-51.7095L125.076-51.7095L125.076-56.439Q125.076-64.4646 120.864-68.6471Q116.651-72.8297 108.537-72.8297L64.2236-72.8297Q61.5251-72.8297 59.6404-73.5372Q57.7557-74.2446 55.5935-75.9413L52.9196-78.0925Q50.2356-80.2488 47.8471-81.0773Q45.4586-81.9059 41.4792-81.9059L27.7188-81.9059Q20.5959-81.9059 16.5284-77.773Q12.4609-73.6402 12.4609-65.7006Z"/>
  </g>
  <g id="Medium-M" transform="matrix(1 0 0 1 1678.18 1126)">
   <path d="M12.4609-6.11548Q12.4609 1.71851 16.5267 5.74094Q20.5925 9.76336 28.47 9.76336L109.546 9.76336Q116.554 9.76336 120.425 5.73234Q124.295 1.70131 124.295-6.11548L124.295-45.0353L12.4609-45.0353ZM12.4609-52.044L124.295-52.044L124.295-56.3148Q124.295-64.1316 120.251-68.1409Q116.207-72.1501 108.286-72.1501L62.8645-72.1501Q60.2588-72.1501 58.4595-72.8388Q56.6602-73.5276 54.6338-75.1511L51.8188-77.4411Q49.245-79.5497 46.9158-80.3587Q44.5865-81.1678 40.7745-81.1678L26.9383-81.1678Q20.1274-81.1678 16.2942-77.2414Q12.4609-73.3149 12.4609-65.6243Z"/>
  </g>
  <g id="Regular-M" transform="matrix(1 0 0 1 1381.98 1126)">
   <path d="M12.4609-6.01767Q12.4609 1.54785 16.3112 5.34647Q20.1615 9.1451 27.7789 9.1451L109.459 9.1451Q116.042 9.1451 119.659 5.33592Q123.276 1.52675 123.276-6.01767L123.276-46.076L12.4609-46.076ZM12.4609-52.4804L123.276-52.4804L123.276-56.1528Q123.276-63.6973 119.452-67.4805Q115.628-71.2637 107.958-71.2637L61.0918-71.2637Q58.6071-71.2637 56.9192-71.928Q55.2312-72.5923 53.382-74.1203L50.3829-76.5914Q47.953-78.6378 45.7011-79.4214Q43.4491-80.2051 39.8554-80.2051L25.9202-80.2051Q19.5164-80.2051 15.9887-76.5479Q12.4609-72.8907 12.4609-65.5247Z"/>
  </g>
  <g id="Light-M" transform="matrix(1 0 0 1 1085.99 1126)">
   <path d="M12.4609-5.88083Q12.4609 1.2227 16.0887 4.81606Q19.7165 8.40942 26.8549 8.40942L108.433 8.40942Q114.878 8.40942 118.35 4.78841Q121.822 1.1674 121.822-5.88083L121.822-46.6406L12.4609-46.6406ZM12.4609-51.7106L121.822-51.7106L121.822-56.0844Q121.822-63.1326 118.211-66.7362Q114.601-70.3398 107.428-70.3398L60.2362-70.3398Q57.4606-70.3398 55.7129-70.9698Q53.9651-71.5999 52.0472-73.282L49.2364-75.7189Q46.8065-77.8506 44.6915-78.5916Q42.5766-79.3325 38.9141-79.3325L25.0132-79.3325Q18.9345-79.3325 15.6977-76.009Q12.4609-72.6855 12.4609-66.0039Z"/>
  </g>
  <g id="Thin-M" transform="matrix(1 0 0 1 790.243 1126)">
   <path d="M12.4609-5.69984Q12.4609 0.792672 15.7944 4.11455Q19.1279 7.43644 25.6329 7.43644L107.075 7.43644Q113.339 7.43644 116.619 4.06428Q119.899 0.69212 119.899-5.69984L119.899-47.3874L12.4609-47.3874ZM12.4609-50.6923L119.899-50.6923L119.899-55.9939Q119.899-62.3859 116.571-65.7518Q113.243-69.1177 106.727-69.1177L59.1047-69.1177Q55.9443-69.1177 54.1175-69.7025Q52.2906-70.2873 50.2819-72.1733L47.7201-74.5649Q45.2902-76.8096 43.3564-77.4941Q41.4226-78.1786 37.6693-78.1786L23.8136-78.1786Q18.165-78.1786 15.313-75.2963Q12.4609-72.414 12.4609-66.6378Z"/>
  </g>
  <g id="Ultralight-M" transform="matrix(1 0 0 1 494.024 1126)">
   <path d="M12.4609-5.60714Q12.4609 0.572413 15.6437 3.75525Q18.8264 6.93808 25.007 6.93808L106.38 6.93808Q112.551 6.93808 115.732 3.69338Q118.913 0.448686 118.913-5.60714L118.913-47.7698L12.4609-47.7698ZM12.4609-50.1708L118.913-50.1708L118.913-55.9476Q118.913-62.0034 115.73-65.2476Q112.548-68.4918 106.367-68.4918L58.5251-68.4918Q55.1676-68.4918 53.3003-69.0534Q51.433-69.6151 49.3776-71.6054L46.9434-73.9738Q44.5135-76.2764 42.6725-76.9319Q40.8315-77.5875 37.0317-77.5875L23.1992-77.5875Q17.7708-77.5875 15.1159-74.9312Q12.4609-72.2749 12.4609-66.9624Z"/>
  </g>
  <g id="Black-S" transform="matrix(1 0 0 1 2877.83 696)">
   <path d="M9.76562-12.793Q9.76562-5.61523 13.7939-1.58691Q17.8223 2.44141 25 2.44141L86.1328 2.44141Q93.3105 2.44141 97.3389-1.58691Q101.367-5.61523 101.367-12.793L101.367-38.8184L9.76562-38.8184ZM9.76562-46.6309L101.367-46.6309L101.367-52.3926Q101.367-59.5703 97.3389-63.5986Q93.3105-67.627 86.1328-67.627L56.25-67.627Q53.7109-67.627 51.8555-68.2617Q50-68.8965 47.7051-70.5566L46.2402-71.6309Q43.6523-73.5352 41.5283-74.2676Q39.4043-75 35.5469-75L25.0977-75Q18.1641-75 13.9648-70.874Q9.76562-66.748 9.76562-59.4727Z"/>
  </g>
  <g id="Heavy-S" transform="matrix(1 0 0 1 2581.6 696)">
   <path d="M9.76562-12.7008Q9.76562-5.76505 13.5807-1.96146Q17.3959 1.84213 24.3431 1.84213L86.1674 1.84213Q92.8841 1.84213 96.6474-1.96146Q100.411-5.76505 100.411-12.7008L100.411-39.9132L9.76562-39.9132ZM9.76562-47.2186L100.411-47.2186L100.411-52.2197Q100.411-59.1554 96.6013-62.9533Q92.7919-66.7511 85.8332-66.7511L54.3715-66.7511Q52.0053-66.7511 50.2824-67.3628Q48.5594-67.9745 46.472-69.5079L44.7766-70.7896Q42.3501-72.6132 40.2952-73.3226Q38.2403-74.0319 34.6364-74.0319L24.072-74.0319Q17.5533-74.0319 13.6594-70.1653Q9.76562-66.2986 9.76562-59.2998Z"/>
  </g>
  <g id="Bold-S" transform="matrix(1 0 0 1 2285.42 696)">
   <path d="M9.76562-12.5977Q9.76562-5.93262 13.3423-2.38037Q16.9189 1.17188 23.6084 1.17188L86.2061 1.17188Q92.4072 1.17188 95.874-2.38037Q99.3408-5.93262 99.3408-12.5977L99.3408-41.1377L9.76562-41.1377ZM9.76562-47.876L99.3408-47.876L99.3408-52.0264Q99.3408-58.6914 95.7764-62.2314Q92.2119-65.7715 85.498-65.7715L52.2705-65.7715Q50.0977-65.7715 48.5229-66.3574Q46.9482-66.9434 45.0928-68.335L43.1396-69.8486Q40.8936-71.582 38.916-72.2656Q36.9385-72.9492 33.6182-72.9492L22.9248-72.9492Q16.8701-72.9492 13.3179-69.3726Q9.76562-65.7959 9.76562-59.1064Z"/>
  </g>
  <g id="Semibold-S" transform="matrix(1 0 0 1 1989.08 696)">
   <path d="M9.76562-12.5266Q9.76562-6.04814 13.1779-2.66919Q16.5901 0.709766 23.1019 0.709766L86.2327 0.709766Q92.0784 0.709766 95.3408-2.66919Q98.6032-6.04814 98.6032-12.5266L98.6032-41.9819L9.76562-41.9819ZM9.76562-48.3292L98.6032-48.3292L98.6032-51.8931Q98.6032-58.3715 95.2076-61.7338Q91.812-65.0961 85.267-65.0961L50.822-65.0961Q48.7824-65.0961 47.3099-65.6643Q45.8374-66.2324 44.1419-67.5263L42.011-69.1999Q39.8894-70.8711 37.9651-71.5369Q36.0409-72.2027 32.9161-72.2027L22.1339-72.2027Q16.3991-72.2027 13.0824-68.826Q9.76562-65.4493 9.76562-58.9731Z"/>
  </g>
  <g id="Medium-S" transform="matrix(1 0 0 1 1692.65 696)">
   <path d="M9.76562-12.4727Q9.76562-6.13574 13.0532-2.88818Q16.3408 0.359375 22.7178 0.359375L86.2529 0.359375Q91.8291 0.359375 94.9365-2.88818Q98.0439-6.13574 98.0439-12.4727L98.0439-42.6221L9.76562-42.6221ZM9.76562-48.6729L98.0439-48.6729L98.0439-51.792Q98.0439-58.1289 94.7764-61.3564Q91.5088-64.584 85.0918-64.584L49.7236-64.584Q47.7852-64.584 46.3901-65.1387Q44.9951-65.6934 43.4209-66.9131L41.1553-68.708Q39.1279-70.332 37.2441-70.9844Q35.3604-71.6367 32.3838-71.6367L21.5342-71.6367Q16.042-71.6367 12.9038-68.4116Q9.76562-65.1865 9.76562-58.8721Z"/>
  </g>
  <g id="Regular-S" transform="matrix(1 0 0 1 1396.3 696)">
   <path d="M9.76562-12.4023Q9.76562-6.25 12.8906-3.17383Q16.0156-0.0976562 22.2168-0.0976562L86.2793-0.0976562Q91.5039-0.0976562 94.4092-3.17383Q97.3145-6.25 97.3145-12.4023L97.3145-43.457L9.76562-43.457ZM9.76562-49.1211L97.3145-49.1211L97.3145-51.6602Q97.3145-57.8125 94.2139-60.8643Q91.1133-63.916 84.8633-63.916L48.291-63.916Q46.4844-63.916 45.1904-64.4531Q43.8965-64.9902 42.4805-66.1133L40.0391-68.0664Q38.1348-69.6289 36.3037-70.2637Q34.4727-70.8984 31.6895-70.8984L20.752-70.8984Q15.5762-70.8984 12.6709-67.8711Q9.76562-64.8438 9.76562-58.7402Z"/>
  </g>
  <g id="Light-S" transform="matrix(1 0 0 1 1100.24 696)">
   <path d="M9.76562-12.2813Q9.76562-6.53763 12.6938-3.64304Q15.6219-0.748444 21.3994-0.748444L85.3711-0.748444Q90.4747-0.748444 93.2513-3.65817Q96.0279-6.56789 96.0279-12.2813L96.0279-43.9565L9.76562-43.9565ZM9.76562-48.44L96.0279-48.44L96.0279-51.5996Q96.0279-57.313 93.1165-60.2058Q90.2051-63.0987 84.3941-63.0987L47.5342-63.0987Q45.4702-63.0987 44.1233-63.6055Q42.7765-64.1123 41.2997-65.3717L39.0249-67.2946Q37.1206-68.9326 35.4107-69.5296Q33.7008-70.1266 30.8568-70.1266L19.9496-70.1266Q15.0614-70.1266 12.4135-67.3944Q9.76562-64.6622 9.76562-59.1642Z"/>
  </g>
  <g id="Thin-S" transform="matrix(1 0 0 1 804.376 696)">
   <path d="M9.76562-12.1212Q9.76562-6.91804 12.4335-4.2636Q15.1013-1.60916 20.3184-1.60916L84.17-1.60916Q89.1135-1.60916 91.7199-4.29875Q94.3263-6.98833 94.3263-12.1212L94.3263-44.6171L9.76562-44.6171ZM9.76562-47.5393L94.3263-47.5393L94.3263-51.5196Q94.3263-56.6524 91.6652-59.335Q89.004-62.0176 83.7735-62.0176L46.5332-62.0176Q44.1288-62.0176 42.712-62.4844Q41.2952-62.9513 39.738-64.3909L37.6835-66.2737Q35.7792-68.0117 34.2296-68.5587Q32.68-69.1058 29.7556-69.1058L18.8884-69.1058Q14.3807-69.1058 12.0731-66.7639Q9.76562-64.422 9.76562-59.7249Z"/>
  </g>
  <g id="Ultralight-S" transform="matrix(1 0 0 1 508.101 696)">
   <path d="M9.76562-12.0392Q9.76562-7.11288 12.3001-4.58145Q14.8346-2.05002 19.7647-2.05002L83.5548-2.05002Q88.4163-2.05002 90.9355-4.62685Q93.4547-7.20367 93.4547-12.0392L93.4547-44.9554L9.76562-44.9554ZM9.76562-47.0779L93.4547-47.0779L93.4547-51.4786Q93.4547-56.3141 90.9218-58.889Q88.3888-61.4639 83.4557-61.4639L46.0205-61.4639Q43.4418-61.4639 41.9891-61.9102Q40.5365-62.3566 38.9381-63.8885L36.9965-65.7509Q35.0922-67.54 33.6246-68.0614Q32.1571-68.5829 29.1916-68.5829L18.3449-68.5829Q14.032-68.5829 11.8988-66.441Q9.76562-64.299 9.76562-60.0121Z"/>
  </g>
 </g>
</svg>
